<?xml version="1.0" encoding="UTF-8"?> <svg xmlns="http://www.w3.org/2000/svg" width="68" height="72" viewBox="0 0 68 72" fill="none"> <g opacity="0.7" filter="url(#filter0_f)"> <path d="M20 34.3997C20 24.0538 30.8349 17.2819 40.1347 21.8153C44.9469 24.1612 48 29.0461 48 34.3997V38C48 45.732 41.732 52 34 52C26.268 52 20 45.732 20 38V34.3997Z" fill="#2481F5"></path> </g> <rect x="9" y="2" width="50" height="50" rx="8" fill="url(#paint0_linear)"></rect> <path d="M26 17C26 16.4477 26.4477 16 27 16H32C32.5523 16 33 16.4477 33 17C33 17.5523 32.5523 18 32 18H27C26.4477 18 26 17.5523 26 17Z" fill="white"></path> <path d="M29 21C29 20.4477 29.4477 20 30 20H41C41.5523 20 42 20.4477 42 21C42 21.5523 41.5523 22 41 22H30C29.4477 22 29 21.5523 29 21Z" fill="white"></path> <path d="M26 25C26 24.4477 26.4477 24 27 24H41C41.5523 24 42 24.4477 42 25C42 25.5523 41.5523 26 41 26H27C26.4477 26 26 25.5523 26 25Z" fill="white"></path> <path fill-rule="evenodd" clip-rule="evenodd" d="M22 12C22 11.4477 22.4477 11 23 11H45C45.5523 11 46 11.4477 46 12V21.0748L49.6472 24.2374C49.6678 24.2549 49.6879 24.2734 49.7072 24.2928C49.7739 24.3595 49.8303 24.4348 49.8753 24.5161C49.9626 24.6737 50.0032 24.8468 50 25.0177V41.9869C50.0034 42.2483 49.905 42.5108 49.7048 42.7096C49.5032 42.9098 49.2379 43.0064 48.9747 42.9998H19.0255C18.7623 43.0064 18.4969 42.9098 18.2954 42.7096C18.1887 42.6037 18.111 42.4797 18.0621 42.3474C18.0219 42.2391 18 42.122 18 41.9998L18 24.9972C18.0003 24.866 18.0263 24.7339 18.0795 24.609C18.1383 24.4704 18.2284 24.3452 18.3449 24.2442L22 21.0748V12ZM24 21.5364C24 21.5327 24 21.529 24 21.5253V13H44V21.5249C44 21.5289 44 21.5328 44 21.5368V27.2795L39.1544 30.6714C37.8973 29.4875 35.852 29.0021 34.0001 29.0021C32.1483 29.0021 30.1029 29.4875 28.846 30.6716L24 27.2794V21.5364ZM22 23.722L20.6233 24.9157L22 25.8794V23.722ZM20 26.9207V39.5744L27.4138 32.1103L20 26.9207ZM21.4031 40.9998H46.5971L38.3455 32.6918C38.336 32.6825 38.3266 32.6731 38.3173 32.6634L37.8295 32.1722L37.8282 32.1709C37.1228 31.4678 35.6627 31.0021 34.0001 31.0021C32.3376 31.0021 30.8777 31.4678 30.1725 32.1708L30.1712 32.1721L21.4031 40.9998ZM48 39.5741V26.9208L40.5867 32.1101L48 39.5741ZM47.3767 24.9158L46 23.722V25.8795L47.3767 24.9158Z" fill="white"></path> <defs> <filter id="filter0_f" x="0" y="0.382324" width="68" height="71.6179" filterUnits="userSpaceOnUse" color-interpolation-filters="sRGB"> <feFlood flood-opacity="0" result="BackgroundImageFix"></feFlood> <feBlend mode="normal" in="SourceGraphic" in2="BackgroundImageFix" result="shape"></feBlend> <feGaussianBlur stdDeviation="10" result="effect1_foregroundBlur"></feGaussianBlur> </filter> <linearGradient id="paint0_linear" x1="9" y1="2" x2="55.0227" y2="52" gradientUnits="userSpaceOnUse"> <stop stop-color="#7DB7FF"></stop> <stop offset="1" stop-color="#2481F5"></stop> </linearGradient> </defs> </svg> 