<?xml version="1.0" encoding="UTF-8"?> <svg xmlns="http://www.w3.org/2000/svg" width="578" height="577" viewBox="0 0 578 577" fill="none"> <g filter="url(#filter0_f)"> <path d="M78 512.739C78 501.409 87.4028 492.341 98.7256 492.752L486.456 506.828C494.573 507.122 501 513.787 501 521.909C501 530.243 494.243 537 485.909 537H98C86.9543 537 78 528.046 78 517V512.739Z" fill="#DEDFE1"></path> </g> <path d="M0 20.4517C0 8.85517 9.83083 -0.310478 21.3989 0.500664L559.399 38.2246C569.876 38.9592 578 47.6728 578 58.1756L578 508C578 519.046 569.046 528 558 528L20 528C8.95429 528 0 519.046 0 508L0 20.4517Z" fill="white"></path> <defs> <filter id="filter0_f" x="38" y="452.739" width="503" height="124.261" filterUnits="userSpaceOnUse" color-interpolation-filters="sRGB"> <feFlood flood-opacity="0" result="BackgroundImageFix"></feFlood> <feBlend mode="normal" in="SourceGraphic" in2="BackgroundImageFix" result="shape"></feBlend> <feGaussianBlur stdDeviation="20" result="effect1_foregroundBlur"></feGaussianBlur> </filter> </defs> </svg> 