<?xml version="1.0" encoding="UTF-8"?> <svg xmlns="http://www.w3.org/2000/svg" width="68" height="73" viewBox="0 0 68 73" fill="none"> <g filter="url(#filter0_f)"> <path d="M20 34.6458C20 24.2401 30.9493 17.471 40.2577 22.1222C45.0025 24.493 48 29.3417 48 34.6458V39C48 46.732 41.732 53 34 53C26.268 53 20 46.732 20 39V34.6458Z" fill="#FF9146"></path> </g> <rect x="8" y="2" width="51" height="51" rx="8" fill="url(#paint0_linear)"></rect> <path d="M26.3125 39.3594C26.3125 38.5223 26.9911 37.8438 27.8281 37.8438C28.6652 37.8438 29.3438 38.5223 29.3438 39.3594C29.3438 40.1964 28.6652 40.875 27.8281 40.875C26.9911 40.875 26.3125 40.1964 26.3125 39.3594Z" fill="white"></path> <path d="M40.2031 16.7031C39.3661 16.7031 38.6875 17.3817 38.6875 18.2188C38.6875 19.0558 39.3661 19.7344 40.2031 19.7344C41.0402 19.7344 41.7188 19.0558 41.7188 18.2188C41.7188 17.3817 41.0402 16.7031 40.2031 16.7031Z" fill="white"></path> <path d="M36.0781 16.7031C35.2411 16.7031 34.5625 17.3817 34.5625 18.2188C34.5625 19.0558 35.2411 19.7344 36.0781 19.7344C36.9152 19.7344 37.5938 19.0558 37.5938 18.2188C37.5938 17.3817 36.9152 16.7031 36.0781 16.7031Z" fill="white"></path> <path d="M44.3281 16.7031C43.4911 16.7031 42.8125 17.3817 42.8125 18.2188C42.8125 19.0558 43.4911 19.7344 44.3281 19.7344C45.1652 19.7344 45.8438 19.0558 45.8438 18.2188C45.8438 17.3817 45.1652 16.7031 44.3281 16.7031Z" fill="white"></path> <path fill-rule="evenodd" clip-rule="evenodd" d="M30.4375 17.1562H20.0625V34.75H35.5938V32.6562C35.5938 32.104 36.0415 31.6562 36.5938 31.6562C37.146 31.6562 37.5938 32.104 37.5938 32.6562V40.9062C37.5938 41.7185 37.2711 42.4974 36.6968 43.0718C36.1224 43.6461 35.3435 43.9688 34.5312 43.9688H21.125C20.3128 43.9688 19.5338 43.6461 18.9595 43.0718C18.3852 42.4974 18.0625 41.7185 18.0625 40.9062V14.0938C18.0625 13.2815 18.3852 12.5026 18.9595 11.9282C19.5338 11.3539 20.3128 11.0312 21.125 11.0312H32.4688C32.5103 11.0312 32.5512 11.0338 32.5914 11.0387C32.6533 11.0338 32.7156 11.0312 32.7781 11.0312H47.6281C48.2489 11.0312 48.8442 11.2779 49.2832 11.7168C49.7221 12.1558 49.9688 12.7511 49.9688 13.3719V23.0656C49.9688 23.373 49.9082 23.6774 49.7906 23.9613C49.673 24.2453 49.5005 24.5034 49.2832 24.7207C49.0658 24.938 48.8078 25.1105 48.5238 25.2281C48.2399 25.3457 47.9355 25.4062 47.6281 25.4062H40.6173L37.3009 28.7227C37.0149 29.0087 36.5847 29.0943 36.2111 28.9395C35.8374 28.7847 35.5938 28.4201 35.5938 28.0156V25.4062H32.7781C32.4707 25.4062 32.1664 25.3457 31.8824 25.2281C31.5984 25.1105 31.3404 24.938 31.1231 24.7207C30.9057 24.5033 30.7333 24.2453 30.6157 23.9613C30.498 23.6774 30.4375 23.373 30.4375 23.0656V17.1562ZM20.3737 13.3424C20.573 13.1432 20.8432 13.0312 21.125 13.0312H30.4624C30.4459 13.1434 30.4375 13.2572 30.4375 13.3719V15.1562H20.0625V14.0938C20.0625 13.812 20.1744 13.5417 20.3737 13.3424ZM20.0625 40.9062V36.75H35.5938V40.9062C35.5938 41.188 35.4818 41.4583 35.2826 41.6576C35.0833 41.8568 34.813 41.9688 34.5312 41.9688H21.125C20.8432 41.9688 20.573 41.8568 20.3737 41.6576C20.1744 41.4583 20.0625 41.188 20.0625 40.9062ZM32.5373 13.131C32.6011 13.0671 32.6878 13.0312 32.7781 13.0312H47.6281C47.7185 13.0312 47.8051 13.0671 47.869 13.131C47.9329 13.1949 47.9688 13.2815 47.9688 13.3719V23.0656C47.9688 23.1104 47.9599 23.1546 47.9428 23.196C47.9257 23.2373 47.9006 23.2749 47.869 23.3065C47.8374 23.3381 47.7998 23.3632 47.7585 23.3803C47.7171 23.3974 47.6729 23.4062 47.6281 23.4062H40.2031C39.9379 23.4062 39.6836 23.5116 39.496 23.6991L37.5938 25.6014V24.4062C37.5938 23.854 37.146 23.4062 36.5938 23.4062H32.7781C32.7334 23.4062 32.6891 23.3974 32.6478 23.3803C32.6064 23.3632 32.5689 23.3381 32.5373 23.3065C32.5056 23.2749 32.4805 23.2373 32.4634 23.196C32.4463 23.1546 32.4375 23.1104 32.4375 23.0656V13.3719C32.4375 13.2815 32.4734 13.1949 32.5373 13.131Z" fill="white"></path> <defs> <filter id="filter0_f" x="0" y="0.62793" width="68" height="72.3722" filterUnits="userSpaceOnUse" color-interpolation-filters="sRGB"> <feFlood flood-opacity="0" result="BackgroundImageFix"></feFlood> <feBlend mode="normal" in="SourceGraphic" in2="BackgroundImageFix" result="shape"></feBlend> <feGaussianBlur stdDeviation="10" result="effect1_foregroundBlur"></feGaussianBlur> </filter> <linearGradient id="paint0_linear" x1="8" y1="2" x2="59" y2="53" gradientUnits="userSpaceOnUse"> <stop stop-color="#FFC49B"></stop> <stop offset="1" stop-color="#FF9146"></stop> </linearGradient> </defs> </svg> 