<?xml version="1.0" encoding="UTF-8"?> <svg xmlns="http://www.w3.org/2000/svg" width="67" height="72" viewBox="0 0 67 72" fill="none"> <g opacity="0.7" filter="url(#filter0_f)"> <path d="M20 33.9518C20 23.8901 30.6112 17.3644 39.5907 21.9039C44.135 24.2012 47 28.8599 47 33.9518V38.5C47 45.9558 40.9558 52 33.5 52C26.0442 52 20 45.9558 20 38.5V33.9518Z" fill="#2481F5"></path> </g> <rect x="8" y="1" width="50" height="51" rx="8" fill="url(#paint0_linear)"></rect> <path d="M21 22.625C21 22.0727 21.4477 21.625 22 21.625H30C30.5523 21.625 31 22.0727 31 22.625C31 23.1773 30.5523 23.625 30 23.625H22C21.4477 23.625 21 23.1773 21 22.625Z" fill="white"></path> <path d="M21 26.5C21 25.9477 21.4477 25.5 22 25.5H27C27.5523 25.5 28 25.9477 28 26.5C28 27.0523 27.5523 27.5 27 27.5H22C21.4477 27.5 21 27.0523 21 26.5Z" fill="white"></path> <path d="M21 30.375C21 29.8227 21.4477 29.375 22 29.375H29C29.5523 29.375 30 29.8227 30 30.375C30 30.9273 29.5523 31.375 29 31.375H22C21.4477 31.375 21 30.9273 21 30.375Z" fill="white"></path> <path fill-rule="evenodd" clip-rule="evenodd" d="M44 36.1876L44.9988 36.2367C44.9726 36.7692 44.5332 37.1876 44 37.1876H32C31.4571 37.1876 31.0134 36.7545 31.0003 36.2118C30.9806 35.3987 31.2534 34.6084 31.7656 33.9758C32.2767 33.3445 32.9931 32.9104 33.7887 32.7398C34.697 32.5416 34.9493 32.3288 34.9953 32.2799C34.9978 32.2614 35 32.2231 35 32.1188V31.8062C34.581 31.3526 34.2408 30.8327 33.9952 30.2667C33.6903 29.5639 33.5384 28.8064 33.55 28.0421V25.8704C33.55 25.8292 33.5525 25.7881 33.5576 25.7473C33.6909 24.6724 34.2255 23.6891 35.0507 22.9799C35.8751 22.2715 36.9335 21.8843 38.025 21.8843C39.1164 21.8843 40.1748 22.2715 40.9993 22.9799C41.8245 23.6891 42.359 24.6724 42.4924 25.7473C42.4974 25.7881 42.5 25.8292 42.5 25.8704V28.0471C42.5045 28.8176 42.343 29.5796 42.0268 30.2841C41.7735 30.8484 41.4259 31.3651 41 31.8142V32.1188C41 32.2091 41.002 32.2403 41.0039 32.2539L41.0063 32.2567C41.0502 32.3065 41.3072 32.5369 42.258 32.7391C43.6622 33.0377 44.3854 33.9244 44.7187 34.736C44.8781 35.124 44.9469 35.4863 44.977 35.7489C44.9923 35.8818 44.9981 35.9938 45 36.0768C45.0009 36.1185 45.0009 36.1532 45.0005 36.1801C45.0004 36.1877 45.0002 36.1947 45 36.2011C44.9999 36.2059 44.9998 36.2104 44.9997 36.2145L44.9992 36.2271L44.999 36.2323L44.9989 36.2346L44.9988 36.2356C44.9988 36.2356 44.9988 36.2367 44 36.1876ZM38.025 23.8843C37.4045 23.8843 36.8104 24.1048 36.3542 24.4968C35.9136 24.8754 35.632 25.3872 35.55 25.9378V28.0501L35.5498 28.0668C35.5418 28.5476 35.6368 29.0255 35.83 29.4707C36.0232 29.916 36.3108 30.3199 36.6764 30.6558C36.8826 30.8451 37 31.1123 37 31.3922V32.1188L37 32.1429C37.0005 32.4097 37.0018 33.0264 36.5012 33.5962C36.037 34.1247 35.2777 34.4622 34.2129 34.6943L34.209 34.6952C33.872 34.7672 33.575 34.9426 33.3594 35.1876H42.6952C42.5349 34.9775 42.2785 34.7882 41.842 34.6954C40.7427 34.4616 39.9747 34.1108 39.5061 33.5794C38.999 33.0042 38.9997 32.3909 39 32.1357L39 31.3922C39 31.1072 39.1216 30.8358 39.3343 30.646C39.7072 30.3134 40.0021 29.9108 40.2021 29.4652C40.402 29.0197 40.5031 28.5401 40.5 28.0566L40.4999 28.0501L40.5 25.9378C40.4179 25.3872 40.1364 24.8754 39.6958 24.4968C39.2396 24.1048 38.6454 23.8843 38.025 23.8843Z" fill="white"></path> <path fill-rule="evenodd" clip-rule="evenodd" d="M22 11.9375C21.4477 11.9375 21 12.3852 21 12.9375V14.8438H18C17.4477 14.8438 17 15.2915 17 15.8438V40.0625C17 40.6148 17.4477 41.0625 18 41.0625H48C48.5523 41.0625 49 40.6148 49 40.0625V15.8438C49 15.2915 48.5523 14.8438 48 14.8438H45V12.9375C45 12.3852 44.5523 11.9375 44 11.9375H40C39.4477 11.9375 39 12.3852 39 12.9375V14.8438H27V12.9375C27 12.3852 26.5523 11.9375 26 11.9375H22ZM25 13.9375H23V17.75H25V13.9375ZM21 16.8438V18.75C21 19.3023 21.4477 19.75 22 19.75H26C26.5523 19.75 27 19.3023 27 18.75V16.8438H39V18.75C39 19.3023 39.4477 19.75 40 19.75H44C44.5523 19.75 45 19.3023 45 18.75V16.8438H47V39.0625H19V16.8438H21ZM43 13.9375H41V17.75H43V13.9375Z" fill="white"></path> <defs> <filter id="filter0_f" x="0" y="0.434204" width="67" height="71.5658" filterUnits="userSpaceOnUse" color-interpolation-filters="sRGB"> <feFlood flood-opacity="0" result="BackgroundImageFix"></feFlood> <feBlend mode="normal" in="SourceGraphic" in2="BackgroundImageFix" result="shape"></feBlend> <feGaussianBlur stdDeviation="10" result="effect1_foregroundBlur"></feGaussianBlur> </filter> <linearGradient id="paint0_linear" x1="8" y1="1" x2="55.011" y2="51.0722" gradientUnits="userSpaceOnUse"> <stop stop-color="#7DB7FF"></stop> <stop offset="1" stop-color="#2481F5"></stop> </linearGradient> </defs> </svg> 