<?xml version="1.0" encoding="UTF-8"?> <svg xmlns="http://www.w3.org/2000/svg" width="67" height="72" viewBox="0 0 67 72" fill="none"> <g filter="url(#filter0_f)"> <path d="M20 33.9518C20 23.8901 30.6112 17.3644 39.5907 21.9039C44.135 24.2012 47 28.8599 47 33.9518V38.5C47 45.9558 40.9558 52 33.5 52C26.0442 52 20 45.9558 20 38.5V33.9518Z" fill="#FF9146"></path> </g> <rect x="9" y="3" width="50" height="49" rx="8" fill="url(#paint0_linear)"></rect> <path d="M42.5 36C40.6 35.6 38.4 35 38.3 34.1V32.3C39.4 31.2 40.2 29.9 40.7 28.4C42.6 27.6 42.8 24 42.8 23.9C42.8 22 42.1 21.1 41.3 20.8V19.8C41.3 16.4 39.9 14.5 38.7 13.5C37.3 12.2 35.5 11.5 33.5 11.5C33.5 11.5 33.5 11.5 33.4 11.5C33.4 11.5 33.4 11.5 33.3 11.5C31.3 11.5 29.5 12.2 28.1 13.4C26.9 14.4 25.4 16.3 25.5 19.7V20.7C24.8 21 24 21.9 24 23.8C24 23.8 24.1 27.5 26.1 28.3C26.5 29.7 27.3 31 28.4 32.1V34C28.4 34.4 28 34.8 27.3 35.1C27.3 35.1 27.2 35.1 27.2 35.2C26.5 35.5 25.5 35.8 24.3 36C18.9 37 17.5 40.7 17.5 42.5C17.5 43.1 17.9 43.5 18.5 43.5H48.5C49.1 43.5 49.5 43.1 49.5 42.5C49.5 42.3 49.4 37.4 42.5 36ZM29.4 14.9C30.4 14 31.9 13.5 33.4 13.5C35 13.5 36.4 14 37.4 14.9C37.7 15.2 38 15.5 38.2 15.8C37.6 15.6 37 15.5 36.3 15.5C34.1 15.5 33 16.5 31.9 17.4C30.8 18.3 29.7 19.2 27.5 19.4C27.5 17.5 28.1 16 29.4 14.9ZM26.9 26.5C26.6 26.5 26 24.8 26 23.8C26 22.5 26.3 22.5 26.5 22.5C27 22.5 27.5 22 27.5 21.5C30.5 21.3 32 20 33.2 19C34.2 18.2 34.9 17.5 36.4 17.5C37.1 17.5 37.8 17.7 38.4 18.2C38.9 18.7 39.3 19.3 39.4 20V21.5C39.4 22 39.8 22.5 40.4 22.5C40.5 22.5 40.9 22.5 40.9 23.9C40.9 24.8 40.4 26.5 40 26.5C39.5 26.5 39.1 26.8 39 27.3C38.5 29.2 37.4 30.8 35.8 31.8C35.3 32.1 35.2 32.7 35.5 33.2C35.7 33.5 36 33.6 36.3 33.6L33.5 35.3L30.5 33.6C30.8 33.6 31.1 33.4 31.3 33.2C31.6 32.7 31.5 32.1 31 31.8C29.4 30.7 28.3 29.1 27.8 27.3C27.7 26.8 27.3 26.5 26.9 26.5ZM29.9 41.5H19.7C20.1 40.4 21.2 38.6 24.5 38C25.6 37.8 26.5 37.6 27.2 37.3L30.3 40.6L29.9 41.5ZM29.1 36.4C29.4 36.2 29.7 35.9 29.9 35.6L32.2 36.9L31.3 38.7L29.1 36.4ZM32.1 41.5L33.5 38.8L34.8 41.5H32.1ZM34.8 36.9L36.8 35.7C37 36 37.4 36.3 37.8 36.6L35.7 38.8L34.8 36.9ZM37.1 41.5L36.7 40.6L39.8 37.4C40.5 37.6 41.2 37.8 42.1 38C45.6 38.7 46.8 40.4 47.3 41.5H37.1Z" fill="white"></path> <defs> <filter id="filter0_f" x="0" y="0.434204" width="67" height="71.5658" filterUnits="userSpaceOnUse" color-interpolation-filters="sRGB"> <feFlood flood-opacity="0" result="BackgroundImageFix"></feFlood> <feBlend mode="normal" in="SourceGraphic" in2="BackgroundImageFix" result="shape"></feBlend> <feGaussianBlur stdDeviation="10" result="effect1_foregroundBlur"></feGaussianBlur> </filter> <linearGradient id="paint0_linear" x1="9" y1="3" x2="57.99" y2="52.9898" gradientUnits="userSpaceOnUse"> <stop stop-color="#FFC49B"></stop> <stop offset="1" stop-color="#FF9146"></stop> </linearGradient> </defs> </svg> 