<?xml version="1.0" encoding="UTF-8"?> <svg xmlns="http://www.w3.org/2000/svg" width="68" height="73" viewBox="0 0 68 73" fill="none"> <g filter="url(#filter0_f)"> <path d="M20 34.6458C20 24.2401 30.9493 17.471 40.2577 22.1222C45.0025 24.493 48 29.3417 48 34.6458V39C48 46.732 41.732 53 34 53C26.268 53 20 46.732 20 39V34.6458Z" fill="#62DDB4"></path> </g> <rect x="8" y="2" width="52" height="51" rx="8" fill="url(#paint0_linear)"></rect> <path fill-rule="evenodd" clip-rule="evenodd" d="M23 22.3438C23 16.1952 27.3303 11.0312 33.5 11.0312H34.5C40.6686 11.0312 45 16.1951 45 22.3438V23.4062H46.2C46.9527 23.4062 47.6681 23.7149 48.1907 24.2538C48.7122 24.7916 49 25.5147 49 26.2625V31.8313C49 32.579 48.7122 33.3021 48.1907 33.84C47.6681 34.3789 46.9527 34.6875 46.2 34.6875H44.9622C44.7047 38.0022 43.168 39.8667 41.5155 40.8608C40.6418 41.3864 39.7761 41.6452 39.1341 41.7739C39.0389 41.793 38.9481 41.8094 38.8623 41.8233C38.7208 42.2838 38.473 42.7093 38.1321 43.0608C37.572 43.6384 36.8058 43.9688 36 43.9688H34C33.1942 43.9688 32.428 43.6384 31.8679 43.0608C31.3088 42.4843 31 41.7087 31 40.9062C31 40.1038 31.3088 39.3282 31.8679 38.7517C32.428 38.1741 33.1942 37.8438 34 37.8438H36C36.8058 37.8438 37.572 38.1741 38.1321 38.7517C38.4261 39.0549 38.6509 39.413 38.7979 39.8012C39.2732 39.7009 39.8825 39.5091 40.4845 39.147C41.6726 38.4323 43 36.9593 43 33.6875C43 33.1352 43.4477 32.6875 44 32.6875H46.2C46.4021 32.6875 46.6023 32.605 46.7549 32.4477C46.9085 32.2893 47 32.0681 47 31.8313V26.2625C47 26.0257 46.9085 25.8045 46.7549 25.6461C46.6023 25.4887 46.4021 25.4062 46.2 25.4062H44C43.4477 25.4062 43 24.9585 43 24.4062V22.3438C43 17.1022 39.3764 13.0312 34.5 13.0312H33.5C28.6227 13.0312 25 17.1021 25 22.3438V24.4062C25 24.9585 24.5523 25.4062 24 25.4062H21.8C21.5979 25.4062 21.3977 25.4887 21.2451 25.6461C21.0915 25.8045 21 26.0256 21 26.2625V31.8313C21 32.0681 21.0915 32.2893 21.2451 32.4477C21.3977 32.605 21.5979 32.6875 21.8 32.6875H23C23.5523 32.6875 24 33.1352 24 33.6875C24 34.2398 23.5523 34.6875 23 34.6875H21.8C21.0473 34.6875 20.3319 34.3789 19.8093 33.84C19.2878 33.3021 19 32.579 19 31.8313V26.2625C19 25.5147 19.2878 24.7916 19.8093 24.2538C20.3319 23.7149 21.0473 23.4062 21.8 23.4062H23V22.3438ZM36.6963 40.144C36.8874 40.341 37 40.6147 37 40.9062C37 41.1978 36.8874 41.4715 36.6963 41.6685C36.5062 41.8645 36.2551 41.9688 36 41.9688H34C33.7449 41.9688 33.4938 41.8645 33.3037 41.6685C33.1126 41.4715 33 41.1978 33 40.9062C33 40.6147 33.1126 40.341 33.3037 40.144C33.4938 39.948 33.7449 39.8438 34 39.8438H36C36.2551 39.8438 36.5062 39.948 36.6963 40.144Z" fill="white"></path> <path d="M38.9234 23.7587C39.1354 23.2488 38.8938 22.6635 38.3838 22.4516C37.8738 22.2396 37.2885 22.4812 37.0766 22.9912L34.0766 30.21C33.9483 30.5186 33.9827 30.8708 34.1682 31.1488C34.3537 31.4268 34.6658 31.5937 35 31.5937H39V33.6875C39 34.2398 39.4477 34.6875 40 34.6875C40.5523 34.6875 41 34.2398 41 33.6875V31.5937H42C42.5523 31.5937 43 31.146 43 30.5937C43 30.0415 42.5523 29.5937 42 29.5937H41V27.5C41 26.9477 40.5523 26.5 40 26.5C39.4477 26.5 39 26.9477 39 27.5V29.5937H36.4985L38.9234 23.7587Z" fill="white"></path> <path d="M27.6766 24.9106C28.0538 24.564 28.5378 24.3814 29.0315 24.3907C29.5252 24.3999 30.0031 24.6006 30.3685 24.9617C30.7348 25.3236 30.9604 25.8205 30.992 26.3552C31.0233 26.8872 30.8596 27.4078 30.54 27.8143L26.228 33.0519C25.9821 33.3506 25.9305 33.7644 26.0957 34.1143C26.2609 34.4643 26.6131 34.6875 27 34.6875H33C33.5523 34.6875 34 34.2398 34 33.6875C34 33.1352 33.5523 32.6875 33 32.6875H29.1186L32.0905 29.0776L32.1022 29.0632C32.7345 28.2654 33.0486 27.2565 32.9885 26.2375C32.9284 25.2185 32.498 24.2542 31.7744 23.5391C31.0499 22.8232 30.0844 22.41 29.0689 22.391C28.0533 22.372 27.0733 22.7488 26.3234 23.4379C25.9167 23.8115 25.89 24.4441 26.2637 24.8508C26.6373 25.2575 27.2699 25.2842 27.6766 24.9106Z" fill="white"></path> <defs> <filter id="filter0_f" x="0" y="0.627777" width="68" height="72.3722" filterUnits="userSpaceOnUse" color-interpolation-filters="sRGB"> <feFlood flood-opacity="0" result="BackgroundImageFix"></feFlood> <feBlend mode="normal" in="SourceGraphic" in2="BackgroundImageFix" result="shape"></feBlend> <feGaussianBlur stdDeviation="10" result="effect1_foregroundBlur"></feGaussianBlur> </filter> <linearGradient id="paint0_linear" x1="12.7273" y1="8.375" x2="61.4343" y2="56.2634" gradientUnits="userSpaceOnUse"> <stop stop-color="#95FCD9"></stop> <stop offset="1" stop-color="#50C79F"></stop> </linearGradient> </defs> </svg> 