<?xml version="1.0" encoding="UTF-8"?> <svg xmlns="http://www.w3.org/2000/svg" width="68" height="72" viewBox="0 0 68 72" fill="none"> <g filter="url(#filter0_f)"> <path d="M20 34.3997C20 24.0538 30.8349 17.2819 40.1347 21.8153C44.9469 24.1612 48 29.0461 48 34.3997V38C48 45.732 41.732 52 34 52C26.268 52 20 45.732 20 38V34.3997Z" fill="#8356E4"></path> </g> <rect x="8" y="1" width="51" height="51" rx="8" fill="url(#paint0_linear)"></rect> <path fill-rule="evenodd" clip-rule="evenodd" d="M47.1457 13.9753C47.2978 13.4444 46.9907 12.8907 46.4598 12.7386C45.9288 12.5865 45.3751 12.8937 45.223 13.4246L44.3052 16.6288L40.514 18.7526C38.1931 15.4548 34.2908 13.3 29.8906 13.3C22.8178 13.3 17.0312 18.8676 17.0312 25.8C17.0312 29.7579 18.9175 33.271 21.8525 35.5571L19.2434 39.7738C18.9528 40.2434 19.0979 40.8597 19.5676 41.1503C20.0372 41.4409 20.6535 41.2958 20.9441 40.8261L23.5216 36.6606C25.4021 37.7045 27.5776 38.3 29.8906 38.3C32.2037 38.3 34.3792 37.7045 36.2597 36.6606L38.8371 40.8261C39.1277 41.2958 39.744 41.4409 40.2137 41.1503C40.6833 40.8597 40.8285 40.2434 40.5379 39.7738L37.9288 35.5571C40.8637 33.271 42.75 29.7579 42.75 25.8C42.75 23.8928 42.312 22.089 41.5299 20.4759L45.2651 18.3835L48.6687 19.4539C49.1956 19.6196 49.757 19.3268 49.9227 18.8C50.0884 18.2731 49.7956 17.7117 49.2688 17.546L46.3828 16.6384L47.1457 13.9753ZM38.7567 19.737C36.7945 17.0576 33.5644 15.3 29.8906 15.3C23.8639 15.3 19.0312 20.0298 19.0312 25.8C19.0312 31.5702 23.8639 36.3 29.8906 36.3C35.9173 36.3 40.75 31.5702 40.75 25.8C40.75 24.2539 40.403 22.7824 39.7791 21.4567L37.488 22.7402C37.8881 23.6809 38.1094 24.7138 38.1094 25.8C38.1094 30.247 34.4005 33.8 29.8906 33.8C25.3808 33.8 21.6719 30.247 21.6719 25.8C21.6719 21.3529 25.3808 17.8 29.8906 17.8C32.5741 17.8 34.974 19.0579 36.4777 21.0137L38.7567 19.737ZM34.7073 22.0055C33.5718 20.6634 31.8439 19.8 29.8906 19.8C26.4269 19.8 23.6719 22.515 23.6719 25.8C23.6719 29.0849 26.4269 31.8 29.8906 31.8C33.3544 31.8 36.1094 29.0849 36.1094 25.8C36.1094 25.0732 35.9745 24.3744 35.727 23.7267L31.9527 25.841C31.9302 26.9266 31.0156 27.8 29.8906 27.8C28.7515 27.8 27.8281 26.9045 27.8281 25.8C27.8281 24.6954 28.7515 23.8 29.8906 23.8C30.2877 23.8 30.6585 23.9088 30.9732 24.0973L34.7073 22.0055Z" fill="white"></path> <defs> <filter id="filter0_f" x="0" y="0.382118" width="68" height="71.6179" filterUnits="userSpaceOnUse" color-interpolation-filters="sRGB"> <feFlood flood-opacity="0" result="BackgroundImageFix"></feFlood> <feBlend mode="normal" in="SourceGraphic" in2="BackgroundImageFix" result="shape"></feBlend> <feGaussianBlur stdDeviation="10" result="effect1_foregroundBlur"></feGaussianBlur> </filter> <linearGradient id="paint0_linear" x1="15.5341" y1="1" x2="52.625" y2="52" gradientUnits="userSpaceOnUse"> <stop stop-color="#AE88FF"></stop> <stop offset="1" stop-color="#633ABC"></stop> </linearGradient> </defs> </svg> 