<?xml version="1.0" encoding="UTF-8"?> <svg xmlns="http://www.w3.org/2000/svg" width="68" height="72" viewBox="0 0 68 72" fill="none"> <g opacity="0.7" filter="url(#filter0_f)"> <path d="M20 34.3997C20 24.0538 30.8349 17.2819 40.1347 21.8153C44.9469 24.1612 48 29.0461 48 34.3997V38C48 45.732 41.732 52 34 52C26.268 52 20 45.732 20 38V34.3997Z" fill="#2481F5"></path> </g> <rect x="8" y="1" width="52" height="51" rx="8" fill="url(#paint0_linear)"></rect> <path fill-rule="evenodd" clip-rule="evenodd" d="M38.7801 16.4252C38.4867 15.5227 37.9409 14.7179 37.2016 14.1097C36.3067 13.3735 35.1838 12.9709 34.025 12.9709C32.8662 12.9709 31.7433 13.3735 30.8484 14.1097C30.1158 14.7124 29.5731 15.5082 29.2779 16.4009C28.6386 16.6648 28.0509 17.0538 27.5523 17.5523C26.5584 18.5463 26 19.8943 26 21.3V21.6894C25.7398 21.8564 25.4962 22.052 25.2741 22.2741C25.0485 22.4997 24.8503 22.7475 24.6815 23.0124C23.8872 22.82 23.2636 22.5282 22.827 22.1333C22.3397 21.6926 22 21.0482 22 20C22 19.4477 21.5523 19 21 19C20.4477 19 20 19.4477 20 20C20 21.5518 20.5353 22.7573 21.4855 23.6167C22.1976 24.2607 23.0881 24.6608 24.0225 24.9085C24.0076 25.0545 24 25.2019 24 25.35L24 28H19C18.4477 28 18 28.4477 18 29C18 29.5523 18.4477 30 19 30H24.0251C24.0712 30.7871 24.1793 31.5564 24.3512 32.3001C23.2621 32.6372 22.1229 33.1494 21.1728 33.967C19.8761 35.0827 19 36.7099 19 39C19 39.5523 19.4477 40 20 40C20.5523 40 21 39.5523 21 39C21 37.29 21.6239 36.2172 22.4772 35.483C23.1615 34.8942 24.0329 34.4909 24.9577 34.2061C25.3453 35.1443 25.8529 36.0223 26.4846 36.8206C28.1419 38.9146 30.5981 40.3887 33.7995 40.9799C33.8643 40.9931 33.9314 41 34 41C34.0657 41 34.13 40.9936 34.1921 40.9816C37.4031 40.4153 39.862 38.9244 41.5184 36.8105C42.1429 36.0136 42.646 35.1376 43.0317 34.2034C43.9546 34.4879 44.8204 34.8913 45.5018 35.4811C46.3512 36.2163 46.9786 37.2941 47.0001 39.0125C47.007 39.5647 47.4603 40.0068 48.0125 39.9999C48.5647 39.993 49.0068 39.5397 48.9999 38.9875C48.9714 36.7058 48.0988 35.0837 46.8107 33.9689C45.863 33.1486 44.7288 32.6354 43.6398 32.2979C43.8134 31.5537 43.9236 30.7849 43.9721 30H49C49.5523 30 50 29.5523 50 29C50 28.4477 49.5523 28 49 28H44V25.35C44 25.2019 43.9925 25.0545 43.9776 24.9085C44.9119 24.6608 45.8024 24.2607 46.5145 23.6167C47.4647 22.7573 48 21.5518 48 20C48 19.4477 47.5523 19 47 19C46.4477 19 46 19.4477 46 20C46 21.0482 45.6603 21.6926 45.173 22.1333C44.7364 22.5282 44.1128 22.8199 43.3186 23.0124C43.1498 22.7475 42.9516 22.4997 42.726 22.2741C42.5039 22.052 42.2603 21.8564 42 21.6893V21.3C42 19.8943 41.4416 18.5463 40.4477 17.5523C39.9642 17.0689 39.397 16.6885 38.7801 16.4252ZM34.025 14.9709C33.3297 14.9709 32.656 15.2125 32.119 15.6542C31.9904 15.76 31.8715 15.8758 31.7633 16H36.2867C36.1785 15.8758 36.0596 15.76 35.931 15.6542C35.394 15.2125 34.7203 14.9709 34.025 14.9709ZM39.9875 21.0131C39.9203 20.243 39.5843 19.5174 39.0335 18.9665C38.6824 18.6155 38.2604 18.3517 37.8011 18.1891C37.7038 18.1745 37.6101 18.1456 37.5227 18.1042C37.2562 18.0356 36.9799 18 36.7 18H31.3C31.0535 18 30.8098 18.0276 30.5731 18.081C30.4519 18.1462 30.3169 18.1867 30.1759 18.1974C29.7255 18.3605 29.3117 18.6214 28.9665 18.9665C28.4157 19.5174 28.0797 20.243 28.0125 21.0131C28.1244 21.0044 28.237 21 28.35 21H39.65C39.7631 21 39.8756 21.0044 39.9875 21.0131ZM27.269 23.2634C27.3629 23.2372 27.4512 23.1977 27.5317 23.1471C27.7911 23.0507 28.068 23 28.35 23H33V38.7439C30.8147 38.1284 29.1846 37.0094 28.0529 35.5794C27.4223 34.7826 26.9341 33.8734 26.5922 32.8751C26.588 32.8418 26.5821 32.8085 26.5744 32.7751C26.5535 32.6844 26.5208 32.5995 26.4784 32.5216C26.1722 31.5074 26.0114 30.4076 26 29.2452V25.35C26 24.7267 26.2476 24.129 26.6883 23.6883C26.8605 23.5161 27.0567 23.3734 27.269 23.2634ZM42 28.9905V25.35C42 24.7267 41.7525 24.129 41.3117 23.6883C40.871 23.2476 40.2733 23 39.65 23H35V38.7526C37.1812 38.1508 38.811 37.023 39.9442 35.5769C40.5825 34.7624 41.0751 33.8314 41.4179 32.8116C41.4202 32.7994 41.4228 32.7873 41.4256 32.7751C41.4417 32.7055 41.4646 32.6393 41.4936 32.5771C41.8181 31.5293 41.9883 30.3924 42 29.1951V29.0095C42 29.0063 42 29.0031 42 29C42 28.9968 42 28.9937 42 28.9905Z" fill="white"></path> <defs> <filter id="filter0_f" x="0" y="0.382118" width="68" height="71.6179" filterUnits="userSpaceOnUse" color-interpolation-filters="sRGB"> <feFlood flood-opacity="0" result="BackgroundImageFix"></feFlood> <feBlend mode="normal" in="SourceGraphic" in2="BackgroundImageFix" result="shape"></feBlend> <feGaussianBlur stdDeviation="10" result="effect1_foregroundBlur"></feGaussianBlur> </filter> <linearGradient id="paint0_linear" x1="8" y1="1" x2="54.8591" y2="52.9069" gradientUnits="userSpaceOnUse"> <stop stop-color="#7DB7FF"></stop> <stop offset="1" stop-color="#2481F5"></stop> </linearGradient> </defs> </svg> 