<?xml version="1.0" encoding="UTF-8"?> <svg xmlns="http://www.w3.org/2000/svg" width="545" height="491" viewBox="0 0 545 491" fill="none"> <g clip-path="url(#clip0)"> <path d="M702.025 490.172H24.6486C11.9452 490.172 2.46057 478.483 5.07764 466.052L72.5132 145.732C80.0092 110.127 108.207 82.5372 143.969 75.8202L702.025 -28.9999V490.172Z" fill="url(#paint0_linear)"></path> <path d="M1032.63 796.288H13.8769L119.9 244.009C130.166 190.534 173.379 149.554 227.323 142.137L1032.63 31.4069V796.288Z" fill="url(#paint1_linear)"></path> <path d="M1272.62 882H253.872L350.834 376.919C366.516 295.232 432.526 232.633 514.929 221.302L1272.62 117.119V882Z" fill="url(#paint2_linear)"></path> </g> <defs> <linearGradient id="paint0_linear" x1="691.004" y1="490.172" x2="111.106" y2="48.3071" gradientUnits="userSpaceOnUse"> <stop stop-color="#FFF500"></stop> <stop offset="1" stop-color="#FFD000"></stop> </linearGradient> <linearGradient id="paint1_linear" x1="191.5" y1="232.5" x2="275.912" y2="348.134" gradientUnits="userSpaceOnUse"> <stop stop-color="white" stop-opacity="0.2"></stop> <stop offset="1" stop-color="white" stop-opacity="0"></stop> </linearGradient> <linearGradient id="paint2_linear" x1="357.135" y1="268.136" x2="515.906" y2="433.847" gradientUnits="userSpaceOnUse"> <stop stop-color="white" stop-opacity="0.2"></stop> <stop offset="1" stop-color="white" stop-opacity="0"></stop> </linearGradient> <clipPath id="clip0"> <rect x="545" y="491" width="545" height="491" transform="rotate(-180 545 491)" fill="white"></rect> </clipPath> </defs> </svg> 