<?xml version="1.0" encoding="UTF-8"?> <svg xmlns="http://www.w3.org/2000/svg" width="1280" height="683" viewBox="0 0 1280 683" fill="none"> <g filter="url(#filter0_d)"> <path d="M1220.18 270.22C1220.18 270.13 1220.71 237.516 1219.28 233.668C1215.62 225.481 1203.51 230.045 1195.02 229.418C1185.41 228.926 1180.9 219.173 1173.17 215.236C1167.54 211.478 1157.67 212.641 1140.19 210.225C1132.37 208.391 1124.2 202.844 1115.57 203.47C1109.31 203.862 1103.43 207.134 1094.64 205.703C1094.15 205.623 1093.66 205.487 1093.21 205.28C1090.17 203.895 1087.32 201.405 1084.2 200.115C1080.27 198.37 1076.25 198.325 1073.97 193.806C1069.82 186.067 1070.08 184.68 1059.67 183.114C1042.33 181.369 1027.1 192.464 1010.52 189.646C997.65 187.453 990.501 179.087 978.034 183.203C972.657 185.535 962.587 191.079 946.72 178.183C944.971 176.761 944.051 174.585 944.064 172.331C944.095 167.273 944.064 158.456 943.493 157.344C940.723 151.976 924.011 149.202 923.162 134.438C923.162 132.023 921.066 130.811 918.717 129.881C917.764 129.503 916.735 129.34 915.718 129.464C909.221 130.251 902.575 133.977 877.852 128.712C864.178 125.848 871.953 128.309 873.786 124.238C874.188 123.298 874.098 89.7891 873.964 89.2969C872.311 83.184 856.013 80.7365 852.365 74.0047C851.978 73.2903 851.898 72.4402 851.886 71.6278C851.546 49.7067 837.373 60.5512 818.332 56.8614C785.713 50.777 800.816 63.9301 782.495 61.1116C779.283 60.4518 769.425 57.6251 766.363 57.187C765.946 57.1273 765.52 57.0933 765.103 57.034C745.651 54.274 738.345 69.0086 729.902 71.1331C725.295 72.4415 720.091 71.0951 715.39 69.4371C712.38 68.3755 709.044 69.3025 706.004 70.2752C695.659 73.5852 677.099 66.4713 657.915 80.3492C646.253 88.939 647.102 97.2604 647.281 107.506C646.669 121.204 649.777 119.918 641.169 119.856C640.781 119.853 640.381 119.828 639.999 119.757C631.625 118.187 629.152 110.088 613.946 105.582C593.525 99.8553 586.823 112.65 573.149 110.593C565.017 109.206 560.504 101.824 557.197 99.6316C544.328 90.0128 537.67 103.166 527.482 101.734C525.923 101.474 515.146 96.2133 511.489 94.4133C510.682 94.0163 509.819 93.7478 508.924 93.6687C489.813 91.9802 476.267 106.887 443.609 93.8603C414.698 81.4229 416.62 76.6359 347.359 65.5407C331.337 63.0217 257.455 52.8196 245.577 66.8876C245.282 67.2371 244.988 67.58 244.8 67.9968C243.708 70.4111 243.501 77.5518 237.659 78.2018C231.269 79.4544 224.79 76.6806 218.936 74.5332C215.406 73.2358 207.765 68.4935 204.593 71.3567C202.135 73.5937 201.152 78.2018 200.571 81.3335C199.275 88.3574 200.482 95.4261 200.303 102.495C199.494 133.053 205.214 120.899 216.111 148.184C217.177 150.853 216.686 154.011 214.343 155.674C203.164 163.609 183.211 161.469 176.307 170.229C164.243 185.44 108.387 192.643 109.549 228.166C108.789 252.548 111.024 250.177 107.672 249.595C86.8941 245.927 91.4519 243.645 64.5966 276.304C61.0398 280.56 59.8409 282.919 60.3868 291.034C60.4204 291.532 60.4336 292.031 60.4305 292.531C60.4045 296.72 60.441 316.989 60.441 317.151C60.2176 320.238 62.0943 322.654 64.5073 324.622C64.6777 324.759 65.9139 325.832 66.5107 326.572C66.7818 326.908 66.811 327.361 66.7826 327.792C65.7579 343.32 73.782 335.333 88.3687 343.054C95.0714 346.633 99.3164 350.705 109.37 353.076C117.994 353.971 129.121 349.81 136.136 350.123C156.11 350.123 173.314 363.903 193.466 364.932C205.936 365.524 214.567 362.273 224.202 366.086C225.31 366.525 226.513 366.922 227.355 367.765C229.532 369.943 232.76 375.2 234.799 376.608C240.625 380.684 249.635 382.478 258.463 380.346C261.657 379.575 265.537 377.674 268.285 375.874C268.84 375.51 269.291 375.218 269.519 375.087C276.981 370.658 284.176 372.358 293.827 373.253C336.233 377.279 341.327 355.984 369.791 354.015C399.729 352.584 383.598 333.033 434.628 341.041C469.169 345.515 459.562 359.339 503.888 366.184C509.072 367.213 514.434 368.197 519.036 371.24C522.12 373.298 524.354 376.429 527.303 378.711C530.967 381.53 536.821 381.395 537.536 386.898C538.161 391.685 537.446 396.741 537.58 401.573C536.776 428.774 556.035 419.871 562.157 430.921C562.202 431.011 562.112 437.363 562.157 438.258C561.586 449.855 568.356 449.809 575.87 453.87C580.267 456.245 579.182 462.509 574.189 462.296C566.65 461.974 561.382 455.89 558.895 454.677C545.365 447.093 543.42 456.176 533.005 456.545C532.575 456.56 532.138 456.532 531.726 456.407C530.499 456.036 528.961 455.168 527.41 454.205C523.6 451.842 515.882 449.772 512.927 453.143C512.055 454.138 511.466 455.44 511.46 457.113C511.457 457.812 511.497 458.514 511.487 459.213C511.422 463.937 511.875 481.617 510.949 482.505C478.491 512.912 466.376 516.122 467.288 526.431C467.38 527.472 467.493 528.529 467.485 529.574C467.447 534.086 467.466 547.023 467.495 551.678C467.502 552.794 467.349 553.939 467.368 555.056C467.407 557.438 468.696 558.759 471.141 559.762C471.782 560.024 472.423 560.276 473.057 560.554C476.769 562.185 490.796 567.911 502.861 567.911C518.053 567.911 520.779 562.184 527.75 560.037C531.28 558.963 534.989 559.052 538.653 559.187C542.317 559.321 546.026 559.545 549.69 559.768C556.08 560.126 563.229 561.737 563.319 553.192C563.363 548.27 561.487 542.052 564.346 537.578C566.134 534.804 569.351 535.341 572.3 535.162C575.696 534.983 579.226 534.849 582.354 533.507C587.001 531.493 588.565 527.154 593.704 525.722C600.049 524.067 605.233 528.451 619.8 516.64C702.868 449.174 688.703 469.307 699.427 474.228C703.181 475.973 709.124 476.062 712.43 473.781C713.611 472.958 714.357 471.88 715.137 470.789C718.199 466.512 723.887 471.205 723.883 476.465C723.877 484.505 723.883 494.771 723.902 497.946C723.906 498.603 723.85 499.258 723.899 499.912C724.372 506.174 735.624 510.036 742.592 511.227C747.839 512.156 753.43 512.37 759.204 512.229C764.534 512.1 769.47 522.986 770.162 528.272C770.162 528.432 770.127 548.23 770.151 552.739C770.154 553.346 770.105 553.944 770.093 554.551C769.904 563.896 787.121 561.296 799.297 562.945C805.027 563.961 809.681 566.334 813.645 569.291C816.936 571.747 816.852 576.329 815.042 580.016C813.651 582.851 813.556 585.082 813.864 587.998C813.864 588.088 813.238 618.063 814.847 620.076C819.896 626.608 865.161 632.2 877.718 622.805C883.259 618.644 882.633 612.291 887.012 607.594C896.798 596.991 923.117 600.659 938.354 593.143C951.626 586.611 955.424 572.116 978.123 576.098C983.62 577.127 994.12 580.303 1004.84 577.753C1014.63 575.516 1016.73 570.729 1015.75 561.468C1015.75 561.268 1015.78 541.395 1015.76 536.997C1015.76 536.423 1015.8 535.856 1015.77 535.284C1015.26 526.674 992.839 525.507 983.664 525.767C964.349 526.431 943.651 528.134 931.197 506.74C929.385 503.628 930.314 499.598 933.497 497.913C938.396 495.318 942.612 494.865 947.157 492.302C956.809 486.755 958.328 479.999 998.142 468.323C1016.33 462.954 1034.56 457.541 1052.43 451.143C1059.49 448.593 1066.64 445.953 1073.26 442.374C1076.07 440.853 1078.75 439.063 1081.75 437.856C1087.33 435.574 1093.45 434.5 1099.35 433.292C1103.11 432.532 1106.86 431.771 1110.61 431.055C1112.94 430.608 1115.26 430.16 1117.58 429.758C1120.4 429.221 1123.97 429.758 1125.98 427.342C1128.4 424.389 1125.72 420.318 1126.12 416.739C1126.48 413.428 1127.73 410.297 1129.34 407.433C1133.27 400.499 1139.21 394.683 1145.38 389.806C1153.02 383.767 1163.07 376.743 1173.08 375.848C1185.86 374.685 1197.75 381.888 1207.04 370.211C1214.5 360.637 1214.59 353.031 1214.28 341.22C1214.62 308.819 1214.6 310.553 1207.95 299.119C1207.3 297.984 1206.93 296.688 1206.89 295.376C1206.8 292.03 1206.91 291.804 1208.64 290.372C1211.79 287.769 1216.36 283.466 1218.13 279.79C1219.33 277.309 1220.29 274.078 1220.18 270.22Z" fill="url(#paint0_linear)"></path> </g> <path d="M1218.48 246.419C1217.94 247.537 1217.32 248.656 1216.56 249.73C1216.2 250.266 1215.8 250.803 1215.35 251.295C1214.91 251.832 1214.46 252.324 1213.97 252.817H1213.92C1213.48 253.309 1212.98 253.756 1212.49 254.203C1208.96 257.425 1204.63 260.646 1203.15 264.18C1202.57 265.388 1202.44 266.641 1202.71 267.983C1203.29 270.533 1205.7 272.725 1206.59 275.231C1208.2 279.749 1204.54 284.447 1204.32 289.144C1204.14 294.334 1208.16 299.076 1210.79 303.953C1215.31 312.408 1215.44 321.848 1211.46 330.528C1210.35 332.943 1208.87 335.315 1207.09 337.596C1205.39 339.744 1203.29 341.891 1200.11 343.099C1192.21 346.186 1182.2 342.383 1173.13 343.233C1165.48 343.949 1159.5 347.752 1154.13 351.331C1151.68 352.986 1149.17 354.686 1146.76 356.431C1139.57 361.531 1132.95 366.99 1128.93 373.342C1128.4 374.192 1127.95 375.132 1127.5 376.027C1126.21 378.756 1125.49 381.887 1125.54 384.93C1125.58 387.301 1126.65 389.672 1126.16 392.043C1125.09 397.143 1120.89 396.606 1116.73 397.367C1113.16 398.038 1109.63 398.664 1106.05 399.336C1098.95 400.633 1091.67 401.975 1085.1 404.257C1076.61 407.21 1069.5 411.639 1061.77 415.352C1042.74 424.523 1019.77 429.489 998.097 435.798C983.485 440.092 967.756 445.327 956.63 453.067C953.413 455.304 950.598 457.764 947.068 459.777C942.733 462.193 936.969 463.267 932.769 465.728C928.792 468.099 925.217 471.007 923.698 474.362C921.285 479.865 922.938 485.681 924.591 491.273C928.702 504.919 935.673 520.846 956.183 525.185C966.058 526.975 974.906 526.348 983.53 526.035C988.222 525.901 995.416 526.125 1001.81 527.288C1010.61 528.809 1017.89 532.12 1014.99 538.607C1013.6 541.694 1009.45 544.154 1004.71 545.273C999.527 546.526 992.512 546.436 987.149 545.452C983.441 544.736 980.76 544.065 978.034 543.573C974.057 542.857 969.991 542.499 965.701 543.26C953.189 545.497 948.587 555.473 938.22 560.574C922.983 568.09 896.664 564.421 886.878 575.024C882.499 579.722 883.124 586.075 877.583 590.235C873.115 593.591 865.876 594.664 859.218 595.022C849.745 595.514 840.138 594.933 831.022 593.322C828.52 592.875 826.062 592.338 823.649 591.756C820.075 590.906 816.411 589.743 814.713 587.506C813.193 585.627 813.595 583.301 814.444 581.243C818.198 572.25 831.112 564.511 829.19 555.339C828.52 552.073 825.973 549.12 823.471 546.257C817.617 539.591 810.468 532.343 799.162 530.375C791.387 529.346 783.836 529.838 778.071 528.809C774.72 528.228 772.039 527.154 770.654 524.962C768.107 520.98 773.022 516.551 778.027 513.598C787.5 508.006 798.805 503.666 810.914 500.937C812.568 500.579 814.176 500.221 815.83 499.863C824.186 498.074 831.737 496.284 834.061 490.423C835.312 487.157 833.391 484.607 829.28 482.684C825.75 480.984 821.415 479.82 816.857 479.015C811.004 477.986 804.748 477.539 799.162 477.449C780.306 477.047 759.527 481.655 742.413 478.612C738.705 477.986 735.13 476.957 731.823 475.436C727.131 473.288 723.288 469.933 723.735 466.22C723.959 464.52 725.12 462.909 726.372 461.388C729.634 457.406 733.879 453.693 736.336 449.443C738.794 445.193 739.285 440.182 735.219 436.558C733.566 435.126 731.108 434.142 728.427 433.65C724.361 432.934 719.892 433.471 717.256 435.529C715.156 437.229 714.575 439.511 712.296 441.077C709.883 442.732 706.04 443.179 702.689 442.598C701.438 442.419 700.276 442.016 699.293 441.569C695.539 439.824 695.003 435.663 690.311 434.813C687.63 434.366 686.156 435.395 684.368 436.469C674.091 442.687 663.724 448.861 654.921 455.975C651.213 458.972 648.397 462.193 644.912 465.191C641.248 468.322 636.377 470.738 632.177 473.557C627.53 476.778 623.821 480.491 619.576 483.936C615.733 487.023 611.488 489.618 606.215 491.676C601.881 493.376 597.904 491.855 593.48 493.018C588.342 494.405 586.778 498.789 582.131 500.803C575.428 503.755 564.033 501.026 559.878 505.5C558.001 507.514 558.761 510.064 559.565 512.345C560.637 515.477 564.48 522.59 562.425 525.722C560.503 528.72 555.543 527.377 552.728 527.198C548.573 526.975 544.462 526.706 540.306 526.527C535.972 526.304 531.414 526.125 527.437 527.288C523.639 528.451 520.958 530.733 517.606 532.299C517.025 532.567 516.445 532.836 515.864 533.015C515.238 533.238 514.613 533.462 513.987 533.641C511.306 534.491 508.312 534.938 505.273 535.073C504.871 535.117 504.424 535.117 504.022 535.117C503.576 535.162 503.084 535.162 502.592 535.162C501.207 535.162 499.777 535.117 498.392 534.983C498.124 534.938 497.856 534.938 497.588 534.938C496.203 534.759 494.773 534.625 493.387 534.357C492.181 534.178 490.974 533.909 489.857 533.641C486.149 532.791 482.663 531.628 479.267 530.33C478.15 529.928 477.078 529.525 476.005 529.078C474.843 528.63 473.592 528.093 472.162 527.512C472.073 527.467 471.984 527.467 471.85 527.377C471.537 527.288 471.269 527.154 471.001 527.064C470.733 526.93 470.464 526.841 470.241 526.706C469.615 526.438 469.035 526.125 468.588 525.722C468.409 525.588 468.23 525.409 468.051 525.275C467.873 525.096 467.739 524.872 467.605 524.693C467.024 523.798 467.158 522.814 467.56 521.83C469.794 517.803 473.056 514.627 476.586 511.719C478.686 510.019 480.921 508.364 483.065 506.753C493.075 499.103 501.922 490.871 510.725 482.594C513.764 479.776 516.891 476.51 518.366 473.244C519.573 470.694 519.751 468.099 518.187 465.638C516.534 463.133 513.227 461.164 511.753 458.569C511.038 457.362 511.127 455.93 511.708 454.632C512.2 453.603 513.049 452.619 514.121 451.948C514.3 451.859 514.434 451.769 514.568 451.635C515.104 451.322 515.73 451.053 516.355 450.919C517.428 450.561 518.589 450.472 519.796 450.606C519.841 450.606 519.841 450.606 519.885 450.651C519.93 450.651 519.93 450.651 519.93 450.695C519.975 450.651 519.975 450.651 519.975 450.695C522.656 451.188 524.443 452.44 526.186 453.693C526.811 454.185 527.482 454.677 528.197 455.08C529.314 455.796 530.52 456.422 531.95 456.646C532.173 456.646 532.397 456.69 532.665 456.69C532.71 456.69 532.71 456.735 532.754 456.69C538.161 456.69 541.244 453.603 545.4 452.351C545.713 452.217 546.026 452.172 546.383 452.038C546.517 451.993 546.651 451.948 546.785 451.903H546.919C546.919 451.903 546.919 451.903 546.964 451.903C552.996 452.351 556.258 453.469 558.537 454.722C558.716 454.811 558.984 454.99 559.163 455.125C559.342 455.259 559.61 455.393 559.788 455.572C560.146 455.796 560.503 456.019 560.816 456.288C563.095 458.077 565.463 459.956 568.368 461.209C569.127 461.522 569.932 461.791 571.272 462.059C571.362 462.104 571.496 462.104 571.63 462.149C571.764 462.149 571.853 462.193 571.987 462.193C575.741 462.506 579.092 461.835 581.728 460.583C582.041 460.448 582.399 460.27 582.711 460.091C583.158 459.867 583.56 459.554 583.963 459.241C584.409 458.927 584.767 458.614 585.124 458.256C585.482 457.943 585.795 457.585 586.107 457.227C586.733 456.422 587.225 455.617 587.627 454.767C588.744 452.261 588.967 449.577 589.012 446.937C589.057 437.9 587.046 428.058 576.813 422.018C571.853 419.065 565.061 417.052 562.738 413.026C560.056 408.373 564.436 402.915 561.844 398.217C558.895 392.938 548.573 391.148 542.808 386.898C537.133 382.737 536.508 376.564 537.848 371.016C538.787 366.855 540.663 362.739 541.691 358.534C541.87 357.818 542.004 357.102 542.138 356.386C542.227 355.671 542.317 355 542.361 354.239C542.406 353.613 542.451 352.852 542.496 352.136C542.496 351.018 542.406 349.989 541.87 349.407C539.234 349.407 537.804 349.452 536.776 349.407C536.418 349.407 536.061 349.407 535.659 349.362C530.386 347.976 528.643 347.17 527.482 346.365C527.303 346.276 527.169 346.141 527.035 346.052C523.952 343.681 521.985 340.728 518.723 338.446C518.321 338.178 517.964 337.954 517.517 337.73C517.249 337.596 517.025 337.462 516.757 337.328C515.372 336.567 513.808 335.941 512.2 335.449C511.797 335.359 511.395 335.225 510.948 335.091C510.546 334.957 510.144 334.867 509.697 334.778C508.357 334.42 506.971 334.062 505.586 333.838C505.273 333.793 504.916 333.704 504.603 333.659C504.246 333.614 503.888 333.525 503.576 333.48C502.727 333.346 501.833 333.167 500.939 333.033C500.09 332.899 499.196 332.72 498.258 332.586C496.471 332.317 494.683 332.004 492.896 331.735C490.215 331.243 487.578 330.706 485.121 329.991C471.269 325.964 463.002 316.48 449.686 311.782C446.737 310.753 443.654 309.948 440.437 309.366C439.588 309.232 438.873 309.098 438.158 308.964C436.906 308.74 435.611 308.516 434.315 308.382C433.689 308.292 433.108 308.203 432.572 308.158C432.304 308.113 432.036 308.113 431.768 308.069C429.355 307.756 426.852 307.532 424.44 307.263C416.486 306.413 407.817 305.698 400.623 308.113C392.267 310.932 387.62 317.598 379.264 320.103C375.287 320.953 372.204 321.222 369.433 321.356C368.942 321.401 368.45 321.401 367.914 321.401C366.886 321.446 365.903 321.49 364.875 321.58C353.391 322.832 345.214 329.32 335.831 333.749C323.721 339.431 308.126 341.936 293.47 340.549C286.365 339.878 278.679 338.402 272.468 340.728C271.306 341.175 270.234 341.712 269.161 342.339C268.849 342.517 268.491 342.786 268.178 342.965C266.838 343.815 265.587 344.71 264.201 345.515C263.889 345.649 263.621 345.783 263.352 345.873C263.352 345.918 263.308 345.873 263.308 345.873C260.269 347.17 257.365 347.931 254.46 348.289C254.371 348.289 254.237 348.333 254.103 348.333C251.288 348.647 248.562 348.557 245.97 348.199C245.613 348.155 245.255 348.065 244.943 347.976C244.898 348.02 244.898 347.976 244.853 347.976C242.261 347.439 240.34 346.902 238.776 346.276C237.748 345.828 236.676 345.336 235.604 344.71C235.157 344.396 234.799 344.128 234.486 343.86C233.95 343.502 233.459 343.01 233.012 342.562C232.52 342.07 232.073 341.533 231.671 340.952C231.269 340.37 230.867 339.833 230.465 339.252C229.661 338.133 228.856 336.97 227.828 335.896C227.516 335.493 227.113 335.18 226.711 334.867C226.399 334.554 226.041 334.33 225.684 334.107C225.639 334.062 225.639 334.062 225.594 334.062C225.594 334.017 225.55 334.017 225.55 334.017C223.315 332.943 222.109 332.496 221.17 332.228C220.724 332.093 220.232 332.004 219.651 331.914C219.16 331.825 218.668 331.735 218.132 331.735C215.317 331.422 212.368 331.422 209.374 331.601C209.106 331.557 208.838 331.601 208.569 331.646C207.497 331.691 206.425 331.735 205.308 331.825C201.867 332.004 198.471 332.272 195.209 332.228C194.494 332.228 193.824 332.183 193.153 332.183C192.483 332.138 191.813 332.093 191.187 332.004C190.204 331.914 189.132 331.78 187.925 331.601C187.702 331.557 187.478 331.512 187.21 331.512C187.076 331.467 186.987 331.467 186.898 331.467C186.585 331.422 186.317 331.378 186.004 331.288C185.557 331.199 185.066 331.109 184.619 330.975C182.072 330.393 179.703 329.767 177.425 329.096C174.475 328.201 171.616 327.172 168.756 326.054C167.817 325.74 166.924 325.338 165.36 324.756C162.098 323.504 158.836 322.251 155.574 321.132C154.725 320.819 153.831 320.551 152.937 320.282C152.357 320.103 151.731 319.924 151.15 319.746C149.184 319.164 147.084 318.672 144.671 318.224C143.867 318.09 143.107 317.956 142.347 317.866C140.694 317.643 139.175 317.509 137.7 317.419C137.119 317.374 136.449 317.374 135.823 317.374C135.108 317.33 134.438 317.374 133.723 317.419C133.366 317.419 132.964 317.419 132.606 317.464C132.427 317.509 132.204 317.509 132.025 317.509C123.58 318.448 116.43 321.088 109.057 320.327C108.611 320.238 108.164 320.148 107.762 320.014C107.762 320.014 107.717 320.014 107.717 319.969C100.612 318.224 95.7862 314.824 90.8263 311.916C89.9326 311.335 88.9942 310.798 88.0558 310.306C85.8663 309.142 83.5427 308.158 80.8617 307.487C75.3208 306.145 67.3223 305.698 66.5627 301.895C65.5796 297.197 69.2437 296.034 64.105 291.873C61.7814 289.994 60.5303 288.16 60.1281 286.281C59.8153 284.67 60.0834 283.06 60.8431 281.405C61.558 279.749 62.7198 278.049 64.1944 276.304C70.5843 268.52 77.1975 260.869 83.7215 253.174C85.2854 251.295 87.0281 249.327 89.8879 248.387C91.6306 247.761 93.5967 247.582 95.6075 247.672C96.0543 247.716 96.5459 247.716 96.9927 247.761C97.4395 247.806 97.8417 247.851 98.3332 247.94C98.7801 247.985 99.2269 248.074 99.6738 248.119C101.461 248.432 102.668 248.701 103.919 248.924C105.036 249.148 106.198 249.372 107.315 249.595C107.404 249.595 107.494 249.64 107.583 249.64C108.164 249.774 108.7 249.819 109.147 249.909C109.46 249.953 109.817 249.998 110.13 250.043C110.577 250.087 110.979 250.087 111.426 250.132C113.615 250.087 114.866 249.953 115.76 249.819C115.805 249.819 115.849 249.774 115.894 249.774C116.386 249.685 116.743 249.595 117.145 249.461C117.324 249.416 117.458 249.282 117.592 249.237C118.575 248.701 119.245 248.253 119.737 247.806C119.826 247.672 119.96 247.582 120.05 247.448C120.095 247.403 120.229 247.269 120.273 247.179C120.452 246.956 120.586 246.732 120.675 246.508C121.524 244.764 121.122 242.706 120.095 241.006C118.396 238.366 115.403 236.263 113.258 233.803C108.432 228.345 108.298 221.544 111.113 215.37C111.739 213.939 112.543 212.552 113.526 211.165C118.575 204.007 127.11 198.012 135.868 192.464C148.201 184.59 168.175 180.206 176.039 170.274C182.25 162.445 200.258 163.071 210.982 157.657C215.63 155.331 218.489 152.155 220.053 148.62C222.422 143.431 222.154 137.436 221.036 132.022C218.445 120.032 213.351 108.266 205.888 97.1709C203.744 93.9944 201.375 90.818 200.482 87.3731C199.499 83.6151 200.258 79.9018 201.867 76.2779C203.163 73.3252 204.19 69.9698 207.944 70.6856C213.083 71.6251 218.489 74.5331 223.449 76.3227C225.639 77.128 228.097 77.8885 230.599 78.3359C233.816 78.6491 235.872 78.6491 237.436 78.3359C237.748 78.2912 238.016 78.2017 238.329 78.1122C238.731 77.978 239.134 77.799 239.536 77.6201C241.189 76.7701 242.083 75.6963 242.664 74.3989C243.021 73.6384 243.245 72.8331 243.513 71.9383C243.825 70.5514 244.138 69.1198 244.764 67.8223C244.808 67.7329 244.898 67.6434 244.987 67.5092C247.936 63.3485 253.79 61.4694 260.091 60.6194C261.074 60.4852 262.012 60.3957 262.995 60.3062C263.799 60.2615 264.604 60.172 265.363 60.1273C266.525 60.0826 267.687 60.0378 268.804 59.9931C292.397 59.5457 316.035 61.0221 339.003 64.3775C341.773 64.7354 344.455 65.1828 347.18 65.6301C348.655 65.8538 350.129 66.1223 351.872 66.4354C352.632 66.5697 353.436 66.7039 354.285 66.8381C358.351 67.5539 362.194 68.2697 365.903 68.9855C369.522 69.7014 373.142 70.3724 376.717 71.0435C389.184 73.4147 401.785 75.8305 412.866 80.1255C418.005 82.094 422.965 84.4651 427.97 86.8362C432.125 88.8495 436.281 90.8627 440.526 92.697C441.509 93.0997 442.447 93.5023 443.386 93.9049C447.497 95.5603 451.652 96.9919 455.942 97.9314C456.925 98.1551 457.953 98.3788 459.427 98.6472C460.142 98.7815 460.902 98.8709 461.662 98.9604C463.896 99.2288 466.175 99.4078 468.498 99.4078C469.615 99.4078 470.777 99.3631 471.894 99.3183C476.005 98.8709 478.418 98.4683 480.206 98.1999C480.295 98.1999 480.384 98.1551 480.518 98.1104C481.01 98.0656 481.501 97.9314 481.993 97.8419C482.306 97.7972 482.663 97.7077 482.976 97.663C483.736 97.484 484.495 97.3498 485.255 97.1709C486.104 96.9919 486.953 96.813 487.802 96.5893C488.651 96.4103 489.5 96.1866 490.349 96.0077C491.645 95.6945 492.941 95.4261 494.192 95.2024C500.135 93.9497 505.363 93.2786 510.055 93.8602C510.233 93.9497 510.457 94.0392 510.636 94.1286C521.36 98.9157 523.639 101.153 527.258 101.779C527.482 101.824 527.705 101.824 527.973 101.824C535.391 102.092 539.904 96.8577 546.472 96.1866C546.651 96.2314 546.83 96.2314 547.053 96.2314C552.281 96.813 554.962 98.1104 557.063 99.6762C557.375 99.8552 557.644 100.124 557.912 100.392C558.224 100.705 558.537 100.974 558.85 101.242C559.565 101.958 560.325 102.629 561.04 103.39C562.246 104.553 563.453 105.761 564.793 106.834C565.463 107.371 566.178 107.863 566.893 108.356C567.742 108.892 568.636 109.34 569.708 109.742C570.2 109.921 570.736 110.145 571.272 110.279C571.809 110.458 572.389 110.592 573.015 110.682C573.462 110.727 573.864 110.816 574.355 110.816C574.624 110.861 574.892 110.861 575.16 110.861C576.902 110.995 578.556 110.816 580.209 110.458C580.656 110.369 581.148 110.279 581.594 110.145C582.533 109.877 583.471 109.608 584.409 109.295C585.348 108.982 586.286 108.624 587.225 108.311C589.101 107.595 590.933 106.879 592.855 106.208C594.151 105.761 595.491 105.358 596.832 105C597.457 104.821 598.083 104.687 598.708 104.597C601.747 104.284 603.892 104.15 605.724 104.284C606.037 104.284 606.305 104.329 606.662 104.329C607.511 104.374 608.226 104.463 608.986 104.553C609.209 104.597 609.433 104.642 609.611 104.687H609.656C610.55 104.866 611.309 105.045 612.069 105.224C612.695 105.358 613.32 105.537 613.946 105.671C614.84 105.94 615.599 106.163 616.359 106.432C617.431 106.834 618.459 107.282 619.487 107.684C621.676 108.669 623.776 109.787 626.1 111.264C627.753 112.293 629.362 113.724 631.105 115.111C632.937 116.543 634.858 117.974 637.092 118.959C637.673 119.182 638.254 119.406 638.969 119.585C639.282 119.719 639.639 119.764 639.997 119.853C640.175 119.898 640.354 119.898 640.578 119.943C640.622 119.943 640.712 119.988 640.756 119.988C641.337 120.077 642.008 120.122 642.633 120.122C643.125 120.122 643.661 120.077 644.197 120.077C648.442 119.63 650.453 118.332 651.257 116.632C652.777 113.322 649.738 108.534 648.531 105.492C646.61 100.839 646.789 95.784 648.934 91.0864C650.676 87.1942 653.715 83.5256 657.87 80.4386C667.165 73.7278 681.732 70.1935 695.405 71.3567C702.912 72.0278 707.649 70.5067 710.375 67.6881C715.022 69.4777 716.675 70.0593 718.373 70.5514C719.535 70.8646 720.652 71.133 721.814 71.3567C723.467 71.6251 724.674 71.7146 725.835 71.7146C727.176 71.7146 728.516 71.5804 729.812 71.2225C734.191 70.104 736.783 67.2407 739.688 64.8696C740.671 64.0195 741.743 63.2143 742.905 62.4537C748.49 58.8746 755.953 56.3692 763.638 56.9061C764.353 56.9956 765.024 57.0851 765.649 57.2193C765.694 57.2193 765.694 57.2193 765.739 57.264C768.107 57.6219 769.849 57.9798 771.279 58.3377C771.413 58.3825 771.547 58.3825 771.682 58.4272C772.396 58.6062 773.067 58.8299 773.782 59.0088C774.094 59.0536 774.407 59.1878 774.765 59.2773C775.748 59.5457 776.731 59.8589 777.714 60.0826C778.116 60.172 778.518 60.3062 778.965 60.3957C780.082 60.7089 781.244 60.9773 782.406 61.201C782.853 61.2458 783.255 61.2905 783.657 61.38C783.702 61.3352 783.702 61.38 783.746 61.38C785.042 61.5142 786.204 61.5589 787.187 61.5589C789.198 61.5589 790.628 61.2458 791.789 60.6194C793.041 59.9036 793.622 58.8299 794.605 57.9351C794.828 57.7114 795.096 57.4877 795.409 57.3535C795.588 57.2193 795.811 57.0851 796.034 56.9956C796.258 56.9061 796.481 56.7719 796.749 56.6824C796.928 56.5929 797.152 56.5482 797.375 56.4587C797.554 56.414 797.777 56.2798 797.956 56.2798C799.565 55.6982 801.397 55.2955 803.318 55.1613C805.15 55.0271 807.027 55.1166 808.859 55.2955C809.931 55.4297 811.004 55.6087 812.076 55.7876C813.149 55.9666 814.176 56.1903 815.249 56.3692C815.74 56.4587 816.232 56.5482 816.768 56.6377C817.26 56.7719 817.751 56.8166 818.287 56.9508C819.851 57.264 821.415 57.4877 823.069 57.5772C823.247 57.5772 823.426 57.6219 823.649 57.6219C828.922 57.9351 833.48 57.3088 837.948 57.3535C839.512 57.3535 841.121 57.443 842.64 57.6667C842.819 57.7114 842.998 57.7114 843.177 57.7561C843.445 57.8009 843.668 57.8456 843.891 57.8904C844.294 57.9798 844.696 58.0693 845.053 58.1588C845.411 58.2483 845.768 58.3825 846.126 58.472C846.707 58.6509 847.243 58.8299 847.69 59.0536C848.405 59.3667 849.03 59.7246 849.522 60.172C849.745 60.351 849.969 60.4852 850.147 60.7089C853.722 64.3775 850.326 69.254 852.024 73.4594C854.214 78.7833 863.597 81.1097 869.719 84.9125C869.942 85.0914 870.211 85.2257 870.434 85.3599C872.087 86.4783 873.472 87.8205 873.875 89.3416C874.053 90.0574 874.009 90.818 873.696 91.4891C873.249 92.5181 872.266 93.4128 870.791 93.9049C869.093 94.4865 867.083 94.3971 865.25 94.7997C864.938 94.8445 864.67 94.9339 864.402 95.0234C862.48 95.6498 860.871 96.7682 860.291 97.9762C859.933 98.8262 860.067 99.6762 860.871 100.437C861.676 101.197 862.346 102.003 862.882 102.853C862.927 102.987 863.016 103.076 863.061 103.211C863.195 103.434 863.284 103.658 863.374 103.926C863.418 104.016 863.463 104.15 863.553 104.284C864.402 106.163 864.58 108.177 864.133 110.1C864.089 110.414 863.955 110.771 863.821 111.085C863.731 111.398 863.597 111.711 863.418 112.069C863.195 112.427 862.972 112.785 862.748 113.053C862.703 113.098 862.704 113.143 862.704 113.143C861.005 115.558 859.754 116.811 859.173 118.153C859.129 118.332 859.129 118.556 859.129 118.735C859.129 120.748 860.201 122.314 861.854 123.522C864.357 125.401 868.2 126.564 871.73 127.369C874.947 128.085 876.332 128.398 877.762 128.712C880.443 129.293 881.471 129.472 882.499 129.696C883.035 129.785 883.571 129.875 884.063 129.964C887.414 130.501 890.497 130.949 893.402 131.217C894.251 131.262 895.055 131.351 895.904 131.396C900.328 131.664 904.394 131.53 908.416 130.859C908.952 130.77 909.399 130.68 909.89 130.546C910.069 130.501 910.292 130.501 910.471 130.456C913.42 129.875 915.386 129.472 917.174 129.383C923.072 131.485 922.983 133.051 923.072 134.438V134.483C923.43 140.791 927.764 146.831 934.869 151.126C938.131 153.005 942.018 154.705 943.403 157.389C945.727 161.908 939.695 166.739 940.856 171.482C941.437 174.077 944.208 176.269 946.799 178.237C947.202 178.55 947.559 178.819 948.006 179.087C948.185 179.222 948.363 179.356 948.587 179.445C951.223 181.324 954.262 183.159 957.524 184.501C959.356 185.216 961.232 185.798 963.154 186.111C965.746 186.514 967.801 186.559 969.812 186.201C970.661 185.977 971.421 185.709 972.091 185.485C973.789 184.948 975.04 184.411 976.112 183.919C976.291 183.83 976.425 183.785 976.559 183.74C976.738 183.651 976.917 183.561 977.14 183.472C977.185 183.427 977.185 183.427 977.229 183.427C977.453 183.337 977.676 183.248 977.9 183.114C978.213 183.024 978.481 182.89 978.793 182.801C978.838 182.756 978.972 182.756 979.017 182.711C980.715 182.174 982.413 181.951 984.111 181.951C985.228 181.951 986.39 182.085 987.552 182.264C987.596 182.264 987.686 182.308 987.73 182.308C991.439 182.935 995.103 184.456 998.857 185.932C999.661 186.245 1000.51 186.559 1001.27 186.872C1004.22 187.99 1007.21 189.064 1010.34 189.601C1013.29 190.093 1016.24 190.182 1019.14 189.914C1020.26 189.825 1021.29 189.69 1022.41 189.511C1023.66 189.332 1024.91 189.064 1026.16 188.84C1031.39 187.722 1036.53 186.022 1041.57 184.724C1042.74 184.545 1043.81 184.322 1044.79 184.143C1044.84 184.143 1044.84 184.098 1044.84 184.143C1047.25 183.695 1049.31 183.427 1051.05 183.203C1054.67 182.801 1057.13 182.756 1059.45 183.024C1062.93 183.561 1063.96 183.785 1064.9 184.098C1066.46 184.59 1067.85 185.261 1069.01 186.111C1069.46 186.559 1069.86 187.096 1070.17 187.543C1071.96 189.825 1072.72 191.927 1073.7 193.762C1073.84 194.03 1073.97 194.298 1074.15 194.522C1074.33 194.88 1074.6 195.238 1074.86 195.596C1075.31 196.133 1075.85 196.625 1076.56 197.117C1078.57 198.459 1081.48 198.996 1083.89 200.07C1086.08 201.009 1087.87 202.351 1089.83 203.515C1091 204.23 1092.25 204.991 1093.59 205.528C1094.3 205.662 1094.97 205.751 1095.6 205.841C1103.69 206.825 1109.27 203.828 1115.26 203.425C1116.69 203.336 1118.07 203.38 1119.37 203.515C1120.58 203.783 1121.65 204.051 1122.59 204.275C1124.15 204.678 1125.4 204.991 1126.43 205.349C1126.74 205.483 1127.1 205.573 1127.41 205.662C1128.53 206.065 1129.38 206.378 1130.27 206.78C1130.85 207.004 1131.48 207.273 1132.06 207.496C1132.37 207.631 1132.69 207.765 1133 207.854C1135.23 208.749 1137.47 209.599 1139.84 210.136C1141.27 210.315 1142.52 210.494 1143.68 210.673C1147.79 211.254 1150.02 211.433 1151.68 211.568C1152.44 211.612 1153.06 211.612 1153.69 211.657C1154.4 211.702 1155.16 211.702 1155.83 211.746C1158.78 211.881 1161.64 212.06 1164.41 212.507C1168.08 213.223 1169.77 213.76 1171.34 214.386C1171.74 214.565 1172.14 214.744 1172.5 214.968C1172.59 215.012 1172.68 215.057 1172.81 215.147C1172.99 215.236 1173.21 215.326 1173.39 215.505C1173.75 215.728 1174.15 215.997 1174.6 216.31C1175.27 216.757 1175.94 217.115 1176.57 217.607C1177.77 218.591 1178.89 219.62 1180.01 220.694C1180.45 221.142 1180.95 221.589 1181.39 222.036C1181.79 222.439 1182.2 222.797 1182.6 223.155C1185.46 225.794 1188.45 228.166 1192.61 229.15C1193.32 229.195 1193.99 229.284 1194.62 229.329C1197.39 229.508 1199.27 229.463 1200.87 229.329C1201.72 229.239 1202.53 229.105 1203.29 229.016C1203.65 228.926 1204 228.926 1204.4 228.881C1204.72 228.837 1204.99 228.792 1205.25 228.792C1207.26 228.479 1209.23 228.3 1211.06 228.389C1211.64 228.568 1212.14 228.702 1212.63 228.926C1212.67 228.926 1212.67 228.926 1212.67 228.926C1216.69 230.447 1218.17 232.013 1218.88 233.579C1218.97 233.847 1219.06 234.116 1219.15 234.384C1219.2 234.518 1219.24 234.653 1219.28 234.787C1220.71 238.679 1220.22 242.706 1218.48 246.419Z" fill="url(#paint1_linear)" stroke="#F3F7FF" stroke-width="4.48" stroke-miterlimit="10" stroke-linejoin="round"></path> <mask id="mask0" maskUnits="userSpaceOnUse" x="60" y="55" width="1161" height="541"> <path d="M1218.48 246.419C1217.94 247.537 1217.32 248.656 1216.56 249.73C1216.2 250.266 1215.8 250.803 1215.35 251.295C1214.91 251.832 1214.46 252.324 1213.97 252.817H1213.92C1213.48 253.309 1212.98 253.756 1212.49 254.203C1208.96 257.425 1204.63 260.646 1203.15 264.18C1202.57 265.388 1202.44 266.641 1202.71 267.983C1203.29 270.533 1205.7 272.725 1206.59 275.231C1208.2 279.749 1204.54 284.447 1204.32 289.144C1204.14 294.334 1208.16 299.076 1210.79 303.953C1215.31 312.408 1215.44 321.848 1211.46 330.528C1210.35 332.943 1208.87 335.315 1207.09 337.596C1205.39 339.744 1203.29 341.891 1200.11 343.099C1192.21 346.186 1182.2 342.383 1173.13 343.233C1165.48 343.949 1159.5 347.752 1154.13 351.331C1151.68 352.986 1149.17 354.686 1146.76 356.431C1139.57 361.531 1132.95 366.99 1128.93 373.342C1128.4 374.192 1127.95 375.132 1127.5 376.027C1126.21 378.756 1125.49 381.887 1125.54 384.93C1125.58 387.301 1126.65 389.672 1126.16 392.043C1125.09 397.143 1120.89 396.606 1116.73 397.367C1113.16 398.038 1109.63 398.664 1106.05 399.336C1098.95 400.633 1091.67 401.975 1085.1 404.257C1076.61 407.21 1069.5 411.639 1061.77 415.352C1042.74 424.523 1019.77 429.489 998.097 435.798C983.485 440.092 967.756 445.327 956.63 453.067C953.413 455.304 950.598 457.764 947.068 459.777C942.733 462.193 936.969 463.267 932.769 465.728C928.792 468.099 925.217 471.007 923.698 474.362C921.285 479.865 922.938 485.681 924.591 491.273C928.702 504.919 935.673 520.846 956.183 525.185C966.058 526.975 974.906 526.348 983.53 526.035C988.222 525.901 995.416 526.125 1001.81 527.288C1010.61 528.809 1017.89 532.12 1014.99 538.607C1013.6 541.694 1009.45 544.154 1004.71 545.273C999.527 546.526 992.512 546.436 987.149 545.452C983.441 544.736 980.76 544.065 978.034 543.573C974.057 542.857 969.991 542.499 965.701 543.26C953.189 545.497 948.587 555.473 938.22 560.574C922.983 568.09 896.664 564.421 886.878 575.024C882.499 579.722 883.124 586.075 877.583 590.235C873.115 593.591 865.876 594.664 859.218 595.022C849.745 595.514 840.138 594.933 831.022 593.322C828.52 592.875 826.062 592.338 823.649 591.756C820.075 590.906 816.411 589.743 814.713 587.506C813.193 585.627 813.595 583.301 814.444 581.243C818.198 572.25 831.112 564.511 829.19 555.339C828.52 552.073 825.973 549.12 823.471 546.257C817.617 539.591 810.468 532.343 799.162 530.375C791.387 529.346 783.836 529.838 778.071 528.809C774.72 528.228 772.039 527.154 770.654 524.962C768.107 520.98 773.022 516.551 778.027 513.598C787.5 508.006 798.805 503.666 810.914 500.937C812.568 500.579 814.176 500.221 815.83 499.863C824.186 498.074 831.737 496.284 834.061 490.423C835.312 487.157 833.391 484.607 829.28 482.684C825.75 480.984 821.415 479.82 816.857 479.015C811.004 477.986 804.748 477.539 799.162 477.449C780.306 477.047 759.527 481.655 742.413 478.612C738.705 477.986 735.13 476.957 731.823 475.436C727.131 473.288 723.288 469.933 723.735 466.22C723.959 464.52 725.12 462.909 726.372 461.388C729.634 457.406 733.879 453.693 736.336 449.443C738.794 445.193 739.285 440.182 735.219 436.558C733.566 435.126 731.108 434.142 728.427 433.65C724.361 432.934 719.892 433.471 717.256 435.529C715.156 437.229 714.575 439.511 712.296 441.077C709.883 442.732 706.04 443.179 702.689 442.598C701.438 442.419 700.276 442.016 699.293 441.569C695.539 439.824 695.003 435.663 690.311 434.813C687.63 434.366 686.156 435.395 684.368 436.469C674.091 442.687 663.724 448.861 654.921 455.975C651.213 458.972 648.397 462.193 644.912 465.191C641.248 468.322 636.377 470.738 632.177 473.557C627.53 476.778 623.821 480.491 619.576 483.936C615.733 487.023 611.488 489.618 606.215 491.676C601.881 493.376 597.904 491.855 593.48 493.018C588.342 494.405 586.778 498.789 582.131 500.803C575.428 503.755 564.033 501.026 559.878 505.5C558.001 507.514 558.761 510.064 559.565 512.345C560.637 515.477 564.48 522.59 562.425 525.722C560.503 528.72 555.543 527.377 552.728 527.198C548.573 526.975 544.462 526.706 540.306 526.527C535.972 526.304 531.414 526.125 527.437 527.288C523.639 528.451 520.958 530.733 517.606 532.299C517.025 532.567 516.445 532.836 515.864 533.015C515.238 533.238 514.613 533.462 513.987 533.641C511.306 534.491 508.312 534.938 505.273 535.073C504.871 535.117 504.424 535.117 504.022 535.117C503.576 535.162 503.084 535.162 502.592 535.162C501.207 535.162 499.777 535.117 498.392 534.983C498.124 534.938 497.856 534.938 497.588 534.938C496.203 534.759 494.773 534.625 493.387 534.357C492.181 534.178 490.974 533.909 489.857 533.641C486.149 532.791 482.663 531.628 479.267 530.33C478.15 529.928 477.078 529.525 476.005 529.078C474.843 528.63 473.592 528.093 472.162 527.512C472.073 527.467 471.984 527.467 471.85 527.377C471.537 527.288 471.269 527.154 471.001 527.064C470.733 526.93 470.464 526.841 470.241 526.706C469.615 526.438 469.035 526.125 468.588 525.722C468.409 525.588 468.23 525.409 468.051 525.275C467.873 525.096 467.739 524.872 467.605 524.693C467.024 523.798 467.158 522.814 467.56 521.83C469.794 517.803 473.056 514.627 476.586 511.719C478.686 510.019 480.921 508.364 483.065 506.753C493.075 499.103 501.922 490.871 510.725 482.594C513.764 479.776 516.891 476.51 518.366 473.244C519.573 470.694 519.751 468.099 518.187 465.638C516.534 463.133 513.227 461.164 511.753 458.569C511.038 457.362 511.127 455.93 511.708 454.632C512.2 453.603 513.049 452.619 514.121 451.948C514.3 451.859 514.434 451.769 514.568 451.635C515.104 451.322 515.73 451.053 516.355 450.919C517.428 450.561 518.589 450.472 519.796 450.606C519.841 450.606 519.841 450.606 519.885 450.651C519.93 450.651 519.93 450.651 519.93 450.695C519.975 450.651 519.975 450.651 519.975 450.695C522.656 451.188 524.443 452.44 526.186 453.693C526.811 454.185 527.482 454.677 528.197 455.08C529.314 455.796 530.52 456.422 531.95 456.646C532.173 456.646 532.397 456.69 532.665 456.69C532.71 456.69 532.71 456.735 532.754 456.69C538.161 456.69 541.244 453.603 545.4 452.351C545.713 452.217 546.026 452.172 546.383 452.038C546.517 451.993 546.651 451.948 546.785 451.903H546.919C546.919 451.903 546.919 451.903 546.964 451.903C552.996 452.351 556.258 453.469 558.537 454.722C558.716 454.811 558.984 454.99 559.163 455.125C559.342 455.259 559.61 455.393 559.788 455.572C560.146 455.796 560.503 456.019 560.816 456.288C563.095 458.077 565.463 459.956 568.368 461.209C569.127 461.522 569.932 461.791 571.272 462.059C571.362 462.104 571.496 462.104 571.63 462.149C571.764 462.149 571.853 462.193 571.987 462.193C575.741 462.506 579.092 461.835 581.728 460.583C582.041 460.448 582.399 460.27 582.711 460.091C583.158 459.867 583.56 459.554 583.963 459.241C584.409 458.927 584.767 458.614 585.124 458.256C585.482 457.943 585.795 457.585 586.107 457.227C586.733 456.422 587.225 455.617 587.627 454.767C588.744 452.261 588.967 449.577 589.012 446.937C589.057 437.9 587.046 428.058 576.813 422.018C571.853 419.065 565.061 417.052 562.738 413.026C560.056 408.373 564.436 402.915 561.844 398.217C558.895 392.938 548.573 391.148 542.808 386.898C537.133 382.737 536.508 376.564 537.848 371.016C538.787 366.855 540.663 362.739 541.691 358.534C541.87 357.818 542.004 357.102 542.138 356.386C542.227 355.671 542.317 355 542.361 354.239C542.406 353.613 542.451 352.852 542.496 352.136C542.496 351.018 542.406 349.989 541.87 349.407C539.234 349.407 537.804 349.452 536.776 349.407C536.418 349.407 536.061 349.407 535.659 349.362C530.386 347.976 528.643 347.17 527.482 346.365C527.303 346.276 527.169 346.141 527.035 346.052C523.952 343.681 521.985 340.728 518.723 338.446C518.321 338.178 517.964 337.954 517.517 337.73C517.249 337.596 517.025 337.462 516.757 337.328C515.372 336.567 513.808 335.941 512.2 335.449C511.797 335.359 511.395 335.225 510.948 335.091C510.546 334.957 510.144 334.867 509.697 334.778C508.357 334.42 506.971 334.062 505.586 333.838C505.273 333.793 504.916 333.704 504.603 333.659C504.246 333.614 503.888 333.525 503.576 333.48C502.727 333.346 501.833 333.167 500.939 333.033C500.09 332.899 499.196 332.72 498.258 332.586C496.471 332.317 494.683 332.004 492.896 331.735C490.215 331.243 487.578 330.706 485.121 329.991C471.269 325.964 463.002 316.48 449.686 311.782C446.737 310.753 443.654 309.948 440.437 309.366C439.588 309.232 438.873 309.098 438.158 308.964C436.906 308.74 435.611 308.516 434.315 308.382C433.689 308.292 433.108 308.203 432.572 308.158C432.304 308.113 432.036 308.113 431.768 308.069C429.355 307.756 426.852 307.532 424.44 307.263C416.486 306.413 407.817 305.698 400.623 308.113C392.267 310.932 387.62 317.598 379.264 320.103C375.287 320.953 372.204 321.222 369.433 321.356C368.942 321.401 368.45 321.401 367.914 321.401C366.886 321.446 365.903 321.49 364.875 321.58C353.391 322.832 345.214 329.32 335.831 333.749C323.721 339.431 308.126 341.936 293.47 340.549C286.365 339.878 278.679 338.402 272.468 340.728C271.306 341.175 270.234 341.712 269.161 342.339C268.849 342.517 268.491 342.786 268.178 342.965C266.838 343.815 265.587 344.71 264.201 345.515C263.889 345.649 263.621 345.783 263.352 345.873C263.352 345.918 263.308 345.873 263.308 345.873C260.269 347.17 257.365 347.931 254.46 348.289C254.371 348.289 254.237 348.333 254.103 348.333C251.288 348.647 248.562 348.557 245.97 348.199C245.613 348.155 245.255 348.065 244.943 347.976C244.898 348.02 244.898 347.976 244.853 347.976C242.261 347.439 240.34 346.902 238.776 346.276C237.748 345.828 236.676 345.336 235.604 344.71C235.157 344.396 234.799 344.128 234.486 343.86C233.95 343.502 233.459 343.01 233.012 342.562C232.52 342.07 232.073 341.533 231.671 340.952C231.269 340.37 230.867 339.833 230.465 339.252C229.661 338.133 228.856 336.97 227.828 335.896C227.516 335.493 227.113 335.18 226.711 334.867C226.399 334.554 226.041 334.33 225.684 334.107C225.639 334.062 225.639 334.062 225.594 334.062C225.594 334.017 225.55 334.017 225.55 334.017C223.315 332.943 222.109 332.496 221.17 332.228C220.724 332.093 220.232 332.004 219.651 331.914C219.16 331.825 218.668 331.735 218.132 331.735C215.317 331.422 212.368 331.422 209.374 331.601C209.106 331.557 208.838 331.601 208.569 331.646C207.497 331.691 206.425 331.735 205.308 331.825C201.867 332.004 198.471 332.272 195.209 332.228C194.494 332.228 193.824 332.183 193.153 332.183C192.483 332.138 191.813 332.093 191.187 332.004C190.204 331.914 189.132 331.78 187.925 331.601C187.702 331.557 187.478 331.512 187.21 331.512C187.076 331.467 186.987 331.467 186.898 331.467C186.585 331.422 186.317 331.378 186.004 331.288C185.557 331.199 185.066 331.109 184.619 330.975C182.072 330.393 179.703 329.767 177.425 329.096C174.475 328.201 171.616 327.172 168.756 326.054C167.817 325.74 166.924 325.338 165.36 324.756C162.098 323.504 158.836 322.251 155.574 321.132C154.725 320.819 153.831 320.551 152.937 320.282C152.357 320.103 151.731 319.924 151.15 319.746C149.184 319.164 147.084 318.672 144.671 318.224C143.867 318.09 143.107 317.956 142.347 317.866C140.694 317.643 139.175 317.509 137.7 317.419C137.119 317.374 136.449 317.374 135.823 317.374C135.108 317.33 134.438 317.374 133.723 317.419C133.366 317.419 132.964 317.419 132.606 317.464C132.427 317.509 132.204 317.509 132.025 317.509C123.58 318.448 116.43 321.088 109.057 320.327C108.611 320.238 108.164 320.148 107.762 320.014C107.762 320.014 107.717 320.014 107.717 319.969C100.612 318.224 95.7862 314.824 90.8263 311.916C89.9326 311.335 88.9942 310.798 88.0558 310.306C85.8663 309.142 83.5427 308.158 80.8617 307.487C75.3208 306.145 67.3223 305.698 66.5627 301.895C65.5796 297.197 69.2437 296.034 64.105 291.873C61.7814 289.994 60.5303 288.16 60.1281 286.281C59.8153 284.67 60.0834 283.06 60.8431 281.405C61.558 279.749 62.7198 278.049 64.1944 276.304C70.5843 268.52 77.1975 260.869 83.7215 253.174C85.2854 251.295 87.0281 249.327 89.8879 248.387C91.6306 247.761 93.5967 247.582 95.6075 247.672C96.0543 247.716 96.5459 247.716 96.9927 247.761C97.4395 247.806 97.8417 247.851 98.3332 247.94C98.7801 247.985 99.2269 248.074 99.6738 248.119C101.461 248.432 102.668 248.701 103.919 248.924C105.036 249.148 106.198 249.372 107.315 249.595C107.404 249.595 107.494 249.64 107.583 249.64C108.164 249.774 108.7 249.819 109.147 249.909C109.46 249.953 109.817 249.998 110.13 250.043C110.577 250.087 110.979 250.087 111.426 250.132C113.615 250.087 114.866 249.953 115.76 249.819C115.805 249.819 115.849 249.774 115.894 249.774C116.386 249.685 116.743 249.595 117.145 249.461C117.324 249.416 117.458 249.282 117.592 249.237C118.575 248.701 119.245 248.253 119.737 247.806C119.826 247.672 119.96 247.582 120.05 247.448C120.095 247.403 120.229 247.269 120.273 247.179C120.452 246.956 120.586 246.732 120.675 246.508C121.524 244.764 121.122 242.706 120.095 241.006C118.396 238.366 115.403 236.263 113.258 233.803C108.432 228.345 108.298 221.544 111.113 215.37C111.739 213.939 112.543 212.552 113.526 211.165C118.575 204.007 127.11 198.012 135.868 192.464C148.201 184.59 168.175 180.206 176.039 170.274C182.25 162.445 200.258 163.071 210.982 157.657C215.63 155.331 218.489 152.155 220.053 148.62C222.422 143.431 222.154 137.436 221.036 132.022C218.445 120.032 213.351 108.266 205.888 97.1709C203.744 93.9944 201.375 90.818 200.482 87.3731C199.499 83.6151 200.258 79.9018 201.867 76.2779C203.163 73.3252 204.19 69.9698 207.944 70.6856C213.083 71.6251 218.489 74.5331 223.449 76.3227C225.639 77.128 228.097 77.8885 230.599 78.3359C233.816 78.6491 235.872 78.6491 237.436 78.3359C237.748 78.2912 238.016 78.2017 238.329 78.1122C238.731 77.978 239.134 77.799 239.536 77.6201C241.189 76.7701 242.083 75.6963 242.664 74.3989C243.021 73.6384 243.245 72.8331 243.513 71.9383C243.825 70.5514 244.138 69.1198 244.764 67.8223C244.808 67.7329 244.898 67.6434 244.987 67.5092C247.936 63.3485 253.79 61.4694 260.091 60.6194C261.074 60.4852 262.012 60.3957 262.995 60.3062C263.799 60.2615 264.604 60.172 265.363 60.1273C266.525 60.0826 267.687 60.0378 268.804 59.9931C292.397 59.5457 316.035 61.0221 339.003 64.3775C341.773 64.7354 344.455 65.1828 347.18 65.6301C348.655 65.8538 350.129 66.1223 351.872 66.4354C352.632 66.5697 353.436 66.7039 354.285 66.8381C358.351 67.5539 362.194 68.2697 365.903 68.9855C369.522 69.7014 373.142 70.3724 376.717 71.0435C389.184 73.4147 401.785 75.8305 412.866 80.1255C418.005 82.094 422.965 84.4651 427.97 86.8362C432.125 88.8495 436.281 90.8627 440.526 92.697C441.509 93.0997 442.447 93.5023 443.386 93.9049C447.497 95.5603 451.652 96.9919 455.942 97.9314C456.925 98.1551 457.953 98.3788 459.427 98.6472C460.142 98.7815 460.902 98.8709 461.662 98.9604C463.896 99.2288 466.175 99.4078 468.498 99.4078C469.615 99.4078 470.777 99.3631 471.894 99.3183C476.005 98.8709 478.418 98.4683 480.206 98.1999C480.295 98.1999 480.384 98.1551 480.518 98.1104C481.01 98.0656 481.501 97.9314 481.993 97.8419C482.306 97.7972 482.663 97.7077 482.976 97.663C483.736 97.484 484.495 97.3498 485.255 97.1709C486.104 96.9919 486.953 96.813 487.802 96.5893C488.651 96.4103 489.5 96.1866 490.349 96.0077C491.645 95.6945 492.941 95.4261 494.192 95.2024C500.135 93.9497 505.363 93.2786 510.055 93.8602C510.233 93.9497 510.457 94.0392 510.636 94.1286C521.36 98.9157 523.639 101.153 527.258 101.779C527.482 101.824 527.705 101.824 527.973 101.824C535.391 102.092 539.904 96.8577 546.472 96.1866C546.651 96.2314 546.83 96.2314 547.053 96.2314C552.281 96.813 554.962 98.1104 557.063 99.6762C557.375 99.8552 557.644 100.124 557.912 100.392C558.224 100.705 558.537 100.974 558.85 101.242C559.565 101.958 560.325 102.629 561.04 103.39C562.246 104.553 563.453 105.761 564.793 106.834C565.463 107.371 566.178 107.863 566.893 108.356C567.742 108.892 568.636 109.34 569.708 109.742C570.2 109.921 570.736 110.145 571.272 110.279C571.809 110.458 572.389 110.592 573.015 110.682C573.462 110.727 573.864 110.816 574.355 110.816C574.624 110.861 574.892 110.861 575.16 110.861C576.902 110.995 578.556 110.816 580.209 110.458C580.656 110.369 581.148 110.279 581.594 110.145C582.533 109.877 583.471 109.608 584.409 109.295C585.348 108.982 586.286 108.624 587.225 108.311C589.101 107.595 590.933 106.879 592.855 106.208C594.151 105.761 595.491 105.358 596.832 105C597.457 104.821 598.083 104.687 598.708 104.597C601.747 104.284 603.892 104.15 605.724 104.284C606.037 104.284 606.305 104.329 606.662 104.329C607.511 104.374 608.226 104.463 608.986 104.553C609.209 104.597 609.433 104.642 609.611 104.687H609.656C610.55 104.866 611.309 105.045 612.069 105.224C612.695 105.358 613.32 105.537 613.946 105.671C614.84 105.94 615.599 106.163 616.359 106.432C617.431 106.834 618.459 107.282 619.487 107.684C621.676 108.669 623.776 109.787 626.1 111.264C627.753 112.293 629.362 113.724 631.105 115.111C632.937 116.543 634.858 117.974 637.092 118.959C637.673 119.182 638.254 119.406 638.969 119.585C639.282 119.719 639.639 119.764 639.997 119.853C640.175 119.898 640.354 119.898 640.578 119.943C640.622 119.943 640.712 119.988 640.756 119.988C641.337 120.077 642.008 120.122 642.633 120.122C643.125 120.122 643.661 120.077 644.197 120.077C648.442 119.63 650.453 118.332 651.257 116.632C652.777 113.322 649.738 108.534 648.531 105.492C646.61 100.839 646.789 95.784 648.934 91.0864C650.676 87.1942 653.715 83.5256 657.87 80.4386C667.165 73.7278 681.732 70.1935 695.405 71.3567C702.912 72.0278 707.649 70.5067 710.375 67.6881C715.022 69.4777 716.675 70.0593 718.373 70.5514C719.535 70.8646 720.652 71.133 721.814 71.3567C723.467 71.6251 724.674 71.7146 725.835 71.7146C727.176 71.7146 728.516 71.5804 729.812 71.2225C734.191 70.104 736.783 67.2407 739.688 64.8696C740.671 64.0195 741.743 63.2143 742.905 62.4537C748.49 58.8746 755.953 56.3692 763.638 56.9061C764.353 56.9956 765.024 57.0851 765.649 57.2193C765.694 57.2193 765.694 57.2193 765.739 57.264C768.107 57.6219 769.849 57.9798 771.279 58.3377C771.413 58.3825 771.547 58.3825 771.682 58.4272C772.396 58.6062 773.067 58.8299 773.782 59.0088C774.094 59.0536 774.407 59.1878 774.765 59.2773C775.748 59.5457 776.731 59.8589 777.714 60.0826C778.116 60.172 778.518 60.3062 778.965 60.3957C780.082 60.7089 781.244 60.9773 782.406 61.201C782.853 61.2458 783.255 61.2905 783.657 61.38C783.702 61.3352 783.702 61.38 783.746 61.38C785.042 61.5142 786.204 61.5589 787.187 61.5589C789.198 61.5589 790.628 61.2458 791.789 60.6194C793.041 59.9036 793.622 58.8299 794.605 57.9351C794.828 57.7114 795.096 57.4877 795.409 57.3535C795.588 57.2193 795.811 57.0851 796.034 56.9956C796.258 56.9061 796.481 56.7719 796.749 56.6824C796.928 56.5929 797.152 56.5482 797.375 56.4587C797.554 56.414 797.777 56.2798 797.956 56.2798C799.565 55.6982 801.397 55.2955 803.318 55.1613C805.15 55.0271 807.027 55.1166 808.859 55.2955C809.931 55.4297 811.004 55.6087 812.076 55.7876C813.149 55.9666 814.176 56.1903 815.249 56.3692C815.74 56.4587 816.232 56.5482 816.768 56.6377C817.26 56.7719 817.751 56.8166 818.287 56.9508C819.851 57.264 821.415 57.4877 823.069 57.5772C823.247 57.5772 823.426 57.6219 823.649 57.6219C828.922 57.9351 833.48 57.3088 837.948 57.3535C839.512 57.3535 841.121 57.443 842.64 57.6667C842.819 57.7114 842.998 57.7114 843.177 57.7561C843.445 57.8009 843.668 57.8456 843.891 57.8904C844.294 57.9798 844.696 58.0693 845.053 58.1588C845.411 58.2483 845.768 58.3825 846.126 58.472C846.707 58.6509 847.243 58.8299 847.69 59.0536C848.405 59.3667 849.03 59.7246 849.522 60.172C849.745 60.351 849.969 60.4852 850.147 60.7089C853.722 64.3775 850.326 69.254 852.024 73.4594C854.214 78.7833 863.597 81.1097 869.719 84.9125C869.942 85.0914 870.211 85.2257 870.434 85.3599C872.087 86.4783 873.472 87.8205 873.875 89.3416C874.053 90.0574 874.009 90.818 873.696 91.4891C873.249 92.5181 872.266 93.4128 870.791 93.9049C869.093 94.4865 867.083 94.3971 865.25 94.7997C864.938 94.8445 864.67 94.9339 864.402 95.0234C862.48 95.6498 860.871 96.7682 860.291 97.9762C859.933 98.8262 860.067 99.6762 860.871 100.437C861.676 101.197 862.346 102.003 862.882 102.853C862.927 102.987 863.016 103.076 863.061 103.211C863.195 103.434 863.284 103.658 863.374 103.926C863.418 104.016 863.463 104.15 863.553 104.284C864.402 106.163 864.58 108.177 864.133 110.1C864.089 110.414 863.955 110.771 863.821 111.085C863.731 111.398 863.597 111.711 863.418 112.069C863.195 112.427 862.972 112.785 862.748 113.053C862.703 113.098 862.704 113.143 862.704 113.143C861.005 115.558 859.754 116.811 859.173 118.153C859.129 118.332 859.129 118.556 859.129 118.735C859.129 120.748 860.201 122.314 861.854 123.522C864.357 125.401 868.2 126.564 871.73 127.369C874.947 128.085 876.332 128.398 877.762 128.712C880.443 129.293 881.471 129.472 882.499 129.696C883.035 129.785 883.571 129.875 884.063 129.964C887.414 130.501 890.497 130.949 893.402 131.217C894.251 131.262 895.055 131.351 895.904 131.396C900.328 131.664 904.394 131.53 908.416 130.859C908.952 130.77 909.399 130.68 909.89 130.546C910.069 130.501 910.292 130.501 910.471 130.456C913.42 129.875 915.386 129.472 917.174 129.383C923.072 131.485 922.983 133.051 923.072 134.438V134.483C923.43 140.791 927.764 146.831 934.869 151.126C938.131 153.005 942.018 154.705 943.403 157.389C945.727 161.908 939.695 166.739 940.856 171.482C941.437 174.077 944.208 176.269 946.799 178.237C947.202 178.55 947.559 178.819 948.006 179.087C948.185 179.222 948.363 179.356 948.587 179.445C951.223 181.324 954.262 183.159 957.524 184.501C959.356 185.216 961.232 185.798 963.154 186.111C965.746 186.514 967.801 186.559 969.812 186.201C970.661 185.977 971.421 185.709 972.091 185.485C973.789 184.948 975.04 184.411 976.112 183.919C976.291 183.83 976.425 183.785 976.559 183.74C976.738 183.651 976.917 183.561 977.14 183.472C977.185 183.427 977.185 183.427 977.229 183.427C977.453 183.337 977.676 183.248 977.9 183.114C978.213 183.024 978.481 182.89 978.793 182.801C978.838 182.756 978.972 182.756 979.017 182.711C980.715 182.174 982.413 181.951 984.111 181.951C985.228 181.951 986.39 182.085 987.552 182.264C987.596 182.264 987.686 182.308 987.73 182.308C991.439 182.935 995.103 184.456 998.857 185.932C999.661 186.245 1000.51 186.559 1001.27 186.872C1004.22 187.99 1007.21 189.064 1010.34 189.601C1013.29 190.093 1016.24 190.182 1019.14 189.914C1020.26 189.825 1021.29 189.69 1022.41 189.511C1023.66 189.332 1024.91 189.064 1026.16 188.84C1031.39 187.722 1036.53 186.022 1041.57 184.724C1042.74 184.545 1043.81 184.322 1044.79 184.143C1044.84 184.143 1044.84 184.098 1044.84 184.143C1047.25 183.695 1049.31 183.427 1051.05 183.203C1054.67 182.801 1057.13 182.756 1059.45 183.024C1062.93 183.561 1063.96 183.785 1064.9 184.098C1066.46 184.59 1067.85 185.261 1069.01 186.111C1069.46 186.559 1069.86 187.096 1070.17 187.543C1071.96 189.825 1072.72 191.927 1073.7 193.762C1073.84 194.03 1073.97 194.298 1074.15 194.522C1074.33 194.88 1074.6 195.238 1074.86 195.596C1075.31 196.133 1075.85 196.625 1076.56 197.117C1078.57 198.459 1081.48 198.996 1083.89 200.07C1086.08 201.009 1087.87 202.351 1089.83 203.515C1091 204.23 1092.25 204.991 1093.59 205.528C1094.3 205.662 1094.97 205.751 1095.6 205.841C1103.69 206.825 1109.27 203.828 1115.26 203.425C1116.69 203.336 1118.07 203.38 1119.37 203.515C1120.58 203.783 1121.65 204.051 1122.59 204.275C1124.15 204.678 1125.4 204.991 1126.43 205.349C1126.74 205.483 1127.1 205.573 1127.41 205.662C1128.53 206.065 1129.38 206.378 1130.27 206.78C1130.85 207.004 1131.48 207.273 1132.06 207.496C1132.37 207.631 1132.69 207.765 1133 207.854C1135.23 208.749 1137.47 209.599 1139.84 210.136C1141.27 210.315 1142.52 210.494 1143.68 210.673C1147.79 211.254 1150.02 211.433 1151.68 211.568C1152.44 211.612 1153.06 211.612 1153.69 211.657C1154.4 211.702 1155.16 211.702 1155.83 211.746C1158.78 211.881 1161.64 212.06 1164.41 212.507C1168.08 213.223 1169.77 213.76 1171.34 214.386C1171.74 214.565 1172.14 214.744 1172.5 214.968C1172.59 215.012 1172.68 215.057 1172.81 215.147C1172.99 215.236 1173.21 215.326 1173.39 215.505C1173.75 215.728 1174.15 215.997 1174.6 216.31C1175.27 216.757 1175.94 217.115 1176.57 217.607C1177.77 218.591 1178.89 219.62 1180.01 220.694C1180.45 221.142 1180.95 221.589 1181.39 222.036C1181.79 222.439 1182.2 222.797 1182.6 223.155C1185.46 225.794 1188.45 228.166 1192.61 229.15C1193.32 229.195 1193.99 229.284 1194.62 229.329C1197.39 229.508 1199.27 229.463 1200.87 229.329C1201.72 229.239 1202.53 229.105 1203.29 229.016C1203.65 228.926 1204 228.926 1204.4 228.881C1204.72 228.837 1204.99 228.792 1205.25 228.792C1207.26 228.479 1209.23 228.3 1211.06 228.389C1211.64 228.568 1212.14 228.702 1212.63 228.926C1212.67 228.926 1212.67 228.926 1212.67 228.926C1216.69 230.447 1218.17 232.013 1218.88 233.579C1218.97 233.847 1219.06 234.116 1219.15 234.384C1219.2 234.518 1219.24 234.653 1219.28 234.787C1220.71 238.679 1220.22 242.706 1218.48 246.419Z" fill="url(#paint2_linear)"></path> </mask> <g mask="url(#mask0)"> <path d="M1136.49 257.557C1136.03 258.516 1135.49 259.475 1134.84 260.396C1134.54 260.856 1134.19 261.317 1133.81 261.739C1133.42 262.199 1133.04 262.621 1132.62 263.043H1132.58C1132.2 263.465 1131.78 263.849 1131.35 264.232C1128.32 266.994 1124.61 269.756 1123.34 272.787C1122.84 273.823 1122.73 274.897 1122.96 276.048C1123.46 278.234 1125.53 280.114 1126.29 282.262C1127.67 286.137 1124.53 290.165 1124.34 294.193C1124.18 298.643 1127.63 302.709 1129.9 306.89C1133.77 314.141 1133.88 322.235 1130.47 329.677C1129.51 331.749 1128.25 333.782 1126.71 335.739C1125.26 337.58 1123.46 339.421 1120.73 340.457C1113.95 343.104 1105.36 339.843 1097.58 340.572C1091.02 341.186 1085.89 344.447 1081.29 347.516C1079.18 348.935 1077.03 350.393 1074.96 351.889C1068.79 356.262 1063.11 360.942 1059.66 366.39C1059.2 367.118 1058.82 367.924 1058.44 368.691C1057.33 371.031 1056.71 373.717 1056.75 376.325C1056.79 378.358 1057.71 380.392 1057.29 382.425C1056.37 386.798 1052.76 386.338 1049.2 386.99C1046.13 387.565 1043.1 388.102 1040.04 388.678C1033.94 389.79 1027.69 390.941 1022.06 392.898C1014.77 395.429 1008.68 399.227 1002.04 402.411C985.714 410.275 966.009 414.534 947.416 419.943C934.88 423.625 921.385 428.114 911.839 434.75C909.079 436.668 906.664 438.778 903.635 440.504C899.917 442.576 894.971 443.497 891.368 445.607C887.956 447.64 884.889 450.133 883.586 453.01C881.515 457.729 882.934 462.716 884.352 467.511C887.879 479.211 893.86 492.868 911.456 496.589C919.928 498.124 927.519 497.587 934.918 497.318C938.943 497.203 945.115 497.395 950.597 498.392C958.15 499.697 964.399 502.535 961.907 508.098C960.718 510.745 957.153 512.855 953.089 513.814C948.642 514.888 942.624 514.811 938.023 513.967C934.841 513.353 932.541 512.778 930.203 512.356C926.791 511.742 923.302 511.435 919.622 512.087C908.888 514.006 904.939 522.56 896.045 526.934C882.972 533.378 860.392 530.233 851.996 539.324C848.239 543.352 848.776 548.8 844.022 552.367C840.189 555.244 833.978 556.165 828.266 556.472C820.139 556.894 811.897 556.395 804.076 555.014C801.929 554.631 799.821 554.17 797.75 553.672C794.683 552.943 791.54 551.945 790.083 550.027C788.78 548.416 789.125 546.421 789.853 544.657C793.073 536.946 804.153 530.309 802.504 522.445C801.929 519.645 799.744 517.113 797.597 514.658C792.575 508.942 786.441 502.727 776.742 501.039C770.072 500.157 763.593 500.579 758.647 499.697C755.772 499.198 753.472 498.277 752.284 496.398C750.098 492.983 754.315 489.186 758.609 486.654C766.736 481.858 776.435 478.137 786.825 475.797C788.243 475.49 789.623 475.183 791.042 474.877C798.21 473.342 804.689 471.808 806.683 466.782C807.756 463.982 806.108 461.795 802.581 460.146C799.552 458.688 795.834 457.691 791.923 457C786.901 456.118 781.534 455.734 776.742 455.657C760.564 455.312 742.738 459.263 728.055 456.655C724.873 456.118 721.806 455.235 718.969 453.931C714.944 452.09 711.647 449.213 712.03 446.029C712.222 444.571 713.219 443.19 714.292 441.885C717.091 438.471 720.733 435.287 722.841 431.643C724.95 427.999 725.371 423.702 721.883 420.595C720.464 419.367 718.356 418.523 716.056 418.101C712.567 417.487 708.733 417.948 706.472 419.712C704.67 421.17 704.171 423.127 702.216 424.469C700.146 425.889 696.849 426.272 693.974 425.774C692.901 425.62 691.904 425.275 691.06 424.891C687.84 423.395 687.38 419.827 683.355 419.099C681.055 418.715 679.789 419.597 678.256 420.518C669.439 425.85 660.545 431.144 652.992 437.244C649.81 439.814 647.395 442.576 644.405 445.146C641.261 447.832 637.083 449.903 633.479 452.32C629.492 455.082 626.31 458.266 622.668 461.22C619.371 463.867 615.729 466.092 611.206 467.856C607.487 469.314 604.075 468.01 600.28 469.007C595.871 470.196 594.529 473.956 590.542 475.682C584.792 478.214 575.016 475.874 571.451 479.71C569.841 481.436 570.492 483.623 571.183 485.58C572.103 488.265 575.4 494.364 573.636 497.05C571.988 499.62 567.732 498.469 565.317 498.316C561.752 498.124 558.225 497.894 554.66 497.74C550.941 497.548 547.031 497.395 543.619 498.392C540.36 499.39 538.06 501.346 535.185 502.689C534.686 502.919 534.188 503.149 533.69 503.303C533.153 503.494 532.616 503.686 532.079 503.84C529.779 504.569 527.211 504.952 524.604 505.067C524.259 505.106 523.875 505.106 523.53 505.106C523.147 505.144 522.725 505.144 522.304 505.144C521.115 505.144 519.888 505.106 518.7 504.991C518.47 504.952 518.24 504.952 518.01 504.952C516.822 504.799 515.595 504.684 514.406 504.453C513.371 504.3 512.336 504.07 511.378 503.84C508.196 503.111 505.206 502.113 502.292 501.001C501.334 500.656 500.414 500.31 499.494 499.927C498.497 499.543 497.423 499.083 496.197 498.584C496.12 498.546 496.043 498.546 495.928 498.469C495.66 498.392 495.43 498.277 495.2 498.201C494.97 498.085 494.74 498.009 494.548 497.894C494.011 497.663 493.513 497.395 493.13 497.05C492.976 496.935 492.823 496.781 492.67 496.666C492.516 496.513 492.401 496.321 492.286 496.167C491.788 495.4 491.903 494.556 492.248 493.712C494.165 490.26 496.963 487.536 499.992 485.042C501.794 483.585 503.711 482.165 505.551 480.784C514.138 474.224 521.729 467.166 529.281 460.069C531.888 457.652 534.571 454.852 535.836 452.051C536.872 449.865 537.025 447.64 535.683 445.53C534.265 443.382 531.428 441.694 530.163 439.469C529.549 438.433 529.626 437.205 530.124 436.093C530.546 435.211 531.274 434.367 532.194 433.791C532.348 433.714 532.463 433.638 532.578 433.523C533.038 433.254 533.575 433.024 534.111 432.909C535.031 432.602 536.028 432.525 537.063 432.64C537.102 432.64 537.102 432.64 537.14 432.679C537.178 432.679 537.178 432.679 537.178 432.717C537.217 432.679 537.217 432.679 537.217 432.717C539.517 433.139 541.05 434.213 542.545 435.287C543.082 435.709 543.657 436.131 544.27 436.476C545.229 437.09 546.264 437.627 547.491 437.819C547.682 437.819 547.874 437.857 548.104 437.857C548.142 437.857 548.142 437.896 548.181 437.857C552.819 437.857 555.465 435.211 559.03 434.136C559.298 434.021 559.567 433.983 559.873 433.868C559.988 433.83 560.103 433.791 560.218 433.753H560.333C560.333 433.753 560.333 433.753 560.372 433.753C565.547 434.136 568.346 435.095 570.301 436.17C570.454 436.246 570.684 436.4 570.837 436.515C570.991 436.63 571.221 436.745 571.374 436.898C571.681 437.09 571.988 437.282 572.256 437.512C574.211 439.047 576.243 440.658 578.735 441.732C579.387 442.001 580.077 442.231 581.227 442.461C581.303 442.499 581.418 442.499 581.533 442.538C581.648 442.538 581.725 442.576 581.84 442.576C585.06 442.845 587.936 442.269 590.197 441.195C590.466 441.08 590.772 440.926 591.041 440.773C591.424 440.581 591.769 440.313 592.114 440.044C592.498 439.776 592.804 439.507 593.111 439.2C593.418 438.932 593.686 438.625 593.954 438.318C594.491 437.627 594.913 436.937 595.258 436.208C596.216 434.06 596.408 431.758 596.446 429.495C596.485 421.746 594.759 413.306 585.98 408.127C581.725 405.595 575.898 403.869 573.904 400.416C571.604 396.427 575.361 391.747 573.138 387.719C570.607 383.192 561.752 381.658 556.806 378.013C551.938 374.446 551.401 369.152 552.551 364.395C553.356 360.827 554.966 357.298 555.848 353.692C556.001 353.078 556.116 352.464 556.231 351.85C556.308 351.237 556.385 350.661 556.423 350.009C556.461 349.472 556.5 348.82 556.538 348.206C556.538 347.247 556.461 346.365 556.001 345.866C553.74 345.866 552.513 345.904 551.631 345.866C551.324 345.866 551.018 345.866 550.673 345.828C546.149 344.638 544.654 343.948 543.657 343.257C543.504 343.181 543.389 343.066 543.274 342.989C540.628 340.956 538.942 338.424 536.143 336.467C535.798 336.237 535.491 336.045 535.108 335.854C534.878 335.739 534.686 335.623 534.456 335.508C533.268 334.856 531.926 334.319 530.546 333.897C530.201 333.82 529.856 333.705 529.473 333.59C529.128 333.475 528.783 333.398 528.399 333.322C527.249 333.015 526.061 332.708 524.872 332.516C524.604 332.478 524.297 332.401 524.029 332.363C523.722 332.324 523.415 332.248 523.147 332.209C522.419 332.094 521.652 331.941 520.885 331.826C520.157 331.711 519.39 331.557 518.585 331.442C517.052 331.212 515.518 330.943 513.985 330.713C511.685 330.291 509.423 329.831 507.314 329.217C495.43 325.764 488.338 317.632 476.913 313.604C474.383 312.721 471.738 312.031 468.978 311.532C468.249 311.417 467.636 311.302 467.023 311.187C465.949 310.995 464.837 310.803 463.726 310.688C463.189 310.612 462.691 310.535 462.231 310.496C462.001 310.458 461.771 310.458 461.541 310.42C459.47 310.151 457.324 309.959 455.253 309.729C448.43 309 440.992 308.387 434.82 310.458C427.651 312.875 423.664 318.591 416.495 320.739C413.083 321.468 410.438 321.698 408.061 321.813C407.64 321.852 407.218 321.852 406.758 321.852C405.876 321.89 405.033 321.928 404.151 322.005C394.299 323.079 387.283 328.642 379.232 332.439C368.843 337.311 355.464 339.46 342.89 338.27C336.794 337.695 330.2 336.429 324.871 338.424C323.875 338.807 322.955 339.268 322.035 339.805C321.766 339.958 321.46 340.188 321.191 340.342C320.041 341.071 318.968 341.838 317.779 342.529C317.511 342.644 317.281 342.759 317.051 342.835C317.051 342.874 317.012 342.835 317.012 342.835C314.406 343.948 311.914 344.6 309.422 344.907C309.345 344.907 309.23 344.945 309.115 344.945C306.7 345.214 304.361 345.137 302.138 344.83C301.831 344.792 301.525 344.715 301.256 344.638C301.218 344.677 301.218 344.638 301.18 344.638C298.956 344.178 297.308 343.718 295.966 343.181C295.084 342.797 294.164 342.375 293.244 341.838C292.861 341.57 292.554 341.339 292.286 341.109C291.826 340.802 291.404 340.38 291.02 339.997C290.599 339.575 290.215 339.114 289.87 338.616C289.525 338.117 289.18 337.657 288.835 337.158C288.145 336.199 287.455 335.201 286.573 334.281C286.305 333.936 285.96 333.667 285.615 333.398C285.347 333.13 285.04 332.938 284.733 332.746C284.695 332.708 284.695 332.708 284.657 332.708C284.657 332.67 284.618 332.67 284.618 332.67C282.701 331.749 281.666 331.365 280.861 331.135C280.478 331.02 280.056 330.943 279.558 330.867C279.136 330.79 278.714 330.713 278.254 330.713C275.839 330.445 273.309 330.445 270.741 330.598C270.51 330.56 270.28 330.598 270.05 330.636C269.13 330.675 268.21 330.713 267.252 330.79C264.3 330.943 261.386 331.173 258.588 331.135C257.975 331.135 257.399 331.097 256.824 331.097C256.249 331.058 255.674 331.02 255.138 330.943C254.294 330.867 253.374 330.751 252.339 330.598C252.147 330.56 251.956 330.521 251.726 330.521C251.611 330.483 251.534 330.483 251.457 330.483C251.189 330.445 250.959 330.406 250.691 330.33C250.307 330.253 249.886 330.176 249.502 330.061C247.317 329.562 245.285 329.025 243.33 328.45C240.8 327.683 238.346 326.8 235.893 325.841C235.088 325.573 234.321 325.227 232.979 324.729C230.181 323.655 227.382 322.58 224.584 321.621C223.855 321.353 223.088 321.123 222.322 320.893C221.823 320.739 221.287 320.586 220.788 320.432C219.101 319.933 217.3 319.511 215.229 319.128C214.539 319.013 213.888 318.898 213.236 318.821C211.818 318.629 210.514 318.514 209.249 318.437C208.751 318.399 208.176 318.399 207.639 318.399C207.025 318.361 206.45 318.399 205.837 318.437C205.53 318.437 205.185 318.437 204.879 318.476C204.725 318.514 204.534 318.514 204.38 318.514C197.135 319.32 191.001 321.583 184.675 320.931C184.292 320.854 183.909 320.777 183.564 320.662C183.564 320.662 183.525 320.662 183.525 320.624C177.43 319.128 173.289 316.212 169.034 313.719C168.267 313.22 167.462 312.76 166.657 312.338C164.779 311.34 162.785 310.496 160.485 309.921C155.731 308.77 148.869 308.387 148.218 305.126C147.374 301.098 150.518 300.1 146.109 296.533C144.116 294.922 143.042 293.349 142.697 291.738C142.429 290.357 142.659 288.976 143.31 287.556C143.924 286.137 144.921 284.679 146.186 283.183C151.668 276.508 157.342 269.948 162.939 263.35C164.28 261.739 165.776 260.051 168.229 259.245C169.724 258.708 171.411 258.555 173.136 258.631C173.52 258.67 173.941 258.67 174.325 258.708C174.708 258.746 175.053 258.785 175.475 258.862C175.858 258.9 176.241 258.977 176.625 259.015C178.158 259.284 179.193 259.514 180.267 259.706C181.225 259.897 182.222 260.089 183.18 260.281C183.257 260.281 183.334 260.319 183.41 260.319C183.909 260.434 184.369 260.473 184.752 260.549C185.02 260.588 185.327 260.626 185.595 260.665C185.979 260.703 186.324 260.703 186.707 260.741C188.586 260.703 189.659 260.588 190.426 260.473C190.464 260.473 190.503 260.434 190.541 260.434C190.963 260.358 191.269 260.281 191.614 260.166C191.768 260.128 191.883 260.012 191.998 259.974C192.841 259.514 193.416 259.13 193.838 258.746C193.914 258.631 194.029 258.555 194.106 258.44C194.144 258.401 194.259 258.286 194.298 258.209C194.451 258.018 194.566 257.826 194.643 257.634C195.371 256.138 195.026 254.373 194.144 252.915C192.688 250.652 190.119 248.849 188.279 246.739C184.139 242.059 184.024 236.228 186.439 230.934C186.976 229.707 187.666 228.517 188.509 227.328C192.841 221.19 200.163 216.05 207.677 211.293C218.258 204.541 235.394 200.782 242.142 192.266C247.47 185.552 262.92 186.089 272.121 181.448C276.108 179.453 278.561 176.729 279.903 173.698C281.935 169.249 281.705 164.108 280.746 159.466C278.523 149.185 274.152 139.096 267.75 129.582C265.91 126.859 263.878 124.135 263.112 121.181C262.268 117.959 262.92 114.775 264.3 111.668C265.412 109.136 266.293 106.259 269.514 106.872C273.922 107.678 278.561 110.171 282.816 111.706C284.695 112.396 286.803 113.049 288.95 113.432C291.71 113.701 293.474 113.701 294.816 113.432C295.084 113.394 295.314 113.317 295.582 113.24C295.928 113.125 296.273 112.972 296.618 112.818C298.036 112.09 298.803 111.169 299.301 110.056C299.608 109.404 299.799 108.714 300.029 107.946C300.298 106.757 300.566 105.53 301.103 104.417C301.141 104.34 301.218 104.264 301.295 104.149C303.825 100.581 308.847 98.9698 314.252 98.2409C315.096 98.1258 315.901 98.0491 316.744 97.9724C317.434 97.934 318.124 97.8573 318.776 97.8189C319.773 97.7806 320.769 97.7422 321.728 97.7039C341.969 97.3202 362.249 98.5862 381.954 101.463C384.331 101.77 386.631 102.154 388.97 102.537C390.235 102.729 391.5 102.959 392.995 103.228C393.647 103.343 394.337 103.458 395.065 103.573C398.554 104.187 401.851 104.801 405.033 105.415C408.138 106.028 411.243 106.604 414.31 107.179C425.006 109.212 435.817 111.284 445.324 114.967C449.733 116.655 453.988 118.688 458.282 120.721C461.847 122.447 465.413 124.173 469.055 125.746C469.898 126.092 470.703 126.437 471.508 126.782C475.035 128.201 478.6 129.429 482.281 130.235C483.124 130.426 484.006 130.618 485.271 130.848C485.884 130.963 486.536 131.04 487.188 131.117C489.104 131.347 491.06 131.501 493.053 131.501C494.011 131.501 495.008 131.462 495.967 131.424C499.494 131.04 501.564 130.695 503.097 130.465C503.174 130.465 503.251 130.426 503.366 130.388C503.787 130.35 504.209 130.235 504.631 130.158C504.899 130.12 505.206 130.043 505.474 130.004C506.126 129.851 506.777 129.736 507.429 129.582C508.158 129.429 508.886 129.276 509.614 129.084C510.343 128.93 511.071 128.739 511.8 128.585C512.911 128.317 514.023 128.086 515.096 127.895C520.195 126.82 524.681 126.245 528.706 126.744C528.859 126.82 529.051 126.897 529.204 126.974C538.405 131.079 540.36 132.997 543.465 133.534C543.657 133.572 543.849 133.572 544.079 133.572C550.443 133.802 554.315 129.314 559.95 128.739C560.103 128.777 560.257 128.777 560.448 128.777C564.934 129.276 567.234 130.388 569.036 131.731C569.304 131.884 569.534 132.114 569.764 132.345C570.032 132.613 570.301 132.843 570.569 133.073C571.183 133.687 571.834 134.263 572.448 134.915C573.483 135.912 574.518 136.948 575.668 137.869C576.243 138.329 576.856 138.751 577.47 139.173C578.198 139.633 578.965 140.017 579.885 140.362C580.307 140.516 580.767 140.707 581.227 140.822C581.687 140.976 582.185 141.091 582.722 141.168C583.105 141.206 583.45 141.283 583.872 141.283C584.102 141.321 584.332 141.321 584.562 141.321C586.057 141.436 587.476 141.283 588.894 140.976C589.277 140.899 589.699 140.822 590.082 140.707C590.887 140.477 591.692 140.247 592.498 139.979C593.303 139.71 594.108 139.403 594.913 139.135C596.523 138.521 598.095 137.907 599.743 137.332C600.855 136.948 602.005 136.603 603.155 136.296C603.692 136.142 604.228 136.027 604.765 135.951C607.372 135.682 609.212 135.567 610.784 135.682C611.052 135.682 611.282 135.72 611.589 135.72C612.317 135.759 612.931 135.835 613.583 135.912C613.774 135.951 613.966 135.989 614.119 136.027H614.158C614.924 136.181 615.576 136.334 616.228 136.488C616.764 136.603 617.301 136.756 617.838 136.871C618.605 137.101 619.256 137.293 619.908 137.523C620.828 137.869 621.71 138.252 622.592 138.597C624.47 139.441 626.272 140.4 628.265 141.666C629.684 142.549 631.064 143.776 632.559 144.966C634.131 146.193 635.779 147.421 637.696 148.265C638.194 148.456 638.693 148.648 639.306 148.802C639.575 148.917 639.881 148.955 640.188 149.032C640.341 149.07 640.495 149.07 640.686 149.109C640.725 149.109 640.801 149.147 640.84 149.147C641.338 149.224 641.913 149.262 642.45 149.262C642.872 149.262 643.332 149.224 643.792 149.224C647.434 148.84 649.159 147.728 649.849 146.27C651.152 143.431 648.545 139.326 647.51 136.718C645.862 132.728 646.015 128.393 647.855 124.365C649.35 121.028 651.957 117.882 655.523 115.235C663.496 109.481 675.994 106.45 687.725 107.448C694.166 108.023 698.229 106.719 700.568 104.302C704.555 105.837 705.973 106.335 707.43 106.757C708.427 107.026 709.385 107.256 710.382 107.448C711.8 107.678 712.835 107.755 713.832 107.755C714.982 107.755 716.132 107.64 717.244 107.333C721.001 106.374 723.225 103.918 725.716 101.885C726.56 101.156 727.48 100.466 728.477 99.8137C733.269 96.7448 739.671 94.5965 746.265 95.0569C746.878 95.1336 747.453 95.2103 747.99 95.3254C748.028 95.3254 748.028 95.3254 748.066 95.3638C750.098 95.6707 751.593 95.9776 752.82 96.2845C752.935 96.3228 753.05 96.3228 753.165 96.3612C753.779 96.5146 754.354 96.7064 754.967 96.8599C755.235 96.8983 755.504 97.0133 755.81 97.0901C756.654 97.3202 757.497 97.5888 758.341 97.7806C758.686 97.8573 759.031 97.9724 759.414 98.0491C760.372 98.3176 761.369 98.5478 762.366 98.7396C762.749 98.778 763.094 98.8163 763.439 98.8931C763.478 98.8547 763.478 98.8931 763.516 98.8931C764.628 99.0082 765.625 99.0465 766.468 99.0465C768.193 99.0465 769.42 98.778 770.417 98.2409C771.49 97.6271 771.988 96.7064 772.832 95.9392C773.023 95.7474 773.253 95.5556 773.522 95.4405C773.675 95.3254 773.867 95.2103 774.059 95.1336C774.25 95.0569 774.442 94.9418 774.672 94.8651C774.825 94.7884 775.017 94.75 775.209 94.6733C775.362 94.6349 775.554 94.5198 775.707 94.5198C777.087 94.0211 778.659 93.6759 780.307 93.5608C781.879 93.4457 783.489 93.5224 785.061 93.6759C785.981 93.791 786.901 93.9444 787.821 94.0978C788.741 94.2513 789.623 94.4431 790.543 94.5965C790.965 94.6733 791.387 94.75 791.847 94.8267C792.268 94.9418 792.69 94.9802 793.15 95.0953C794.492 95.3638 795.834 95.5556 797.252 95.6323C797.405 95.6323 797.559 95.6707 797.75 95.6707C802.274 95.9392 806.184 95.4021 810.018 95.4405C811.36 95.4405 812.74 95.5172 814.043 95.709C814.197 95.7474 814.35 95.7474 814.503 95.7858C814.733 95.8241 814.925 95.8625 815.117 95.9008C815.462 95.9776 815.807 96.0543 816.114 96.131C816.42 96.2077 816.727 96.3228 817.034 96.3996C817.532 96.553 817.992 96.7064 818.375 96.8983C818.989 97.1668 819.525 97.4737 819.947 97.8573C820.139 98.0107 820.331 98.1258 820.484 98.3176C823.551 101.463 820.637 105.645 822.094 109.251C823.972 113.816 832.023 115.811 837.275 119.071C837.467 119.225 837.697 119.34 837.889 119.455C839.307 120.414 840.495 121.565 840.84 122.869C840.994 123.483 840.956 124.135 840.687 124.711C840.304 125.593 839.46 126.36 838.195 126.782C836.738 127.281 835.013 127.204 833.442 127.549C833.173 127.588 832.943 127.664 832.713 127.741C831.065 128.278 829.685 129.237 829.186 130.273C828.88 131.002 828.995 131.731 829.685 132.383C830.375 133.035 830.95 133.726 831.41 134.454C831.448 134.569 831.525 134.646 831.563 134.761C831.678 134.953 831.755 135.145 831.831 135.375C831.87 135.452 831.908 135.567 831.985 135.682C832.713 137.293 832.867 139.019 832.483 140.669C832.445 140.938 832.33 141.244 832.215 141.513C832.138 141.782 832.023 142.05 831.87 142.357C831.678 142.664 831.486 142.971 831.295 143.201C831.256 143.239 831.256 143.278 831.256 143.278C829.8 145.349 828.726 146.423 828.228 147.574C828.189 147.728 828.19 147.919 828.19 148.073C828.19 149.799 829.11 151.142 830.528 152.178C832.675 153.789 835.972 154.786 839 155.477C841.761 156.09 842.949 156.359 844.176 156.628C846.476 157.126 847.358 157.28 848.239 157.471C848.699 157.548 849.159 157.625 849.581 157.702C852.456 158.162 855.102 158.546 857.593 158.776C858.322 158.814 859.012 158.891 859.74 158.929C863.536 159.159 867.024 159.044 870.474 158.469C870.935 158.392 871.318 158.315 871.74 158.2C871.893 158.162 872.085 158.162 872.238 158.124C874.768 157.625 876.455 157.28 877.988 157.203C883.049 159.006 882.972 160.349 883.049 161.538V161.576C883.355 166.985 887.074 172.164 893.17 175.847C895.968 177.458 899.303 178.916 900.492 181.217C902.485 185.092 897.31 189.235 898.307 193.301C898.805 195.526 901.182 197.406 903.405 199.094C903.75 199.362 904.057 199.593 904.44 199.823C904.594 199.938 904.747 200.053 904.939 200.13C907.201 201.741 909.808 203.314 912.606 204.465C914.178 205.078 915.788 205.577 917.437 205.846C919.66 206.191 921.423 206.229 923.149 205.922C923.877 205.731 924.529 205.5 925.104 205.309C926.561 204.848 927.634 204.388 928.554 203.966C928.707 203.889 928.822 203.851 928.937 203.812C929.091 203.736 929.244 203.659 929.436 203.582C929.474 203.544 929.474 203.544 929.513 203.544C929.704 203.467 929.896 203.39 930.088 203.275C930.356 203.199 930.586 203.084 930.854 203.007C930.893 202.968 931.008 202.968 931.046 202.93C932.503 202.47 933.959 202.278 935.416 202.278C936.375 202.278 937.371 202.393 938.368 202.547C938.406 202.547 938.483 202.585 938.522 202.585C941.703 203.122 944.847 204.426 948.067 205.692C948.757 205.961 949.486 206.229 950.137 206.498C952.668 207.457 955.236 208.378 957.92 208.838C960.45 209.26 962.98 209.337 965.472 209.106C966.43 209.03 967.312 208.915 968.271 208.761C969.344 208.608 970.417 208.378 971.491 208.186C975.976 207.227 980.385 205.769 984.717 204.656C985.714 204.503 986.634 204.311 987.477 204.158C987.515 204.158 987.515 204.119 987.515 204.158C989.586 203.774 991.349 203.544 992.844 203.352C995.949 203.007 998.058 202.968 1000.05 203.199C1003.04 203.659 1003.92 203.851 1004.73 204.119C1006.07 204.541 1007.26 205.117 1008.26 205.846C1008.64 206.229 1008.98 206.69 1009.25 207.073C1010.79 209.03 1011.44 210.833 1012.28 212.405C1012.4 212.636 1012.51 212.866 1012.66 213.058C1012.82 213.365 1013.05 213.671 1013.28 213.978C1013.66 214.439 1014.12 214.861 1014.73 215.283C1016.46 216.433 1018.95 216.894 1021.02 217.814C1022.9 218.62 1024.43 219.771 1026.12 220.768C1027.12 221.382 1028.19 222.034 1029.34 222.495C1029.95 222.61 1030.53 222.686 1031.07 222.763C1038 223.607 1042.8 221.037 1047.93 220.692C1049.16 220.615 1050.35 220.653 1051.46 220.768C1052.5 220.999 1053.42 221.229 1054.22 221.42C1055.56 221.766 1056.64 222.034 1057.52 222.341C1057.79 222.456 1058.09 222.533 1058.36 222.61C1059.32 222.955 1060.05 223.223 1060.81 223.569C1061.31 223.761 1061.85 223.991 1062.35 224.183C1062.62 224.298 1062.88 224.413 1063.15 224.489C1065.07 225.257 1066.99 225.986 1069.02 226.446C1070.25 226.599 1071.32 226.753 1072.32 226.906C1075.84 227.405 1077.76 227.558 1079.18 227.673C1079.83 227.712 1080.37 227.712 1080.9 227.75C1081.52 227.789 1082.17 227.789 1082.74 227.827C1085.27 227.942 1087.73 228.095 1090.1 228.479C1093.25 229.093 1094.7 229.553 1096.05 230.09C1096.39 230.244 1096.74 230.397 1097.04 230.589C1097.12 230.627 1097.2 230.666 1097.31 230.742C1097.46 230.819 1097.66 230.896 1097.81 231.049C1098.12 231.241 1098.46 231.471 1098.84 231.74C1099.42 232.123 1099.99 232.43 1100.53 232.852C1101.57 233.696 1102.52 234.579 1103.48 235.499C1103.87 235.883 1104.29 236.266 1104.67 236.65C1105.02 236.995 1105.36 237.302 1105.71 237.609C1108.16 239.872 1110.73 241.906 1114.29 242.75C1114.91 242.788 1115.48 242.865 1116.02 242.903C1118.4 243.057 1120.01 243.018 1121.39 242.903C1122.11 242.826 1122.8 242.711 1123.46 242.635C1123.76 242.558 1124.07 242.558 1124.41 242.519C1124.68 242.481 1124.91 242.443 1125.14 242.443C1126.87 242.174 1128.55 242.021 1130.13 242.097C1130.63 242.251 1131.05 242.366 1131.47 242.558C1131.51 242.558 1131.51 242.558 1131.51 242.558C1134.96 243.862 1136.22 245.205 1136.84 246.547C1136.91 246.778 1136.99 247.008 1137.07 247.238C1137.1 247.353 1137.14 247.468 1137.18 247.583C1138.41 250.921 1137.99 254.373 1136.49 257.557Z" fill="url(#paint3_linear)"></path> </g> <defs> <filter id="filter0_d" x="20.261" y="25.2351" width="1240.02" height="652.559" filterUnits="userSpaceOnUse" color-interpolation-filters="sRGB"> <feFlood flood-opacity="0" result="BackgroundImageFix"></feFlood> <feColorMatrix in="SourceAlpha" type="matrix" values="0 0 0 0 0 0 0 0 0 0 0 0 0 0 0 0 0 0 127 0"></feColorMatrix> <feOffset dy="10"></feOffset> <feGaussianBlur stdDeviation="20"></feGaussianBlur> <feColorMatrix type="matrix" values="0 0 0 0 0.215686 0 0 0 0 0.552941 0 0 0 0 0.972549 0 0 0 0.3 0"></feColorMatrix> <feBlend mode="normal" in2="BackgroundImageFix" result="effect1_dropShadow"></feBlend> <feBlend mode="normal" in="SourceGraphic" in2="effect1_dropShadow" result="shape"></feBlend> </filter> <linearGradient id="paint0_linear" x1="60.261" y1="55.2351" x2="458.559" y2="931.933" gradientUnits="userSpaceOnUse"> <stop stop-color="#7DB7FF"></stop> <stop offset="1" stop-color="#2481F5"></stop> </linearGradient> <linearGradient id="paint1_linear" x1="78.2112" y1="55.0967" x2="692.674" y2="798.842" gradientUnits="userSpaceOnUse"> <stop stop-color="#FFF500"></stop> <stop offset="1" stop-color="#FFD000"></stop> </linearGradient> <linearGradient id="paint2_linear" x1="78.2112" y1="55.0967" x2="692.674" y2="798.842" gradientUnits="userSpaceOnUse"> <stop stop-color="#FFF500"></stop> <stop offset="1" stop-color="#FFD000"></stop> </linearGradient> <linearGradient id="paint3_linear" x1="1118.72" y1="367.312" x2="220.295" y2="-138.537" gradientUnits="userSpaceOnUse"> <stop stop-color="white" stop-opacity="0.2"></stop> <stop offset="1" stop-color="white" stop-opacity="0"></stop> </linearGradient> </defs> </svg> 