<?xml version="1.0" encoding="UTF-8"?> <svg xmlns="http://www.w3.org/2000/svg" xmlns:xlink="http://www.w3.org/1999/xlink" viewBox="0 0 711.07 265.31"> <defs> <style>.cls-1{fill:url(#linear-gradient);}.cls-2{fill:none;clip-rule:evenodd;}.cls-3{fill:#fff;}.cls-4{clip-path:url(#clip-path);}.cls-5{clip-path:url(#clip-path-2);}.cls-6{mask:url(#mask);}.cls-7{fill-rule:evenodd;}</style> <linearGradient id="linear-gradient" x1="-362.12" y1="436.65" x2="-52.61" y2="763.66" gradientTransform="translate(284.09 -501.36)" gradientUnits="userSpaceOnUse"> <stop offset="0" stop-color="#fff"></stop> <stop offset="1"></stop> </linearGradient> <clipPath id="clip-path"> <path class="cls-2" d="M153.63,53.54a84.46,84.46,0,0,1-4.19,114.53l-44,44a21.92,21.92,0,0,1-30.94,0l-44-44A84.15,84.15,0,0,1,6.47,98.25c3-24.84,32.75-23.86,28.91,2.21a55.13,55.13,0,1,0,44.91-46.2c-22.19,3.92-27.57-25.6-1.66-29a84.27,84.27,0,0,1,75,28.32"></path> </clipPath> <clipPath id="clip-path-2"> <path class="cls-2" d="M37.48,27.54A20.77,20.77,0,1,0,24.93,62.88a27.35,27.35,0,0,1,29,35A37.49,37.49,0,1,0,79.13,72.64C60.66,78.16,42,63,43.5,43.82a20.71,20.71,0,0,0-6-16.27"></path> </clipPath> <mask id="mask" x="39.28" y="65.9" width="109.54" height="102.4" maskUnits="userSpaceOnUse"> <rect class="cls-1" x="39.28" y="65.9" width="109.54" height="102.4"></rect> </mask> </defs> <title>Ресурс 1</title> <g id="Слой_2" data-name="Слой 2"> <g id="Слой_1-2" data-name="Слой 1"> <rect class="cls-3" x="207.32" width="493.81" height="127.67"></rect> <path d="M268.57,52.9q-9.86,0-10.22,6.34,0,4.93,15.85,7.75,23.25,4.23,33.11,12,8.45,6.34,8.1,20.78-2.47,28.89-46.15,28.89-42.62,0-43.68-34.52h30.29q1.41,11.27,16.56,11.27,12.33,0,12.33-5.64-.35-4.58-10.22-6.69-9.16-2.11-20.08-4.93-26.07-6.69-26.07-26.42,0-30.65,40.86-31.7Q302,30,309.78,50.08a35.31,35.31,0,0,1,2.82,15.15H294.28A15.52,15.52,0,0,1,283,60.3,16.81,16.81,0,0,0,268.57,52.9Z"></path> <path d="M422.87,30q44.39,1.06,44.39,43.33v53.54H452.11q-14.79,0-14.79-14.79V68.4Q436.26,55,423.58,55T409.84,68.4v58.48H379.9V68.4Q379.9,55,366.51,55T352.77,68.4v58.48H322.83V73.33q-.35-44,42.62-43.33,18,0,29.94,7.75A49.45,49.45,0,0,1,422.87,30Z"></path> <path d="M515.18,128.64q-15.15,1.06-25.71-3.87-16.2-7.4-16.2-27.12.7-25.72,33.46-31,9.86-1.76,17.61-2.82Q530,62.76,530,59.24q.35-5.64-13-5.64-11.27,0-12.68,6.69H475.72q1.76-14.44,10.92-21.84,11.27-8.45,29.59-8.63t31,6.87q12,7,11.62,21.14V88.48q-.7,24.66-18.67,34.17Q530.32,127.93,515.18,128.64Zm9.51-44q-2.82.7-12.68,2.82-9.86,2.47-9.86,9.51.35,8.1,9.51,8.1,19,0,18.67-17.61V82.84A52,52,0,0,1,524.69,84.6Z"></path> <path d="M568,81.08q0-52.84,58.12-50.73V60.65H615.23q-8.81,0-13,4.23T598,78.62v48.26H568Z"></path> <path d="M680.76,31.41v8.1q0,14.79-14.09,14.79V98.69a4.69,4.69,0,0,0,.35,2.47q.7.7,3.52.7h10.22v24H678.3a88.28,88.28,0,0,1-13,1.06,108.7,108.7,0,0,1-12-.7,18.14,18.14,0,0,1-10.57-4.58q-6.34-5.28-6.34-15.85V4.29h15.5q14.79,0,14.79,14.79V31.41Z"></path> <path d="M277,167.55a51.2,51.2,0,0,1,21.49,1.76q24.66,7.4,25.36,40.16v53.9H293.58V213.7q0-20.08-17.61-20.08T258.71,213.7v49.67H228.41V140.78h15.5q14.8,0,14.8,14.8V176Q265.75,169.66,277,167.55Z"></path> <path d="M377.08,240.47q8.45,0,12.33-3.87t10.92-3.87h21.14Q412,265.48,376,265.13q-21.84,0-33.82-13.39-12.33-14.09-12.33-36.28t12-35.58q13-13.74,34.17-13.74t34.52,13.39q13.74,17.61,11.63,44H360.87q0,8.1,3.52,11.62A16.57,16.57,0,0,0,377.08,240.47Zm-.71-49.32q-7,0-10.92,3.88-3.17,3.17-4.23,9.16h30.29a16.33,16.33,0,0,0-3.87-9.16A16.85,16.85,0,0,0,376.37,191.15Z"></path> <path d="M468.68,265.13q-15.15,1.06-25.71-3.87-16.2-7.4-16.2-27.12.7-25.72,33.46-31,9.86-1.76,17.61-2.82,5.64-1.06,5.64-4.58.35-5.64-13-5.64-11.27,0-12.68,6.69H429.22q1.76-14.44,10.92-21.84,11.27-8.46,29.59-8.63t31,6.87q12,7,11.62,21.14V225q-.7,24.66-18.67,34.17Q483.83,264.42,468.68,265.13Zm9.51-44q-2.82.7-12.68,2.82-9.86,2.47-9.86,9.51.35,8.1,9.51,8.1,19,0,18.67-17.61v-4.58A51.84,51.84,0,0,1,478.19,221.09Z"></path> <path d="M584.94,140.78h14.44q14.79,0,14.8,14.09v66.58q0,22.19-13,32.94t-35.58,10.74q-22.54,0-34.87-13.39Q519.42,238,519.42,215.81q0-49.32,40.86-50.37,15.85,0,24.66,9.16ZM580,197.14q-4.23-6-12.68-6t-13,6q-4.23,5.64-4.58,18.32-.35,12.33,4.58,18.67a15.69,15.69,0,0,0,12.68,6,16.71,16.71,0,0,0,13-6q4.93-5.64,4.58-19Q584.59,203.48,580,197.14Z"></path> <path d="M664.21,189.39q-9.86,0-10.21,6.34,0,4.93,15.85,7.75,23.25,4.23,33.11,12,8.45,6.34,8.1,20.78-2.47,28.89-46.15,28.89-42.62,0-43.68-34.52h30.29q1.41,11.27,16.56,11.27,12.33,0,12.33-5.64-.35-4.58-10.22-6.69-9.16-2.11-20.08-4.93-26.07-6.69-26.07-26.42,0-30.65,40.86-31.7,32.76,0,40.51,20.08a35.31,35.31,0,0,1,2.82,15.15H689.92a15.52,15.52,0,0,1-11.27-4.93A16.81,16.81,0,0,0,664.21,189.39Z"></path> <g class="cls-4"> <rect x="3.45" y="21.61" width="178.66" height="199.03"></rect> </g> <g class="cls-5"> <rect class="cls-3" y="19.44" width="131.07" height="130.26"></rect> </g> <g class="cls-6"> <path class="cls-7" d="M52.69,151.81A56.31,56.31,0,1,0,124.87,65.9q2.1,1.72,4,3.66A55.13,55.13,0,1,1,39.28,130.3a56.2,56.2,0,0,0,13.41,21.52"></path> </g> <ellipse cx="88.01" cy="246.48" rx="67.13" ry="9.17"></ellipse> <path d="M77,123.79c0,3-2,5-5.52,5s-5.52-2-5.52-5V97.7c0-3,2-5,5.52-5s5.52,2,5.52,5Z"></path> <path d="M85.75,103.22c-3.51,0-5.52-2-5.52-5s2-5,5.52-5h22.08c3.51,0,5.52,2,5.52,5s-2,5-5.52,5h-5.52v20.58c0,3-2,5-5.52,5s-5.52-2-5.52-5V103.22Z"></path> </g> </g> </svg> 