<?xml version="1.0" encoding="UTF-8"?> <svg xmlns="http://www.w3.org/2000/svg" width="343" height="811" viewBox="0 0 343 811" fill="none"> <g filter="url(#filter0_f)"> <path d="M54 739.108C54 727.513 63.8289 718.347 75.396 719.157L264.37 732.38C272.61 732.956 279 739.809 279 748.069V748.069C279 756.755 271.959 763.796 263.273 763.796H74C62.9543 763.796 54 754.842 54 743.796V739.108Z" fill="#DEDFE1"></path> </g> <path d="M0 20.8741C0 8.60948 11.052 -0.732914 23.2229 1.24346L326.223 50.4461C335.896 52.0169 343 60.3286 343 70.0768V791.109C343 802.095 334.046 811 323 811H20C8.9543 811 0 802.095 0 791.109V20.8741Z" fill="white"></path> <path d="M0 21.1302C0 8.45381 11.1066 -1.1859 23.3012 0.90649L80.4304 10.7089C86.9442 11.8265 88.4633 20.7216 82.7075 24.0419L17.8843 61.4351C9.88502 66.0495 0 60.1231 0 50.7128V21.1302Z" fill="url(#paint0_linear)"></path> <path d="M23.1293 30.9994C25.3239 30.9994 26.6491 29.3289 26.6534 26.4525C26.6577 23.5974 25.3153 21.961 23.1293 21.961C20.9389 21.961 19.6094 23.5931 19.6051 26.4525C19.5966 29.3204 20.9304 30.9951 23.1293 30.9994ZM23.1293 29.4695C22.1278 29.4695 21.4801 28.4639 21.4844 26.4525C21.4886 24.471 22.1321 23.4738 23.1293 23.4738C24.1222 23.4738 24.7699 24.471 24.7699 26.4525C24.7741 28.4639 24.1264 29.4695 23.1293 29.4695ZM27.9691 30.8076H34.1907V29.2991H30.5259V29.2394L31.8001 27.9909C33.5941 26.3545 34.0756 25.5363 34.0756 24.5434C34.0756 23.0306 32.8398 21.961 30.9691 21.961C29.1367 21.961 27.8796 23.0562 27.8839 24.7693H29.6353C29.631 23.934 30.1594 23.4227 30.9563 23.4227C31.7234 23.4227 32.2944 23.8999 32.2944 24.667C32.2944 25.3616 31.8683 25.8389 31.0756 26.6017L27.9691 29.4781V30.8076Z" fill="white"></path> <defs> <filter id="filter0_f" x="14" y="679.107" width="305" height="124.689" filterUnits="userSpaceOnUse" color-interpolation-filters="sRGB"> <feFlood flood-opacity="0" result="BackgroundImageFix"></feFlood> <feBlend mode="normal" in="SourceGraphic" in2="BackgroundImageFix" result="shape"></feBlend> <feGaussianBlur stdDeviation="20" result="effect1_foregroundBlur"></feGaussianBlur> </filter> <linearGradient id="paint0_linear" x1="90.4494" y1="14.0483" x2="-5.6004" y2="34.323" gradientUnits="userSpaceOnUse"> <stop stop-color="#FFF500"></stop> <stop offset="1" stop-color="#FFD000"></stop> </linearGradient> </defs> </svg> 