<?xml version="1.0" encoding="UTF-8"?> <svg xmlns="http://www.w3.org/2000/svg" width="343" height="849" viewBox="0 0 343 849" fill="none"> <g filter="url(#filter0_f)"> <path d="M54 781.668C54 770.04 63.882 760.863 75.4783 761.723L263.542 775.661C272.258 776.307 279 783.567 279 792.308V792.308C279 801.527 271.527 809 262.308 809H74C62.9543 809 54 800.046 54 789V781.668Z" fill="#DEDFE1"></path> </g> <path d="M0 20.3442C0 8.43948 11.052 -0.628722 23.2229 1.28965L326.223 49.0482C335.896 50.573 343 58.6407 343 68.1028V767.974C343 778.637 334.046 787.281 323 787.281H20C8.9543 787.281 0 778.637 0 767.974V20.3442Z" fill="white"></path> <path d="M0 22.3451C0 8.91781 11.1066 -1.29287 23.3012 0.923452L80.4304 11.3064C86.9442 12.4903 88.4633 21.9122 82.7075 25.4292L17.8843 65.0373C9.88502 69.925 0 63.6475 0 53.6799V22.3451Z" fill="url(#paint0_linear)"></path> <path d="M23.1293 32.1359C25.3239 32.1359 26.6491 30.4654 26.6534 27.589C26.6577 24.7339 25.3153 23.0975 23.1293 23.0975C20.9389 23.0975 19.6094 24.7296 19.6051 27.589C19.5966 30.4569 20.9304 32.1316 23.1293 32.1359ZM23.1293 30.606C22.1278 30.606 21.4801 29.6003 21.4844 27.589C21.4886 25.6074 22.1321 24.6103 23.1293 24.6103C24.1222 24.6103 24.7699 25.6074 24.7699 27.589C24.7741 29.6003 24.1264 30.606 23.1293 30.606ZM31.195 32.0634C33.1552 32.0634 34.5572 30.9853 34.5529 29.4938C34.5572 28.4072 33.8668 27.6316 32.5842 27.4697V27.4015C33.56 27.2268 34.2333 26.5364 34.229 25.5563C34.2333 24.1799 33.0273 23.0975 31.2205 23.0975C29.4308 23.0975 28.0842 24.1458 28.0586 25.6543H29.8271C29.8484 24.9895 30.4577 24.5591 31.212 24.5591C31.9577 24.5591 32.4563 25.0109 32.4521 25.6671C32.4563 26.3532 31.8725 26.8177 31.033 26.8177H30.2191V28.1728H31.033C32.0217 28.1728 32.6396 28.6671 32.6353 29.3702C32.6396 30.0648 32.043 30.5421 31.1992 30.5421C30.3853 30.5421 29.7759 30.116 29.7418 29.4768H27.8839C27.9137 31.0023 29.2773 32.0634 31.195 32.0634Z" fill="white"></path> <defs> <filter id="filter0_f" x="14" y="721.667" width="305" height="127.333" filterUnits="userSpaceOnUse" color-interpolation-filters="sRGB"> <feFlood flood-opacity="0" result="BackgroundImageFix"></feFlood> <feBlend mode="normal" in="SourceGraphic" in2="BackgroundImageFix" result="shape"></feBlend> <feGaussianBlur stdDeviation="20" result="effect1_foregroundBlur"></feGaussianBlur> </filter> <linearGradient id="paint0_linear" x1="90.4494" y1="14.8436" x2="-6.04788" y2="34.0738" gradientUnits="userSpaceOnUse"> <stop stop-color="#FFF500"></stop> <stop offset="1" stop-color="#FFD000"></stop> </linearGradient> </defs> </svg> 