<?xml version="1.0" encoding="UTF-8"?> <svg xmlns="http://www.w3.org/2000/svg" width="68" height="73" viewBox="0 0 68 73" fill="none"> <g filter="url(#filter0_f)"> <path d="M20 34.6458C20 24.2401 30.9493 17.471 40.2577 22.1222C45.0025 24.493 48 29.3417 48 34.6458V39C48 46.732 41.732 53 34 53C26.268 53 20 46.732 20 39V34.6458Z" fill="#FE6B76"></path> </g> <rect x="9" y="2" width="51" height="51" rx="8" fill="url(#paint0_linear)"></rect> <path fill-rule="evenodd" clip-rule="evenodd" d="M28.2812 16.1562C28.2812 17.2724 27.8346 18.2842 27.1102 19.0227C27.6533 19.3367 28.1489 19.7426 28.5803 20.2334C29.7017 21.5095 30.3438 23.3042 30.3438 25.4375C30.3438 25.9898 29.896 26.4375 29.3438 26.4375H19.0312C18.479 26.4375 18.0312 25.9898 18.0312 25.4375C18.0312 23.3042 18.6733 21.5095 19.7947 20.2334C20.2261 19.7426 20.7217 19.3367 21.2648 19.0227C20.5404 18.2842 20.0938 17.2724 20.0938 16.1562C20.0938 13.8953 21.9266 12.0625 24.1875 12.0625C26.4484 12.0625 28.2812 13.8953 28.2812 16.1562ZM22.0938 16.1562C22.0938 14.9999 23.0312 14.0625 24.1875 14.0625C25.3438 14.0625 26.2812 14.9999 26.2812 16.1562C26.2812 17.3126 25.3438 18.25 24.1875 18.25C23.0312 18.25 22.0938 17.3126 22.0938 16.1562ZM21.2971 21.5537C22.0406 20.7076 23.0553 20.25 24.1875 20.25C25.3197 20.25 26.3344 20.7076 27.0779 21.5537C27.6742 22.2322 28.1245 23.1957 28.2824 24.4375H20.0926C20.2505 23.1957 20.7008 22.2322 21.2971 21.5537Z" fill="white"></path> <path fill-rule="evenodd" clip-rule="evenodd" d="M48.9062 16.1562C48.9062 17.2724 48.4596 18.2842 47.7352 19.0227C48.2783 19.3367 48.7739 19.7426 49.2053 20.2334C50.3267 21.5095 50.9688 23.3042 50.9688 25.4375C50.9688 25.9898 50.521 26.4375 49.9688 26.4375H39.6562C39.104 26.4375 38.6562 25.9898 38.6562 25.4375C38.6562 23.3042 39.2983 21.5095 40.4197 20.2334C40.8511 19.7426 41.3467 19.3367 41.8898 19.0227C41.1654 18.2842 40.7188 17.2724 40.7188 16.1562C40.7188 13.8953 42.5516 12.0625 44.8125 12.0625C47.0734 12.0625 48.9062 13.8953 48.9062 16.1562ZM42.7188 16.1562C42.7188 14.9999 43.6562 14.0625 44.8125 14.0625C45.9688 14.0625 46.9062 14.9999 46.9062 16.1562C46.9062 17.3126 45.9688 18.25 44.8125 18.25C43.6562 18.25 42.7188 17.3126 42.7188 16.1562ZM41.9221 21.5537C42.6656 20.7076 43.6803 20.25 44.8125 20.25C45.9447 20.25 46.9594 20.7076 47.7029 21.5537C48.2992 22.2322 48.7495 23.1957 48.9074 24.4375H40.7176C40.8755 23.1957 41.3258 22.2322 41.9221 21.5537Z" fill="white"></path> <path fill-rule="evenodd" clip-rule="evenodd" d="M29.8906 31.1094C29.8906 28.5637 31.9543 26.5 34.5 26.5C37.0457 26.5 39.1094 28.5637 39.1094 31.1094C39.1094 32.4336 38.5509 33.6274 37.6567 34.4682C38.3577 34.8147 39.0043 35.2756 39.5674 35.8388C40.9104 37.1818 41.6718 38.9988 41.6875 40.898L41.6875 40.9062L41.6875 41.9375C41.6875 42.4898 41.2398 42.9375 40.6875 42.9375H28.3125C27.7602 42.9375 27.3125 42.4898 27.3125 41.9375V40.898C27.3281 38.9988 28.0896 37.1818 29.4326 35.8388C29.9957 35.2756 30.6423 34.8147 31.3433 34.4682C30.4491 33.6274 29.8906 32.4336 29.8906 31.1094ZM34.5 28.5C33.0589 28.5 31.8906 29.6683 31.8906 31.1094C31.8906 32.5505 33.0589 33.7188 34.5 33.7188C35.9411 33.7188 37.1094 32.5505 37.1094 31.1094C37.1094 29.6683 35.9411 28.5 34.5 28.5ZM34.5 35.7188C33.1285 35.7322 31.8168 36.283 30.8468 37.253C29.8757 38.224 29.3248 39.5375 29.3125 40.9105V40.9375H39.6875V40.9105C39.6752 39.5374 39.1242 38.224 38.1532 37.253C37.1832 36.283 35.8715 35.7322 34.5 35.7188Z" fill="white"></path> <path d="M30.375 17.2188C29.8227 17.2188 29.375 17.6665 29.375 18.2188C29.375 18.771 29.8227 19.2188 30.375 19.2188H38.625C39.1773 19.2188 39.625 18.771 39.625 18.2188C39.625 17.6665 39.1773 17.2188 38.625 17.2188H30.375Z" fill="white"></path> <path d="M29.0196 31.9491L24.8946 27.8241C24.5041 27.4336 23.8709 27.4336 23.4804 27.8241C23.0899 28.2147 23.0899 28.8478 23.4804 29.2384L27.6054 33.3634C27.9959 33.7539 28.6291 33.7539 29.0196 33.3634C29.4101 32.9728 29.4101 32.3397 29.0196 31.9491Z" fill="white"></path> <path d="M45.5196 29.2384C45.9101 28.8478 45.9101 28.2147 45.5196 27.8241C45.1291 27.4336 44.4959 27.4336 44.1054 27.8241L39.9804 31.9491C39.5899 32.3397 39.5899 32.9728 39.9804 33.3634C40.3709 33.7539 41.0041 33.7539 41.3946 33.3634L45.5196 29.2384Z" fill="white"></path> <defs> <filter id="filter0_f" x="0" y="0.627777" width="68" height="72.3722" filterUnits="userSpaceOnUse" color-interpolation-filters="sRGB"> <feFlood flood-opacity="0" result="BackgroundImageFix"></feFlood> <feBlend mode="normal" in="SourceGraphic" in2="BackgroundImageFix" result="shape"></feBlend> <feGaussianBlur stdDeviation="10" result="effect1_foregroundBlur"></feGaussianBlur> </filter> <linearGradient id="paint0_linear" x1="14.2159" y1="2" x2="55.9432" y2="53" gradientUnits="userSpaceOnUse"> <stop stop-color="#FFADB3"></stop> <stop offset="1" stop-color="#DA505A"></stop> </linearGradient> </defs> </svg> 