<?xml version="1.0" encoding="UTF-8"?> <svg xmlns="http://www.w3.org/2000/svg" width="68" height="72" viewBox="0 0 68 72" fill="none"> <g filter="url(#filter0_f)"> <path d="M20 34.3997C20 24.0538 30.8349 17.2819 40.1347 21.8153C44.9469 24.1612 48 29.0461 48 34.3997V38C48 45.732 41.732 52 34 52C26.268 52 20 45.732 20 38V34.3997Z" fill="#FF9146"></path> </g> <rect x="9" y="1" width="51" height="51" rx="8" fill="url(#paint0_linear)"></rect> <path d="M25.7656 16C25.7656 15.1428 26.4734 14.5 27.2812 14.5C28.0891 14.5 28.7969 15.1428 28.7969 16C28.7969 16.8572 28.0891 17.5 27.2812 17.5C26.4734 17.5 25.7656 16.8572 25.7656 16Z" fill="white"></path> <path d="M29.375 16C29.375 15.1428 30.0828 14.5 30.8906 14.5C31.6985 14.5 32.4062 15.1428 32.4062 16C32.4062 16.8572 31.6985 17.5 30.8906 17.5C30.0828 17.5 29.375 16.8572 29.375 16Z" fill="white"></path> <path d="M32.9844 16C32.9844 15.1428 33.6922 14.5 34.5 14.5C35.3078 14.5 36.0156 15.1428 36.0156 16C36.0156 16.8572 35.3078 17.5 34.5 17.5C33.6922 17.5 32.9844 16.8572 32.9844 16Z" fill="white"></path> <path fill-rule="evenodd" clip-rule="evenodd" d="M24.1875 12C23.6352 12 23.1875 12.4477 23.1875 13V31H19.0312C18.479 31 18.0312 31.4477 18.0312 32V41C18.0312 41.5523 18.479 42 19.0312 42H24.1875C24.7398 42 25.1875 41.5523 25.1875 41V40.1811C25.6763 40.3404 26.2146 40.5942 26.845 40.8998L26.9381 40.945C27.8995 41.4118 29.1109 42 30.375 42H48.9375C49.3465 42 49.7085 41.8222 49.9546 41.6542C50.2239 41.4705 50.4843 41.2115 50.6774 40.8905C50.8728 40.5656 51.0148 40.1491 50.9872 39.676C50.959 39.1928 50.7585 38.7368 50.4114 38.3408C49.7556 37.5927 48.5626 37.0352 46.7706 36.6476C45.2909 36.3276 43.2967 36.1017 40.6333 36.027C40.5968 35.6578 40.5177 35.3161 40.4028 35H49.9688C50.521 35 50.9688 34.5523 50.9688 34V13C50.9688 12.4477 50.521 12 49.9688 12H24.1875ZM38.8802 33H48.9688V20H25.1875V31.905C25.5597 31.835 25.9301 31.7313 26.3623 31.6103C26.4481 31.5863 26.5363 31.5616 26.6275 31.5363C27.5743 31.274 28.7024 31 30.375 31C31.9499 31 34.3973 31.1242 36.4833 31.7985C37.3191 32.0686 38.1681 32.4549 38.8802 33ZM25.1875 33.9302C25.8162 33.843 26.3687 33.687 26.8928 33.5391C26.9832 33.5136 27.0726 33.4883 27.1615 33.4637C28.0195 33.226 28.9538 33 30.375 33C31.8938 33 34.0871 33.1258 35.8682 33.7015C37.4485 34.2123 38.3859 34.9519 38.6059 36C36.2087 35.9987 34.4794 35.7563 33.3656 35.5215C32.8071 35.4038 32.4026 35.2878 32.1456 35.2047C32.0171 35.1632 31.9254 35.1299 31.8697 35.1086C31.8419 35.098 31.823 35.0904 31.813 35.0863L31.8049 35.0829C31.6844 35.0305 31.5591 35.0037 31.4352 35.0002C31.0407 34.9889 30.6602 35.2133 30.4912 35.5967C30.2684 36.102 30.4975 36.6923 31.0029 36.9151L31.3987 36.0171C31.0029 36.9151 31.0041 36.9156 31.0045 36.9157L31.0062 36.9165L31.0104 36.9183L31.0212 36.9229L31.0529 36.9362C31.0785 36.9467 31.1132 36.9606 31.1571 36.9773C31.2448 37.0108 31.369 37.0556 31.5305 37.1078C31.8536 37.2122 32.3257 37.3462 32.9531 37.4785C34.2083 37.7431 36.0821 38 38.625 38C42.2493 38 44.7105 38.2483 46.3478 38.6024C48.0233 38.9648 48.6866 39.4073 48.9074 39.6592C48.9558 39.7144 48.9757 39.7523 48.9835 39.7704C48.9875 39.7797 48.9892 39.7856 48.9898 39.7884C48.9905 39.7912 48.9906 39.7925 48.9906 39.7927C48.9906 39.793 48.9906 39.7938 48.9905 39.7954L48.9899 39.7991C48.9896 39.8008 48.9891 39.803 48.9883 39.8057C48.9853 39.8165 48.9784 39.8349 48.9636 39.8595C48.9317 39.9125 48.8809 39.9649 48.8305 40H30.375C29.6177 40 28.8044 39.6272 27.7175 39.1002L27.6244 39.055C26.9204 38.7132 26.0822 38.3062 25.1875 38.1128V33.9302ZM23.1875 33H22.499H20.0312V40H23.1875V33.1541V33ZM48.9688 18H25.1875V14H48.9688V18ZM48.7893 40.0241C48.7893 40.0238 48.7926 40.022 48.7993 40.0195C48.7927 40.0231 48.7893 40.0243 48.7893 40.0241Z" fill="white"></path> <defs> <filter id="filter0_f" x="0" y="0.382118" width="68" height="71.6179" filterUnits="userSpaceOnUse" color-interpolation-filters="sRGB"> <feFlood flood-opacity="0" result="BackgroundImageFix"></feFlood> <feBlend mode="normal" in="SourceGraphic" in2="BackgroundImageFix" result="shape"></feBlend> <feGaussianBlur stdDeviation="10" result="effect1_foregroundBlur"></feGaussianBlur> </filter> <linearGradient id="paint0_linear" x1="9" y1="1" x2="60" y2="52" gradientUnits="userSpaceOnUse"> <stop stop-color="#FFC49B"></stop> <stop offset="1" stop-color="#FF9146"></stop> </linearGradient> </defs> </svg> 