<?xml version="1.0" encoding="UTF-8"?> <svg xmlns="http://www.w3.org/2000/svg" width="329" height="518" viewBox="0 0 329 518" fill="none"> <g clip-path="url(#clip0)"> <path d="M290.159 116.152L0 0V517.5L255.117 406.522C275.897 397.483 290.586 378.415 294.025 356.017L322.232 172.32C325.902 148.417 312.61 125.139 290.159 116.152Z" fill="url(#paint0_linear)"></path> <path d="M255.971 99.6604L0 0V452L225.32 356.668C246.316 347.785 261.24 328.695 264.795 306.177L288.469 156.226C292.281 132.076 278.755 108.531 255.971 99.6604Z" fill="url(#paint1_linear)"></path> <path d="M80.0803 82.254L-177 0V379L51.3909 299.59C73.6444 291.853 90.0858 272.84 94.5308 249.702L115.3 141.591C120.265 115.75 105.143 90.2728 80.0803 82.254Z" fill="url(#paint2_linear)"></path> </g> <defs> <linearGradient id="paint0_linear" x1="5.15669" y1="-2.59158e-06" x2="385.404" y2="136.015" gradientUnits="userSpaceOnUse"> <stop stop-color="#FFF500"></stop> <stop offset="1" stop-color="#FFD000"></stop> </linearGradient> <linearGradient id="paint1_linear" x1="265.098" y1="362.758" x2="188.956" y2="323.817" gradientUnits="userSpaceOnUse"> <stop stop-color="white" stop-opacity="0.2"></stop> <stop offset="1" stop-color="white" stop-opacity="0"></stop> </linearGradient> <linearGradient id="paint2_linear" x1="93.49" y1="304.171" x2="22.8416" y2="260.203" gradientUnits="userSpaceOnUse"> <stop stop-color="white" stop-opacity="0.2"></stop> <stop offset="1" stop-color="white" stop-opacity="0"></stop> </linearGradient> <clipPath id="clip0"> <rect width="329" height="518" fill="white"></rect> </clipPath> </defs> </svg> 