<?xml version="1.0" encoding="UTF-8"?> <svg xmlns="http://www.w3.org/2000/svg" width="343" height="533" viewBox="0 0 343 533" fill="none"> <g filter="url(#filter0_f)"> <path d="M54 466.59C54 454.973 63.8635 445.801 75.4496 446.643L263.83 460.332C272.38 460.954 279 468.072 279 476.645V476.645C279 485.678 271.677 493 262.645 493H74C62.9543 493 54 484.046 54 473V466.59Z" fill="#DEDFE1"></path> </g> <path d="M0 14.7772C0 6.31063 11.0798 -0.133144 23.2628 1.24809L326.263 35.6004C335.918 36.695 343 42.4195 343 49.1295V457.991C343 465.565 334.046 471.704 323 471.704H20C8.9543 471.704 0 465.565 0 457.991V14.7772Z" fill="white"></path> <path d="M0 17.0327C0 3.86724 9.30537 -1.64477 21.5 0.528338L82.7075 6.38473C89.2213 7.54551 88.4633 21.9872 82.7075 25.4356L17.8843 64.2714C9.88502 69.0638 0 62.9087 0 53.1354V17.0327Z" fill="url(#paint0_linear)"></path> <path d="M23.1293 31.8732C25.3239 31.8732 26.6491 30.2027 26.6534 27.3263C26.6577 24.4712 25.3153 22.8348 23.1293 22.8348C20.9389 22.8348 19.6094 24.4669 19.6051 27.3263C19.5966 30.1942 20.9304 31.8689 23.1293 31.8732ZM23.1293 30.3433C22.1278 30.3433 21.4801 29.3376 21.4844 27.3263C21.4886 25.3447 22.1321 24.3476 23.1293 24.3476C24.1222 24.3476 24.7699 25.3447 24.7699 27.3263C24.7741 29.3376 24.1264 30.3433 23.1293 30.3433ZM31.766 22.9541H30.0316L27.8711 24.322V25.9584L29.8697 24.7055H29.9208V31.6814H31.766V22.9541Z" fill="white"></path> <defs> <filter id="filter0_f" x="14" y="406.589" width="305" height="126.411" filterUnits="userSpaceOnUse" color-interpolation-filters="sRGB"> <feFlood flood-opacity="0" result="BackgroundImageFix"></feFlood> <feBlend mode="normal" in="SourceGraphic" in2="BackgroundImageFix" result="shape"></feBlend> <feGaussianBlur stdDeviation="20" result="effect1_foregroundBlur"></feGaussianBlur> </filter> <linearGradient id="paint0_linear" x1="90.4494" y1="15.0565" x2="-5.90005" y2="34.6391" gradientUnits="userSpaceOnUse"> <stop stop-color="#FFF500"></stop> <stop offset="1" stop-color="#FFD000"></stop> </linearGradient> </defs> </svg> 