<?xml version="1.0" encoding="UTF-8"?> <svg xmlns="http://www.w3.org/2000/svg" width="435" height="586" viewBox="0 0 435 586" fill="none"> <path d="M389.322 450.725L-64 586V0L337.704 130.264C360.288 137.588 377.198 156.477 381.988 179.731L425.383 390.405C430.824 416.821 415.166 443.012 389.322 450.725Z" fill="url(#paint0_linear)"></path> <path d="M337.581 469.606L-64 586V75L292.705 187.35C315.409 194.501 332.503 213.324 337.441 236.609L373.974 408.874C379.626 435.525 363.749 462.021 337.581 469.606Z" fill="url(#paint1_linear)"></path> <path d="M134.557 464.286L-270 561V132L92.8336 226.259C116.061 232.293 134.183 250.46 140.159 273.703L172.829 400.762C180.066 428.912 162.826 457.528 134.557 464.286Z" fill="url(#paint2_linear)"></path> <defs> <linearGradient id="paint0_linear" x1="-56.1669" y1="586" x2="473.409" y2="331.887" gradientUnits="userSpaceOnUse"> <stop stop-color="#FFF500"></stop> <stop offset="1" stop-color="#FFD000"></stop> </linearGradient> <linearGradient id="paint1_linear" x1="331" y1="216.5" x2="253.041" y2="253.069" gradientUnits="userSpaceOnUse"> <stop stop-color="white" stop-opacity="0.2"></stop> <stop offset="1" stop-color="white" stop-opacity="0"></stop> </linearGradient> <linearGradient id="paint2_linear" x1="139.779" y1="216.701" x2="52.1155" y2="289.719" gradientUnits="userSpaceOnUse"> <stop offset="0.507327" stop-color="white" stop-opacity="0.2"></stop> <stop offset="1" stop-color="white" stop-opacity="0"></stop> </linearGradient> </defs> </svg> 