<?xml version="1.0" encoding="UTF-8"?> <svg xmlns="http://www.w3.org/2000/svg" width="541" height="497" viewBox="0 0 541 497" fill="none"> <g clip-path="url(#clip0)"> <path d="M-50.0886 0.366211H520.069C532.553 0.366211 541.986 11.6774 539.744 23.9585L482.989 334.801C476.458 370.573 449.042 398.9 413.503 406.597L-50.0886 507.001V0.366211Z" fill="url(#paint0_linear)"></path> <path d="M-329.887 -298.358H532.307L443.067 237.638C434.093 291.539 391.647 333.657 337.678 342.213L-329.887 448.052V-298.358Z" fill="url(#paint1_linear)"></path> <path d="M-533 -382H329.194L247.881 106.383C234.173 188.72 169.334 253.059 86.8937 266.129L-533 364.409V-382Z" fill="url(#paint2_linear)"></path> </g> <defs> <linearGradient id="paint0_linear" x1="-40.762" y1="0.366208" x2="499.177" y2="357.174" gradientUnits="userSpaceOnUse"> <stop stop-color="#FFF500"></stop> <stop offset="1" stop-color="#FFD000"></stop> </linearGradient> <linearGradient id="paint1_linear" x1="381.98" y1="251.815" x2="296.762" y2="150.571" gradientUnits="userSpaceOnUse"> <stop stop-color="white" stop-opacity="0.2"></stop> <stop offset="1" stop-color="white" stop-opacity="0"></stop> </linearGradient> <linearGradient id="paint2_linear" x1="241.8" y1="217.039" x2="87.4869" y2="77.3603" gradientUnits="userSpaceOnUse"> <stop stop-color="white" stop-opacity="0.2"></stop> <stop offset="1" stop-color="white" stop-opacity="0"></stop> </linearGradient> <clipPath id="clip0"> <rect width="541" height="497" fill="white"></rect> </clipPath> </defs> </svg> 