<?xml version="1.0" encoding="UTF-8"?> <svg xmlns="http://www.w3.org/2000/svg" xmlns:xlink="http://www.w3.org/1999/xlink" width="47.15793mm" height="17.59528mm" viewBox="0 0 133.67602 49.87638"> <defs> <linearGradient id="linear-gradient" x1="-298.75831" y1="489.19327" x2="-240.57334" y2="550.66754" gradientTransform="translate(284.08879 -501.3575)" gradientUnits="userSpaceOnUse"> <stop offset="0" stop-color="#fff"></stop> <stop offset="1"></stop> </linearGradient> <clipPath id="clip-path"> <path d="M28.88184,10.06489a15.87676,15.87676,0,0,1-.78855,21.53L19.81236,39.8758a4.12088,4.12088,0,0,1-5.81651,0L5.71492,31.59489a15.81919,15.81919,0,0,1-4.49776-13.1254c.56844-4.66959,6.15578-4.486,5.43467.41528a10.36408,10.36408,0,1,0,8.4422-8.68506c-4.17071.73783-5.183-4.8119-.3113-5.45874a15.84241,15.84241,0,0,1,14.09911,5.32392" fill="none" clip-rule="evenodd"></path> </clipPath> <clipPath id="clip-path-2"> <path d="M7.04507,5.17818a3.90367,3.90367,0,1,0-2.35763,6.64307,5.14134,5.14134,0,0,1,5.45992,6.57611,7.048,7.048,0,1,0,4.729-4.74257A5.26537,5.26537,0,0,1,8.17674,8.23737,3.89359,3.89359,0,0,0,7.04507,5.17818" fill="none" clip-rule="evenodd"></path> </clipPath> <mask id="mask" x="7.38368" y="12.38932" width="20.59342" height="19.25032" maskUnits="userSpaceOnUse"> <rect x="7.38368" y="12.38932" width="20.59342" height="19.25032" fill="url(#linear-gradient)"></rect> </mask> </defs> <title>лого_цвет</title> <g id="Слой_2" data-name="Слой 2"> <g id="Слой_1-2" data-name="Слой 1"> <g> <rect x="38.97346" width="92.83242" height="24.00112" fill="#ffd000"></rect> <g> <path d="M50.4892,9.94488q-1.85449,0-1.92041,1.19189,0,.92724,2.98,1.457a14.62321,14.62321,0,0,1,6.22461,2.25147,4.423,4.423,0,0,1,1.52344,3.90722q-.46363,5.43018-8.6753,5.43018-8.01342,0-8.21191-6.48975h5.69531q.26514,2.1189,3.11231,2.11914,2.31811,0,2.31787-1.05957-.06593-.86133-1.92041-1.2583-1.72193-.397-3.77442-.92724-4.90063-1.2583-4.90088-4.9668,0-5.76123,7.68213-5.96,6.15894,0,7.61573,3.7749a6.64655,6.64655,0,0,1,.52978,2.84766H55.32318A2.91739,2.91739,0,0,1,53.204,11.3355,3.15965,3.15965,0,0,0,50.4892,9.94488Z"></path> <path d="M79.49652,5.64019q8.34522.19848,8.34473,8.14551V23.85161H84.99359a2.45823,2.45823,0,0,1-2.78125-2.78125V12.85845a2.58363,2.58363,0,0,0-5.16552,0V23.85161H71.41791V12.85845a2.22438,2.22438,0,0,0-2.5166-2.5166,2.28989,2.28989,0,0,0-2.58252,2.5166V23.85161h-5.6294V13.7857q-.06591-8.27784,8.01319-8.14551a10.16238,10.16238,0,0,1,5.6289,1.457A9.29689,9.29689,0,0,1,79.49652,5.64019Z"></path> <path d="M96.84906,24.18267a9.7341,9.7341,0,0,1-4.834-.72852A5.10781,5.10781,0,0,1,88.9682,18.355q.13331-4.834,6.291-5.82763,1.85449-.33107,3.31152-.52979,1.05909-.19848,1.05957-.86084.06593-1.05981-2.45019-1.05957-2.11964,0-2.38379,1.2583H89.43207a5.94965,5.94965,0,0,1,2.05273-4.106A9.19337,9.19337,0,0,1,97.0473,5.607a11.616,11.616,0,0,1,5.82813,1.2915,4.18631,4.18631,0,0,1,2.18555,3.97363v5.76123q-.13331,4.6355-3.50977,6.42334A11.002,11.002,0,0,1,96.84906,24.18267Zm1.78809-8.27783q-.53028.13257-2.38379.52978-1.85449.46362-1.85449,1.78809.06591,1.52269,1.78808,1.523,3.57569,0,3.50977-3.311v-.86084A9.86735,9.86735,0,0,1,98.63715,15.90484Z"></path> <path d="M106.78461,15.24273q0-9.93384,10.92676-9.53614v5.69483h-2.05274a3.33617,3.33617,0,0,0-2.45019.79492,3.54421,3.54421,0,0,0-.79492,2.58252v9.07275h-5.62891Z"></path> <path d="M127.978,5.90533V7.42827q0,2.781-2.64844,2.78125v8.34424a.88542.88542,0,0,0,.06543.46338,1.05024,1.05024,0,0,0,.66309.13281H127.978v4.50293h-.46387a16.606,16.606,0,0,1-2.45019.19873,20.39809,20.39809,0,0,1-2.251-.13232,3.41572,3.41572,0,0,1-1.98731-.86084,3.66039,3.66039,0,0,1-1.1914-2.98047V.80572h2.91308a2.45907,2.45907,0,0,1,2.78223,2.78173V5.90533Z"></path> <path d="M52.07855,31.49761a9.61645,9.61645,0,0,1,4.03955.331q4.63551,1.39088,4.76807,7.54932V49.51031H55.19086V40.1729q0-3.7749-3.311-3.7749-3.31128,0-3.24511,3.7749v9.33741H42.93939V26.4649h2.91407a2.45823,2.45823,0,0,1,2.78125,2.78125V33.087A6.9336,6.9336,0,0,1,52.07855,31.49761Z"></path> <path d="M70.88764,45.20562a3.17353,3.17353,0,0,0,2.31787-.728,2.77527,2.77527,0,0,1,2.05273-.72851h3.97363q-1.78857,6.15819-8.543,6.09228a8.08762,8.08762,0,0,1-6.35743-2.5166,9.98093,9.98093,0,0,1-2.31787-6.8208,9.65417,9.65417,0,0,1,2.252-6.68848,8.44715,8.44715,0,0,1,6.42334-2.583,8.784,8.784,0,0,1,6.49023,2.51661,11.48285,11.48285,0,0,1,2.18555,8.27783H67.84125a3.00744,3.00744,0,0,0,.6626,2.18554A3.11415,3.11415,0,0,0,70.88764,45.20562Zm-.13233-9.271a2.77451,2.77451,0,0,0-2.05273.72852,3.13652,3.13652,0,0,0-.79492,1.72168H73.603a3.06842,3.06842,0,0,0-.72852-1.72168A3.168,3.168,0,0,0,70.75531,35.93462Z"></path> <path d="M88.10785,49.84136a9.7341,9.7341,0,0,1-4.834-.72852A5.10824,5.10824,0,0,1,80.227,44.01372q.13331-4.834,6.291-5.82763,1.85449-.33106,3.31152-.52979,1.05909-.19848,1.05957-.86084.06592-1.05981-2.45019-1.05957-2.11964,0-2.38379,1.2583H80.69086a5.9496,5.9496,0,0,1,2.05273-4.10595,9.19328,9.19328,0,0,1,5.5625-1.62256,11.616,11.616,0,0,1,5.82813,1.2915,4.18607,4.18607,0,0,1,2.18555,3.97315V42.292q-.13331,4.63551-3.50977,6.42383A11.00938,11.00938,0,0,1,88.10785,49.84136Zm1.78809-8.27783q-.53028.13257-2.38379.52978-1.8545.46363-1.85449,1.78809.06591,1.52271,1.78808,1.523,3.57569,0,3.50977-3.311v-.86084A9.86735,9.86735,0,0,1,89.89594,41.56353Z"></path> <path d="M109.96332,26.4649h2.71484q2.78175,0,2.78125,2.64843v12.5166q0,4.17188-2.45019,6.1919a10.20514,10.20514,0,0,1-6.68848,2.01953,8.46639,8.46639,0,0,1-6.55566-2.5166,10.30542,10.30542,0,0,1-2.11914-6.7544q0-9.27173,7.68164-9.47021a6.12889,6.12889,0,0,1,4.63574,1.72217Zm-.92676,10.5957a2.72661,2.72661,0,0,0-2.38476-1.126,2.9015,2.9015,0,0,0-2.4502,1.126,6.115,6.115,0,0,0-.86035,3.44336,5.37438,5.37438,0,0,0,.86035,3.50976,2.94957,2.94957,0,0,0,2.38379,1.126,3.14312,3.14312,0,0,0,2.45117-1.126,5.22093,5.22093,0,0,0,.86035-3.57617A5.703,5.703,0,0,0,109.03656,37.0606Z"></path> <path d="M124.86566,35.60357q-1.85448,0-1.91992,1.19189,0,.92725,2.97949,1.457a14.62829,14.62829,0,0,1,6.22559,2.25147,4.42064,4.42064,0,0,1,1.52246,3.90722q-.46288,5.43018-8.6748,5.43018-8.0127,0-8.21192-6.48975h5.69531q.26514,2.1189,3.11231,2.11914,2.31885,0,2.31836-1.05957-.06738-.86132-1.9209-1.2583-1.72119-.3977-3.77441-.92724-4.90137-1.2583-4.90039-4.9668,0-5.76123,7.68164-5.96,6.15819,0,7.61523,3.7749a6.63991,6.63991,0,0,1,.53027,2.84766h-3.44336a2.91655,2.91655,0,0,1-2.11914-.92725A3.16019,3.16019,0,0,0,124.86566,35.60357Z"></path> </g> </g> </g> <g id="Слой_10" data-name="Слой 10"> <g> <g clip-path="url(#clip-path)"> <rect x="0.64809" y="4.06219" width="33.58685" height="37.4154"></rect> </g> <g clip-path="url(#clip-path-2)"> <rect y="3.65367" width="24.64026" height="24.48819" fill="#ffd000"></rect> </g> <g mask="url(#mask)"> <path d="M9.905,28.53947A10.58667,10.58667,0,1,0,23.47423,12.38932q.39392.32257.75884.6874A10.3648,10.3648,0,1,1,7.38368,24.4947,10.56491,10.56491,0,0,0,9.905,28.53947" fill-rule="evenodd"></path> </g> </g> <ellipse cx="16.54492" cy="46.33694" rx="12.61957" ry="1.72307"></ellipse> </g> <g id="Слой_6" data-name="Слой 6"> <g> <path d="M14.4682,23.273a.91913.91913,0,0,1-1.03711.94287A.91953.91953,0,0,1,12.3935,23.273V18.36919a.91977.91977,0,0,1,1.03759-.94287.91937.91937,0,0,1,1.03711.94287Z" fill="#1d1d1b"></path> <path d="M16.11957,19.40679a.94737.94737,0,1,1,0-1.88623H20.269a.94737.94737,0,1,1,0,1.88623H19.23187V23.273a.91953.91953,0,0,1-1.03759.94287.91913.91913,0,0,1-1.03711-.94287V19.40679Z" fill="#1d1d1b"></path> </g> </g> </g> </svg> 