<?xml version="1.0" encoding="UTF-8"?> <svg xmlns="http://www.w3.org/2000/svg" width="71" height="44" viewBox="0 0 71 44" fill="none"> <path d="M6.49706 37.7558C7.31827 41.4063 10.5602 44 14.302 44H55.7055C59.4473 44 62.6893 41.4063 63.5105 37.7558L69.8092 9.75574C70.9343 4.75421 67.1307 0 62.0042 0H8.00331C2.87679 0 -0.926754 4.75422 0.198359 9.75575L6.49706 37.7558Z" fill="#3EADE6"></path> <path d="M23.3953 21.6007L28.5516 23.5252L30.5474 29.9437C30.6751 30.3548 31.1778 30.5067 31.5114 30.2339L34.3857 27.8908C34.6869 27.6453 35.1161 27.6331 35.4309 27.8616L40.615 31.6254C40.9719 31.8848 41.4776 31.6892 41.5671 31.2579L45.3647 12.9908C45.4624 12.5196 44.9995 12.1266 44.5509 12.3001L23.3892 20.4636C22.867 20.665 22.8715 21.4044 23.3953 21.6007ZM30.2257 22.5007L40.3031 16.294C40.4842 16.1828 40.6706 16.4277 40.515 16.572L32.1983 24.3028C31.906 24.5749 31.7174 24.9391 31.664 25.3344L31.3807 27.4338C31.3432 27.7142 30.9494 27.742 30.872 27.4707L29.7824 23.6422C29.6576 23.2055 29.8395 22.7391 30.2257 22.5007Z" fill="white"></path> </svg> 