<?xml version="1.0" encoding="UTF-8"?> <svg xmlns="http://www.w3.org/2000/svg" width="67" height="72" viewBox="0 0 67 72" fill="none"> <g filter="url(#filter0_f)"> <path d="M20 33.9518C20 23.8901 30.6112 17.3644 39.5907 21.9039C44.135 24.2012 47 28.8599 47 33.9518V38.5C47 45.9558 40.9558 52 33.5 52C26.0442 52 20 45.9558 20 38.5V33.9518Z" fill="#8356E4"></path> </g> <rect x="9" y="1" width="50" height="51" rx="8" fill="url(#paint0_linear)"></rect> <path fill-rule="evenodd" clip-rule="evenodd" d="M44 28.9685C42.3258 28.9685 40.9685 30.3258 40.9685 32C40.9685 33.6743 42.3258 35.0315 44 35.0315C45.6743 35.0315 47.0315 33.6743 47.0315 32C47.0315 30.3258 45.6743 28.9685 44 28.9685ZM42.9685 32C42.9685 31.4303 43.4303 30.9685 44 30.9685C44.5697 30.9685 45.0315 31.4303 45.0315 32C45.0315 32.5697 44.5697 33.0315 44 33.0315C43.4303 33.0315 42.9685 32.5697 42.9685 32Z" fill="white"></path> <path fill-rule="evenodd" clip-rule="evenodd" d="M35.5568 11.6036C35.8361 11.4655 36.1639 11.4655 36.4432 11.6036L45.4432 16.0536C45.7842 16.2222 46 16.5696 46 16.95V26.3431C46.8358 26.6387 47.6038 27.1185 48.2426 27.7574C49.3679 28.8826 50 30.4087 50 32C50 34.5702 48.596 37.1597 47.3232 39.0052C46.6719 39.9497 46.0223 40.7452 45.5359 41.3046C45.2921 41.5849 45.0881 41.8073 44.9436 41.9611C44.8713 42.0381 44.8139 42.0979 44.7736 42.1393L44.7265 42.1875L44.7132 42.2009L44.7093 42.2049L44.708 42.2063C44.708 42.2063 44.7071 42.2071 44 41.5L43.2925 42.2067L43.2907 42.2049L43.2868 42.2009L43.2735 42.1875L43.2264 42.1393C43.1861 42.0979 43.1287 42.0381 43.0564 41.9611C42.9119 41.8073 42.7079 41.5849 42.4641 41.3046C41.9777 40.7452 41.3281 39.9497 40.6768 39.0052C40.0425 38.0855 39.3756 36.981 38.8662 35.7863L35.9478 34.165L27.4019 37.9157C27.1314 38.0344 26.8222 38.0275 26.5573 37.8967L18.5573 33.9467C18.216 33.7782 18 33.4306 18 33.05V13C18 12.6543 18.1785 12.3331 18.4721 12.1507C18.7657 11.9682 19.1328 11.9503 19.4427 12.1033L26.9997 15.8346L35.5568 11.6036ZM44 17.5711V26C42.4087 26 40.8826 26.6321 39.7574 27.7574C38.6321 28.8826 38 30.4087 38 32C38 32.3534 38.0265 32.7071 38.0756 33.0592L37 32.4616V14.11L44 17.5711ZM26 17.5715L20 14.609V32.4285L26 35.391V17.5715ZM28 35.469L35 32.3968V14.11L28 17.5711V35.469ZM44 40.0228L44.0266 39.9923C44.4777 39.4736 45.0781 38.7378 45.6768 37.8698C46.904 36.0903 48 33.9298 48 32C48 30.9391 47.5786 29.9217 46.8284 29.1716C46.0783 28.4214 45.0609 28 44 28C42.9391 28 41.9217 28.4214 41.1716 29.1716C40.4214 29.9217 40 30.9391 40 32C40 33.9298 41.096 36.0903 42.3232 37.8698C42.9219 38.7378 43.5223 39.4736 43.9734 39.9923L44 40.0228Z" fill="white"></path> <path d="M43.2925 42.2067C43.683 42.5973 44.3166 42.5976 44.7071 42.2071L44 41.5C43.2929 42.2071 43.2925 42.2067 43.2925 42.2067Z" fill="white"></path> <defs> <filter id="filter0_f" x="0" y="0.434082" width="67" height="71.5658" filterUnits="userSpaceOnUse" color-interpolation-filters="sRGB"> <feFlood flood-opacity="0" result="BackgroundImageFix"></feFlood> <feBlend mode="normal" in="SourceGraphic" in2="BackgroundImageFix" result="shape"></feBlend> <feGaussianBlur stdDeviation="10" result="effect1_foregroundBlur"></feGaussianBlur> </filter> <linearGradient id="paint0_linear" x1="16.3864" y1="1" x2="53.6976" y2="51.297" gradientUnits="userSpaceOnUse"> <stop stop-color="#AE88FF"></stop> <stop offset="1" stop-color="#633ABC"></stop> </linearGradient> </defs> </svg> 