<?xml version="1.0" encoding="UTF-8"?> <svg xmlns="http://www.w3.org/2000/svg" width="67" height="71" viewBox="0 0 67 71" fill="none"> <g filter="url(#filter0_f)"> <path d="M20 33.705C20 23.7029 30.497 17.174 39.4685 21.596C44.0799 23.869 47 28.5639 47 33.705V37.5C47 44.9559 40.9558 51 33.5 51C26.0442 51 20 44.9558 20 37.5V33.705Z" fill="#62DDB4"></path> </g> <rect x="8.00049" y="1" width="50" height="50" rx="8" fill="url(#paint0_linear)"></rect> <path fill-rule="evenodd" clip-rule="evenodd" d="M42.5 13C40.8431 13 39.5 14.3431 39.5 16C39.5 17.6569 40.8431 19 42.5 19C44.1569 19 45.5 17.6569 45.5 16C45.5 14.3431 44.1569 13 42.5 13ZM41.5 16C41.5 15.4477 41.9477 15 42.5 15C43.0523 15 43.5 15.4477 43.5 16C43.5 16.5523 43.0523 17 42.5 17C41.9477 17 41.5 16.5523 41.5 16Z" fill="white"></path> <path fill-rule="evenodd" clip-rule="evenodd" d="M38.2574 11.7574C39.3826 10.6321 40.9087 10 42.5 10C43.2879 10 44.0681 10.1552 44.7961 10.4567C45.5241 10.7583 46.1855 11.2002 46.7426 11.7574C47.2998 12.3145 47.7417 12.9759 48.0433 13.7039C48.3448 14.4319 48.5 15.2121 48.5 16C48.5 18.5584 47.1055 21.2686 45.8403 23.2296C45.5719 23.6456 45.3039 24.0361 45.0475 24.3939C45.8451 27.3425 45.6576 30.4764 44.5052 33.3153C43.2888 36.312 41.0723 38.7952 38.2324 40.3428C35.3925 41.8904 32.1044 42.4071 28.9267 41.8049C25.749 41.2028 22.8778 39.519 20.801 37.0397C18.7242 34.5604 17.5698 31.4384 17.5341 28.2044C17.4983 24.9704 18.5834 21.8237 20.6049 19.2991C22.6265 16.7745 25.4597 15.0277 28.6233 14.3554C31.2933 13.7881 34.0595 14.0157 36.5851 14.9929C36.7924 13.7753 37.3724 12.6423 38.2574 11.7574ZM43.1201 23.6422C43.1375 23.6162 43.1562 23.591 43.176 23.5667C43.4868 23.1461 43.8235 22.6665 44.1597 22.1454C45.3945 20.2314 46.5 17.9416 46.5 16C46.5 15.4747 46.3965 14.9546 46.1955 14.4693C45.9945 13.984 45.6999 13.543 45.3284 13.1716C44.957 12.8001 44.516 12.5055 44.0307 12.3045C43.5454 12.1035 43.0253 12 42.5 12C41.4391 12 40.4217 12.4214 39.6716 13.1716C38.9214 13.9217 38.5 14.9391 38.5 16C38.5 17.9416 39.6055 20.2314 40.8403 22.1454C40.9256 22.2776 41.0109 22.4071 41.0959 22.5337C41.1569 22.6019 41.2069 22.6764 41.246 22.7551C41.707 23.4275 42.1484 24.0065 42.4996 24.4456C42.6846 24.2144 42.8954 23.9443 43.1201 23.6422ZM36.5903 17.1673C36.9081 19.2903 38.0118 21.4237 39.0562 23.0679C38.7192 23.3639 38.3359 23.6039 37.9209 23.7777C37.4087 23.9923 36.8587 24.1018 36.3035 24.1C36.29 24.0999 36.2765 24.1002 36.2631 24.1007C35.883 24.1147 35.4346 24.1736 35.0692 24.418C34.8625 24.5562 34.6842 24.7528 34.5767 25.0087C34.4731 25.2551 34.4624 25.4912 34.4794 25.6739C34.5096 25.998 34.6452 26.2961 34.7145 26.4483L34.7149 26.4493C34.743 26.5111 34.7675 26.5636 34.7891 26.6101C34.8415 26.7226 34.8775 26.7998 34.9084 26.8863C34.9322 26.9531 34.9523 27.016 34.9767 27.0922L34.9794 27.1009C35.0027 27.1735 35.0331 27.2688 35.0693 27.3639C35.1479 27.5708 35.2677 27.8176 35.4913 28.0547C35.8549 28.4405 36.3808 28.6757 37.0489 28.8805C36.7911 29.2619 36.3937 29.6694 35.9956 30.0777C35.8704 30.206 35.7452 30.3345 35.6242 30.4622C34.8584 31.2705 34.8881 32.2665 34.9276 32.8266C34.9371 32.9607 34.9461 33.0627 34.9534 33.1457C34.958 33.1982 34.962 33.2433 34.965 33.2839L34.9081 33.3116L34.884 33.3233C34.725 33.4005 34.4831 33.5179 34.2496 33.6822C33.6791 34.0836 33.2251 34.7141 33.1527 35.7287C33.1158 36.2441 32.968 36.3891 32.9207 36.4281C32.8651 36.4738 32.7585 36.5256 32.557 36.5435C32.5409 36.527 32.5221 36.5064 32.5004 36.481C32.3578 36.3141 32.1913 36.0471 32.036 35.7176C31.8833 35.3935 31.762 35.0523 31.6914 34.7615C31.6302 34.5097 31.6266 34.3751 31.6255 34.3368C31.6252 34.3245 31.6251 34.3222 31.6235 34.329C31.7356 33.8526 31.8079 33.3194 31.7149 32.8131C31.6127 32.2565 31.3074 31.7376 30.729 31.4221C30.4508 31.2704 30.4561 31.2679 30.4602 31.2661C30.4607 31.2658 30.4611 31.2656 30.4611 31.2652C30.3941 31.1724 30.2747 30.935 29.989 30.1557C29.8022 29.6464 29.4963 29.1769 28.9801 28.9188C28.4787 28.6681 27.9762 28.7187 27.6346 28.7896C27.3853 28.8412 27.1024 28.9337 26.883 29.0054C26.8202 29.0259 26.7626 29.0448 26.7125 29.0604C26.4553 29.1409 26.2609 29.1878 26.0928 29.199C26.0732 29.1878 26.034 29.1598 25.9778 29.0955C25.8515 28.9511 25.7088 28.6912 25.6254 28.3229C25.4615 27.5991 25.56 26.5965 26.2581 25.6392C26.9926 24.6319 27.6718 24.3688 28.2112 24.3426C28.8092 24.3135 29.4583 24.5646 30.1021 24.9864C31.2191 25.7183 32.5132 25.549 33.4592 24.9414C34.4011 24.3366 35.1001 23.2451 35.1001 21.95C35.1001 21.2043 34.8146 20.6217 34.3083 20.2274C33.9097 19.9169 33.4205 19.7721 33.1293 19.6858L33.0858 19.6729C32.7145 19.5622 32.5815 19.5113 32.5097 19.458C32.5058 19.4416 32.5001 19.4078 32.5001 19.35C32.5001 19.1142 32.5585 18.9961 32.6384 18.8989C32.7443 18.7699 32.9446 18.6145 33.3348 18.4194C33.6974 18.2381 34.137 18.0631 34.694 17.8414L34.8234 17.7899C35.3096 17.5962 35.859 17.3747 36.4516 17.104C36.498 17.1248 36.5442 17.1459 36.5903 17.1673ZM38.6936 25.6224C39.2347 25.3957 39.7395 25.0932 40.1931 24.725C40.4648 25.0937 40.7181 25.4203 40.9379 25.695C41.1803 25.998 41.3831 26.2395 41.5266 26.4064C41.5983 26.49 41.6553 26.555 41.695 26.5998L41.7413 26.6519L41.7543 26.6663L41.7593 26.6718C41.7595 26.672 41.7601 26.6727 42.5 26L41.7601 26.6727C41.9496 26.8811 42.2183 27 42.5 27C42.7817 27 43.0504 26.8811 43.2399 26.6727L42.5 26C43.2399 26.6727 43.2398 26.6729 43.2399 26.6727L43.2407 26.6718L43.2457 26.6663L43.2587 26.6519L43.305 26.5998C43.3358 26.565 43.377 26.5181 43.4274 26.4598C43.7022 28.5157 43.4408 30.62 42.6521 32.563C41.6094 35.1317 39.7096 37.2601 37.2754 38.5866C34.8412 39.9132 32.0228 40.356 29.299 39.8399C26.5753 39.3238 24.1143 37.8805 22.3342 35.7554C20.554 33.6303 19.5646 30.9543 19.5339 28.1823C19.5033 25.4103 20.4334 22.7132 22.1661 20.5492C23.8988 18.3852 26.3274 16.888 29.039 16.3118C30.4897 16.0035 31.9735 15.9691 33.417 16.1985C33.0703 16.3396 32.738 16.4817 32.4404 16.6306C31.9556 16.8729 31.4621 17.1801 31.0931 17.6292C30.698 18.1101 30.5001 18.6858 30.5001 19.35C30.5001 20.095 30.7953 20.6705 31.3047 21.0542C31.6943 21.3477 32.1731 21.4889 32.4589 21.5731L32.5145 21.5896C32.8806 21.6987 33.0112 21.7522 33.0794 21.8053L33.0844 21.8094L33.085 21.811C33.0864 21.8153 33.0885 21.8226 33.0907 21.8335C33.0951 21.8553 33.1001 21.8928 33.1001 21.95C33.1001 22.5049 32.7992 22.9884 32.3785 23.2586C31.9621 23.526 31.5311 23.5317 31.1981 23.3135C30.392 22.7853 29.316 22.2865 28.1141 22.3449C26.8535 22.4062 25.6576 23.0681 24.6421 24.4608C23.5902 25.9035 23.3887 27.5009 23.6748 28.7646C23.8164 29.3901 24.0862 29.9707 24.4724 30.4123C24.8528 30.8471 25.4275 31.2277 26.1401 31.1992C26.5896 31.1812 26.9992 31.0663 27.3096 30.9692C27.4219 30.9341 27.5166 30.9032 27.5997 30.8761L27.6007 30.8758C27.7827 30.8164 27.9092 30.7752 28.0406 30.7479C28.0509 30.7458 28.0604 30.7439 28.0692 30.7423C28.0814 30.7683 28.0956 30.8017 28.1112 30.8442C28.3755 31.565 28.5814 32.0782 28.8394 32.4355C29.1287 32.8359 29.4719 33.0184 29.7017 33.1406L29.7458 33.1641L29.7478 33.1744C29.7673 33.2806 29.7646 33.4974 29.6767 33.8709C29.57 34.3242 29.6522 34.8399 29.7479 35.2338C29.8538 35.6695 30.0231 36.1377 30.2267 36.5699C30.4277 36.9966 30.6831 37.4328 30.9796 37.7799C31.2258 38.0682 31.7133 38.55 32.4001 38.55C32.9441 38.55 33.6231 38.4405 34.1921 37.9719C34.7823 37.4859 35.0844 36.7559 35.1476 35.8712C35.1635 35.6482 35.2124 35.5343 35.2452 35.4776C35.2775 35.4218 35.3222 35.3729 35.4006 35.3178C35.4925 35.2531 35.6 35.1991 35.7827 35.1102L35.8072 35.0984C35.9578 35.0254 36.2086 34.9038 36.4248 34.7309C36.9172 34.3369 36.9641 33.7663 36.9702 33.5C36.9748 33.2959 36.9522 33.0356 36.9356 32.8432C36.9303 32.7828 36.9257 32.729 36.9226 32.6858C36.8872 32.1834 36.9418 31.9795 37.0761 31.8377C37.1487 31.761 37.2377 31.6702 37.3373 31.5686C37.7595 31.1375 38.3732 30.511 38.7499 29.9343C38.9683 29.5998 39.2712 29.049 39.1997 28.4331C39.1589 28.0814 39.0006 27.7553 38.73 27.4992C38.4771 27.2599 38.1686 27.1211 37.8709 27.0373C37.1731 26.8411 36.9882 26.7163 36.9533 26.6886C36.9501 26.6817 36.9453 26.6704 36.9388 26.6533C36.9244 26.6155 36.9093 26.5697 36.884 26.4903L36.8795 26.4762C36.8568 26.4052 36.8274 26.3131 36.7919 26.2136C36.7761 26.1696 36.7597 26.1266 36.7431 26.0853C37.4132 26.0388 38.0722 25.8827 38.6936 25.6224ZM34.9672 33.5006C34.967 33.5002 34.9674 33.4943 34.9694 33.484C34.9685 33.4958 34.9675 33.5009 34.9672 33.5006ZM32.6243 36.603C32.6243 36.6033 32.6208 36.6013 32.6139 36.596C32.6208 36.5999 32.6243 36.6026 32.6243 36.603Z" fill="white"></path> <defs> <filter id="filter0_f" x="0" y="0.187866" width="67" height="70.8121" filterUnits="userSpaceOnUse" color-interpolation-filters="sRGB"> <feFlood flood-opacity="0" result="BackgroundImageFix"></feFlood> <feBlend mode="normal" in="SourceGraphic" in2="BackgroundImageFix" result="shape"></feBlend> <feGaussianBlur stdDeviation="10" result="effect1_foregroundBlur"></feGaussianBlur> </filter> <linearGradient id="paint0_linear" x1="12.5459" y1="7.25" x2="60.2732" y2="53.2727" gradientUnits="userSpaceOnUse"> <stop stop-color="#95FCD9"></stop> <stop offset="1" stop-color="#50C79F"></stop> </linearGradient> </defs> </svg> 