<?xml version="1.0" encoding="UTF-8"?> <svg xmlns="http://www.w3.org/2000/svg" width="1280" height="735" viewBox="0 0 1280 735" fill="none"> <path opacity="0.2" fill-rule="evenodd" clip-rule="evenodd" d="M-25.0759 290.6C-23.9028 291.22 -22.7143 291.768 -21.5109 292.247L-21.8805 293.176C-23.1176 292.684 -24.3387 292.121 -25.5433 291.484L-25.0759 290.6ZM-17.8104 293.489C-16.5439 293.838 -15.2614 294.117 -13.9633 294.326L-14.1228 295.314C-15.4561 295.098 -16.7741 294.812 -18.0762 294.453L-17.8104 293.489ZM-31.5871 286.277C-30.5654 287.104 -29.5305 287.866 -28.4827 288.566L-29.0381 289.398C-30.112 288.68 -31.1714 287.9 -32.216 287.055L-31.5871 286.277ZM-10.0482 294.751C-8.76061 294.824 -7.45842 294.835 -6.14184 294.786L-6.10451 295.786C-7.45128 295.836 -8.785 295.825 -10.1052 295.749L-10.0482 294.751ZM-37.2995 280.819C-36.4151 281.803 -35.5191 282.73 -34.6119 283.603L-35.3051 284.324C-36.2305 283.434 -37.1433 282.489 -38.0432 281.487L-37.2995 280.819ZM-2.14933 294.46C-0.884793 294.302 0.392064 294.093 1.68106 293.833L1.87835 294.814C0.566217 295.078 -0.735237 295.291 -2.02551 295.452L-2.14933 294.46ZM-42.2726 274.506C-41.4657 275.665 -40.6478 276.77 -39.8188 277.822L-40.6042 278.441C-41.446 277.373 -42.2757 276.252 -43.0934 275.077L-42.2726 274.506ZM5.55278 292.916C6.81206 292.573 8.08212 292.187 9.3626 291.757L9.68069 292.705C8.38273 293.141 7.09408 293.533 5.81505 293.881L5.55278 292.916ZM-46.3763 267.959C-45.7181 269.12 -45.0514 270.239 -44.3763 271.317L-45.2238 271.848C-45.907 270.757 -46.5811 269.625 -47.2462 268.452L-46.3763 267.959ZM13.0364 290.419C14.2701 289.935 15.513 289.413 16.7647 288.856L17.1716 289.769C15.9068 290.333 14.65 290.86 13.4014 291.35L13.0364 290.419ZM-49.279 262.454C-48.9631 263.097 -48.645 263.73 -48.3247 264.352L-49.2138 264.81C-49.537 264.182 -49.858 263.544 -50.1766 262.895L-49.279 262.454ZM20.3263 287.185C21.4882 286.613 22.6572 286.011 23.8332 285.382L24.3053 286.263C23.1197 286.898 21.9406 287.505 20.768 288.082L20.3263 287.185ZM27.3819 283.409C28.5035 282.763 29.631 282.093 30.7643 281.399L31.2863 282.252C30.1458 282.95 29.0106 283.625 27.881 284.276L27.3819 283.409ZM34.1047 279.299C35.2236 278.577 36.3479 277.834 37.4773 277.07L38.0376 277.898C36.9025 278.666 35.7722 279.414 34.6469 280.14L34.1047 279.299ZM40.7564 274.804C41.8161 274.057 42.8799 273.293 43.9482 272.512L44.5384 273.319C43.4658 274.103 42.3972 274.871 41.3328 275.621L40.7564 274.804ZM47.1651 270.12C48.2371 269.31 49.3131 268.484 50.3931 267.642L51.0075 268.431C49.9239 269.275 48.844 270.104 47.768 270.917L47.1651 270.12ZM53.4596 265.222C54.4852 264.402 55.5141 263.569 56.5464 262.724L57.18 263.498C56.1448 264.345 55.1128 265.181 54.084 266.003L53.4596 265.222ZM59.653 260.151C60.6707 259.299 61.6915 258.436 62.7153 257.561L63.3647 258.322C62.3385 259.198 61.3153 260.064 60.2949 260.918L59.653 260.151ZM65.6974 254.991C66.6941 254.124 67.6936 253.248 68.6956 252.362L69.3578 253.111C68.3539 253.999 67.3524 254.877 66.3535 255.746L65.6974 254.991ZM71.7093 249.677C72.6942 248.793 73.6816 247.9 74.6712 247L75.3442 247.739C74.3531 248.642 73.364 249.536 72.3772 250.421L71.7093 249.677ZM77.5856 244.331C78.5591 243.434 79.535 242.53 80.5128 241.618L81.1945 242.35C80.2153 243.262 79.2383 244.168 78.2632 245.066L77.5856 244.331ZM579.644 407.774C580.293 407.995 580.939 408.212 581.583 408.423L581.271 409.373C580.624 409.161 579.973 408.943 579.321 408.72C578.681 408.502 578.044 408.28 577.409 408.054L577.744 407.112C578.375 407.336 579.008 407.557 579.644 407.774ZM83.4522 238.864C84.4183 237.954 85.3864 237.038 86.3563 236.116L87.0452 236.841C86.0744 237.764 85.1051 238.681 84.1378 239.592L83.4522 238.864ZM585.413 409.627C586.679 410.007 587.935 410.367 589.18 410.707L588.917 411.672C587.663 411.33 586.399 410.967 585.125 410.584L585.413 409.627ZM570.286 404.246C571.511 404.753 572.745 405.245 573.988 405.722L573.629 406.656C572.378 406.175 571.136 405.68 569.904 405.17L570.286 404.246ZM592.917 411.674C594.24 411.998 595.552 412.299 596.852 412.577L596.643 413.555C595.333 413.275 594.012 412.972 592.679 412.646L592.917 411.674ZM562.995 401.018C564.2 401.587 565.414 402.143 566.637 402.684L566.232 403.599C565.001 403.054 563.78 402.495 562.567 401.922L562.995 401.018ZM555.87 397.434C557.04 398.058 558.219 398.669 559.406 399.267L558.957 400.16C557.762 399.559 556.576 398.944 555.399 398.316L555.87 397.434ZM600.719 413.345C601.997 413.578 603.263 413.79 604.518 413.98L604.369 414.968C603.103 414.777 601.827 414.564 600.539 414.328L600.719 413.345ZM548.919 393.508C550.062 394.19 551.214 394.858 552.373 395.513L551.882 396.384C550.715 395.725 549.557 395.053 548.407 394.367L548.919 393.508ZM608.506 414.516C609.826 414.67 611.134 414.801 612.43 414.908L612.348 415.905C611.04 415.797 609.721 415.665 608.39 415.509L608.506 414.516ZM542.162 389.266C543.272 389.998 544.39 390.718 545.516 391.425L544.984 392.272C543.851 391.561 542.727 390.837 541.611 390.101L542.162 389.266ZM616.289 415.16C617.637 415.224 618.973 415.263 620.296 415.276L620.285 416.276C618.95 416.262 617.602 416.224 616.241 416.159L616.289 415.16ZM535.597 384.725C536.676 385.506 537.762 386.275 538.856 387.032L538.287 387.854C537.187 387.093 536.095 386.32 535.011 385.535L535.597 384.725ZM89.2196 233.382C90.1758 232.465 91.1337 231.543 92.0933 230.616L92.7882 231.335C91.8278 232.263 90.8689 233.186 89.9117 234.104L89.2196 233.382ZM624.226 415.242C625.54 415.206 626.841 415.145 628.13 415.06L628.196 416.058C626.894 416.144 625.58 416.206 624.254 416.242L624.226 415.242ZM529.231 379.908C530.275 380.733 531.327 381.545 532.386 382.347L531.782 383.144C530.718 382.339 529.661 381.522 528.612 380.693L529.231 379.908ZM632.09 414.72C633.397 414.581 634.692 414.417 635.975 414.23L636.12 415.219C634.824 415.409 633.516 415.574 632.196 415.714L632.09 414.72ZM523.06 374.836C524.074 375.703 525.095 376.559 526.124 377.405L525.489 378.177C524.455 377.328 523.429 376.467 522.41 375.596L523.06 374.836ZM1094.44 569.677C1095.09 569.898 1095.74 570.116 1096.38 570.33L1096.07 571.279C1095.42 571.064 1094.77 570.846 1094.12 570.624C1093.47 570.4 1092.82 570.175 1092.17 569.946L1092.51 569.004C1093.15 569.231 1093.79 569.455 1094.44 569.677ZM1100.25 571.571C1101.54 571.97 1102.82 572.355 1104.1 572.727L1103.82 573.687C1102.54 573.314 1101.25 572.927 1099.96 572.526L1100.25 571.571ZM1085.07 566.16C1086.27 566.654 1087.49 567.138 1088.73 567.612L1088.37 568.546C1087.12 568.069 1085.89 567.582 1084.69 567.085L1085.07 566.16ZM1108.02 573.823C1109.33 574.176 1110.64 574.514 1111.94 574.838L1111.7 575.808C1110.39 575.483 1109.08 575.143 1107.76 574.789L1108.02 573.823ZM1077.8 562.946C1079 563.518 1080.22 564.079 1081.47 564.629L1081.07 565.544C1079.81 564.99 1078.58 564.425 1077.37 563.849L1077.8 562.946ZM639.865 413.58C641.165 413.337 642.453 413.068 643.729 412.775L643.953 413.75C642.664 414.046 641.363 414.317 640.049 414.563L639.865 413.58ZM1115.86 575.773C1117.19 576.076 1118.51 576.365 1119.83 576.639L1119.63 577.618C1118.3 577.343 1116.97 577.053 1115.64 576.748L1115.86 575.773ZM94.9767 227.82C95.9323 226.89 96.8894 225.956 97.8481 225.017L98.5476 225.732C97.5883 226.671 96.6304 227.606 95.674 228.537L94.9767 227.82ZM517.091 369.539C518.07 370.44 519.056 371.331 520.048 372.212L519.384 372.96C518.387 372.075 517.397 371.18 516.414 370.275L517.091 369.539ZM1070.8 559.376C1071.93 559.994 1073.08 560.601 1074.25 561.198L1073.79 562.089C1072.61 561.488 1071.46 560.876 1070.32 560.253L1070.8 559.376ZM1123.79 577.419C1125.12 577.669 1126.46 577.904 1127.78 578.125L1127.62 579.112C1126.29 578.889 1124.95 578.653 1123.6 578.402L1123.79 577.419ZM1063.92 555.321C1065.02 556.019 1066.15 556.706 1067.29 557.382L1066.79 558.244C1065.63 557.563 1064.5 556.87 1063.38 556.166L1063.92 555.321ZM1131.78 578.749C1133.12 578.944 1134.45 579.124 1135.78 579.29L1135.66 580.283C1134.32 580.116 1132.98 579.934 1131.64 579.738L1131.78 578.749ZM511.298 364.017C512.251 364.956 513.21 365.886 514.175 366.807L513.485 367.53C512.515 366.606 511.552 365.672 510.596 364.729L511.298 364.017ZM1057.36 550.86C1058.43 551.642 1059.52 552.412 1060.64 553.171L1060.08 553.998C1058.95 553.233 1057.85 552.456 1056.77 551.667L1057.36 550.86ZM1139.82 579.754C1141.16 579.894 1142.5 580.021 1143.83 580.133L1143.74 581.129C1142.4 581.016 1141.06 580.89 1139.71 580.749L1139.82 579.754ZM647.527 411.825C648.805 411.479 650.072 411.108 651.327 410.715L651.626 411.669C650.358 412.067 649.08 412.441 647.789 412.791L647.527 411.825ZM1147.88 580.432C1149.23 580.518 1150.57 580.59 1151.92 580.649L1151.87 581.648C1150.52 581.589 1149.17 581.517 1147.82 581.43L1147.88 580.432ZM1051.15 545.984C1052.15 546.827 1053.17 547.659 1054.22 548.479L1053.6 549.265C1052.54 548.438 1051.51 547.599 1050.5 546.749L1051.15 545.984ZM505.711 358.328C506.63 359.293 507.555 360.25 508.486 361.198L507.772 361.899C506.838 360.947 505.909 359.986 504.987 359.017L505.711 358.328ZM100.677 222.24C101.621 221.311 102.567 220.378 103.514 219.441L104.217 220.152C103.698 220.665 103.18 221.177 102.662 221.688C102.234 222.111 101.806 222.532 101.378 222.953L100.677 222.24ZM1155.96 580.783C1157.31 580.815 1158.67 580.832 1160.01 580.837L1160.01 581.837C1158.66 581.832 1157.3 581.815 1155.94 581.783L1155.96 580.783ZM655.059 409.467C656.298 409.026 657.527 408.563 658.745 408.079L659.114 409.008C657.885 409.497 656.645 409.964 655.394 410.409L655.059 409.467ZM1045.28 540.67C1046.21 541.579 1047.17 542.476 1048.15 543.362L1047.48 544.103C1046.49 543.209 1045.53 542.304 1044.58 541.387L1045.28 540.67ZM500.284 352.449C501.175 353.443 502.071 354.428 502.973 355.406L502.238 356.084C501.333 355.103 500.433 354.114 499.539 353.117L500.284 352.449ZM1164.05 580.809C1165.4 580.786 1166.76 580.749 1168.11 580.699L1168.14 581.699C1166.79 581.749 1165.43 581.785 1164.06 581.808L1164.05 580.809ZM1039.79 534.932C1040.66 535.914 1041.56 536.885 1042.48 537.844L1041.75 538.536C1040.83 537.567 1039.92 536.588 1039.04 535.597L1039.79 534.932ZM1172.14 580.511C1173.49 580.435 1174.84 580.345 1176.19 580.242L1176.26 581.239C1174.91 581.342 1173.55 581.433 1172.19 581.51L1172.14 580.511ZM662.384 406.557C663.588 406.029 664.781 405.48 665.965 404.912L666.397 405.814C665.204 406.387 664 406.94 662.786 407.473L662.384 406.557ZM106.359 216.622C107.308 215.679 108.259 214.733 109.211 213.785L109.916 214.493C108.964 215.442 108.013 216.388 107.063 217.332L106.359 216.622ZM495.036 346.43C495.9 347.449 496.769 348.459 497.644 349.463L496.89 350.12C496.012 349.113 495.14 348.099 494.273 347.077L495.036 346.43ZM1034.72 528.835C1035.53 529.881 1036.36 530.916 1037.21 531.939L1036.44 532.578C1035.59 531.546 1034.75 530.502 1033.93 529.447L1034.72 528.835ZM1180.21 579.896C1181.56 579.768 1182.9 579.626 1184.24 579.473L1184.36 580.466C1183.01 580.62 1181.66 580.762 1180.31 580.892L1180.21 579.896ZM489.942 340.269C490.776 341.304 491.616 342.332 492.46 343.354L491.689 343.991C490.842 342.966 490 341.935 489.163 340.896L489.942 340.269ZM669.492 403.149C670.658 402.542 671.816 401.917 672.966 401.275L673.454 402.148C672.296 402.795 671.129 403.425 669.953 404.036L669.492 403.149ZM1188.26 578.973C1189.6 578.794 1190.93 578.602 1192.26 578.399L1192.41 579.388C1191.08 579.592 1189.74 579.784 1188.39 579.964L1188.26 578.973ZM1030.09 522.412C1030.83 523.507 1031.58 524.592 1032.36 525.666L1031.55 526.252C1030.76 525.168 1030 524.074 1029.26 522.97L1030.09 522.412ZM112.021 210.98C112.959 210.043 113.898 209.103 114.838 208.162L115.545 208.868C114.927 209.487 114.31 210.105 113.693 210.722L112.728 211.687L112.021 210.98ZM484.995 333.982C485.81 335.042 486.63 336.097 487.454 337.145L486.668 337.763C485.841 336.712 485.019 335.655 484.202 334.591L484.995 333.982ZM1196.26 577.751C1197.59 577.523 1198.92 577.283 1200.24 577.033L1200.43 578.015C1199.1 578.267 1197.77 578.507 1196.43 578.736L1196.26 577.751ZM676.38 399.301C677.508 398.628 678.628 397.939 679.741 397.234L680.276 398.078C679.156 398.788 678.028 399.482 676.893 400.16L676.38 399.301ZM1025.87 515.7C1026.53 516.838 1027.22 517.967 1027.92 519.086L1027.08 519.618C1026.37 518.491 1025.68 517.353 1025 516.207L1025.87 515.7ZM480.195 327.596C480.983 328.668 481.776 329.735 482.574 330.796L481.774 331.397C480.975 330.333 480.18 329.263 479.389 328.188L480.195 327.596ZM1204.22 576.242C1205.54 575.967 1206.86 575.681 1208.17 575.386L1208.39 576.361C1207.07 576.658 1205.75 576.945 1204.42 577.221L1204.22 576.242ZM117.66 205.332C118.602 204.387 119.545 203.44 120.489 202.492L121.197 203.198C120.668 203.73 120.139 204.261 119.61 204.792L118.369 206.038L117.66 205.332ZM1022.04 508.746C1022.64 509.923 1023.27 511.091 1023.9 512.25L1023.03 512.732C1022.39 511.565 1021.76 510.389 1021.15 509.205L1022.04 508.746ZM683.057 395.075C684.147 394.347 685.23 393.604 686.307 392.849L686.881 393.667C685.798 394.427 684.709 395.174 683.613 395.907L683.057 395.075ZM475.512 321.097C476.284 322.19 477.06 323.279 477.841 324.362L477.029 324.947C476.247 323.861 475.469 322.77 474.695 321.673L475.512 321.097ZM1212.12 574.458C1213.43 574.139 1214.74 573.809 1216.04 573.47L1216.29 574.437C1214.98 574.778 1213.67 575.109 1212.35 575.43L1212.12 574.458ZM123.306 199.662L126.118 196.835L126.827 197.54L124.014 200.367L123.306 199.662ZM1018.58 501.603C1019.13 502.809 1019.69 504.007 1020.27 505.197L1019.37 505.633C1018.79 504.435 1018.22 503.23 1017.67 502.017L1018.58 501.603ZM470.964 314.533C471.714 315.635 472.467 316.733 473.224 317.826L472.402 318.395C471.643 317.3 470.888 316.2 470.137 315.095L470.964 314.533ZM1219.95 572.414C1221.26 572.052 1222.55 571.681 1223.84 571.3L1224.13 572.26C1222.83 572.641 1221.53 573.014 1220.22 573.378L1219.95 572.414ZM689.521 390.543C690.581 389.766 691.635 388.977 692.684 388.177L693.291 388.972C692.237 389.776 691.178 390.568 690.113 391.349L689.521 390.543ZM466.511 307.873C467.245 308.99 467.983 310.104 468.725 311.213L467.894 311.769C467.151 310.658 466.411 309.542 465.675 308.422L466.511 307.873ZM1227.72 570.125C1229.01 569.723 1230.3 569.312 1231.58 568.893L1231.89 569.843C1230.61 570.264 1229.32 570.676 1228.02 571.079L1227.72 570.125ZM1015.45 494.305C1015.94 495.533 1016.45 496.753 1016.97 497.967L1016.05 498.361C1015.53 497.141 1015.02 495.914 1014.52 494.68L1015.45 494.305ZM131.755 191.171L132.464 191.877L129.643 194.709L128.934 194.004L131.755 191.171ZM695.804 385.755C696.839 384.937 697.87 384.109 698.897 383.272L699.528 384.048C698.498 384.888 697.463 385.719 696.424 386.54L695.804 385.755ZM462.17 301.165C462.887 302.29 463.607 303.412 464.331 304.53L463.491 305.073C462.766 303.953 462.045 302.83 461.327 301.703L462.17 301.165ZM1235.42 567.604C1236.7 567.165 1237.97 566.717 1239.24 566.262L1239.58 567.204C1238.31 567.66 1237.03 568.109 1235.75 568.55L1235.42 567.604ZM1012.6 486.884C1013.05 488.13 1013.52 489.37 1013.99 490.603L1013.06 490.961C1012.58 489.722 1012.12 488.477 1011.66 487.226L1012.6 486.884ZM136.752 186.162L137.402 185.512L138.11 186.219C137.168 187.16 136.227 188.103 135.287 189.045L134.579 188.339C135.303 187.613 136.028 186.887 136.752 186.162ZM701.936 380.76C702.945 379.914 703.951 379.06 704.954 378.199L705.606 378.958C704.6 379.821 703.591 380.678 702.578 381.527L701.936 380.76ZM457.911 294.385C458.614 295.52 459.319 296.651 460.028 297.78L459.181 298.312C458.471 297.181 457.765 296.048 457.06 294.912L457.911 294.385ZM1243.05 564.869C1244.31 564.395 1245.58 563.913 1246.83 563.425L1247.19 564.357C1245.93 564.847 1244.67 565.33 1243.4 565.806L1243.05 564.869ZM1009.99 479.368C1010.41 480.63 1010.84 481.887 1011.27 483.139L1010.32 483.467C1009.89 482.21 1009.46 480.949 1009.04 479.683L1009.99 479.368ZM453.737 287.562C454.427 288.705 455.12 289.845 455.816 290.982L454.963 291.504C454.266 290.365 453.572 289.223 452.881 288.08L453.737 287.562ZM1250.6 561.934C1251.85 561.428 1253.11 560.915 1254.35 560.396L1254.73 561.319C1253.49 561.839 1252.23 562.354 1250.97 562.862L1250.6 561.934ZM140.229 182.689C141.171 181.748 142.115 180.809 143.058 179.871L143.763 180.58C142.82 181.518 141.877 182.457 140.935 183.397L140.229 182.689ZM707.944 375.605C708.933 374.738 709.92 373.864 710.905 372.986L711.57 373.732C710.583 374.612 709.595 375.488 708.603 376.357L707.944 375.605ZM1007.58 471.79C1007.97 473.061 1008.36 474.329 1008.77 475.592L1007.81 475.895C1007.41 474.628 1007.01 473.358 1006.62 472.083L1007.58 471.79ZM449.631 280.69C450.31 281.838 450.99 282.984 451.674 284.128L450.815 284.641C450.131 283.496 449.45 282.349 448.77 281.199L449.631 280.69ZM1258.08 558.816C1259.32 558.28 1260.56 557.738 1261.79 557.191L1262.2 558.105C1260.96 558.653 1259.72 559.197 1258.47 559.735L1258.08 558.816ZM145.89 177.06C146.839 176.12 147.788 175.181 148.737 174.245L149.44 174.957C148.491 175.893 147.542 176.831 146.594 177.77L145.89 177.06ZM713.854 370.335C714.829 369.452 715.804 368.564 716.777 367.673L717.452 368.411C716.478 369.303 715.502 370.192 714.525 371.076L713.854 370.335ZM445.589 273.784C446.259 274.938 446.93 276.091 447.604 277.242L446.74 277.747C446.066 276.595 445.394 275.441 444.724 274.285L445.589 273.784ZM1005.32 464.165C1005.68 465.441 1006.06 466.714 1006.43 467.983L1005.47 468.267C1005.1 466.995 1004.72 465.72 1004.36 464.442L1005.32 464.165ZM1265.48 555.53C1266.72 554.966 1267.95 554.398 1269.17 553.826L1269.59 554.732C1268.37 555.305 1267.14 555.875 1265.9 556.44L1265.48 555.53ZM151.59 171.437C152.541 170.504 153.492 169.572 154.443 168.643L155.142 169.359C154.191 170.287 153.241 171.218 152.29 172.151L151.59 171.437ZM719.692 364.993C720.662 364.097 721.631 363.199 722.6 362.299L723.281 363.032C722.311 363.932 721.341 364.831 720.37 365.727L719.692 364.993ZM441.599 266.844C442.26 268.002 442.923 269.16 443.588 270.316L442.721 270.815C442.055 269.657 441.392 268.499 440.73 267.339L441.599 266.844ZM1272.83 552.092C1274.05 551.504 1275.27 550.913 1276.48 550.318L1276.92 551.216C1275.71 551.811 1274.49 552.404 1273.26 552.993L1272.83 552.092ZM1003.16 456.503C1003.51 457.781 1003.87 459.057 1004.22 460.331L1003.26 460.602C1002.9 459.327 1002.55 458.049 1002.19 456.769L1003.16 456.503ZM437.654 259.88C438.308 261.042 438.964 262.204 439.621 263.364L438.751 263.857C438.093 262.696 437.437 261.533 436.783 260.37L437.654 259.88ZM157.298 165.864C158.255 164.935 159.213 164.008 160.17 163.085L160.864 163.805C159.908 164.727 158.951 165.653 157.995 166.582L157.298 165.864ZM726.689 358.496C727.259 357.965 727.829 357.434 728.399 356.903L729.081 357.635C728.55 358.129 728.021 358.622 727.491 359.115C727.054 359.522 726.617 359.929 726.18 360.336L725.498 359.604L726.689 358.496ZM1280.1 548.518C1281.32 547.909 1282.52 547.297 1283.72 546.683L1284.18 547.574C1282.98 548.188 1281.77 548.801 1280.55 549.412L1280.1 548.518ZM1001.06 448.818C1001.4 450.1 1001.75 451.382 1002.1 452.661L1001.14 452.924C1000.79 451.644 1000.44 450.362 1000.09 449.08L1001.06 448.818ZM433.742 252.892C434.392 254.058 435.042 255.223 435.695 256.389L434.822 256.877C434.464 256.238 434.107 255.599 433.751 254.96C433.456 254.433 433.162 253.906 432.868 253.378L433.742 252.892ZM1287.32 544.825C1288.53 544.197 1289.73 543.568 1290.92 542.938L1291.38 543.822C1290.19 544.453 1288.99 545.083 1287.79 545.712L1287.32 544.825ZM163.065 160.304C164.03 159.381 164.994 158.461 165.959 157.544L166.648 158.269C165.684 159.185 164.72 160.104 163.756 161.027L163.065 160.304ZM731.302 354.205C732.27 353.307 733.239 352.409 734.21 351.514L734.888 352.248C733.918 353.144 732.949 354.04 731.982 354.938L731.302 354.205ZM998.974 441.126C999.322 442.41 999.669 443.693 1000.02 444.975L999.05 445.236C998.704 443.954 998.357 442.671 998.009 441.388L998.974 441.126ZM430.954 247.872C431.235 248.379 431.516 248.886 431.798 249.394L430.923 249.879C430.276 248.712 429.63 247.546 428.985 246.38L429.86 245.896C430.225 246.555 430.589 247.213 430.954 247.872ZM1294.49 541.03C1295.69 540.387 1296.88 539.744 1298.06 539.101L1298.54 539.98C1297.35 540.623 1296.16 541.267 1294.97 541.911L1294.49 541.03ZM737.129 348.832C738.104 347.939 739.082 347.049 740.062 346.163L740.733 346.905C739.754 347.79 738.778 348.678 737.804 349.569L737.129 348.832ZM168.853 154.808C169.82 153.898 170.786 152.992 171.753 152.09L172.435 152.821C171.47 153.722 170.504 154.627 169.539 155.536L168.853 154.808ZM996.869 433.442C997.224 434.723 997.577 436.004 997.927 437.285L996.963 437.548C996.613 436.269 996.26 434.989 995.906 433.71L996.869 433.442ZM425.989 238.878C426.633 240.047 427.277 241.217 427.923 242.387L427.047 242.87C426.401 241.7 425.757 240.53 425.113 239.361L425.989 238.878ZM1301.62 537.151C1302.81 536.496 1303.99 535.843 1305.16 535.193L1305.65 536.067C1304.47 536.718 1303.29 537.372 1302.1 538.027L1301.62 537.151ZM422.134 231.872L424.06 235.374L423.184 235.856L421.258 232.354L422.134 231.872ZM743.012 343.514C743.999 342.634 744.99 341.758 745.983 340.888L746.642 341.64C745.651 342.508 744.663 343.382 743.678 344.26L743.012 343.514ZM994.699 425.771C995.068 427.048 995.433 428.325 995.795 429.603L994.832 429.875C994.471 428.599 994.107 427.324 993.738 426.049L994.699 425.771ZM174.707 149.349C175.691 148.44 176.675 147.536 177.659 146.637L178.333 147.376C177.351 148.273 176.368 149.176 175.385 150.083L174.707 149.349ZM1308.71 533.209C1309.9 532.547 1311.07 531.888 1312.23 531.234L1312.72 532.105C1311.56 532.76 1310.38 533.419 1309.2 534.082L1308.71 533.209ZM419.417 226.934L420.199 228.354L419.323 228.836C418.679 227.665 418.035 226.496 417.391 225.328L418.267 224.845C418.65 225.541 419.034 226.237 419.417 226.934ZM992.423 418.128C992.813 419.399 993.197 420.672 993.577 421.946L992.618 422.231C992.24 420.959 991.856 419.69 991.467 418.422L992.423 418.128ZM748.981 338.287C749.984 337.426 750.992 336.57 752.003 335.722L752.646 336.488C751.637 337.334 750.633 338.187 749.633 339.046L748.981 338.287ZM180.609 143.959C181.592 143.072 182.575 142.19 183.557 141.315L184.222 142.061C183.242 142.935 182.261 143.815 181.279 144.701L180.609 143.959ZM1315.78 529.227C1316.97 528.558 1318.14 527.893 1319.31 527.235L1319.8 528.105L1319.58 528.231C1318.49 528.848 1317.39 529.471 1316.28 530.098L1315.78 529.227ZM415.09 219.092C415.506 219.843 415.921 220.595 416.337 221.347L415.461 221.83C414.815 220.66 414.169 219.492 413.523 218.327L414.398 217.842C414.629 218.259 414.86 218.675 415.09 219.092ZM990 410.529C990.418 411.791 990.829 413.055 991.232 414.322L990.279 414.626C989.877 413.362 989.468 412.101 989.051 410.843L990 410.529ZM755.062 333.189C756.087 332.352 757.118 331.522 758.154 330.7L758.775 331.484C757.743 332.302 756.716 333.129 755.694 333.964L755.062 333.189ZM186.577 138.641C187.587 137.753 188.597 136.873 189.605 135.999L190.26 136.755C189.253 137.627 188.246 138.506 187.238 139.392L186.577 138.641ZM1322.84 525.235C1324.04 524.561 1325.22 523.895 1326.38 523.238L1326.88 524.109C1325.71 524.766 1324.53 525.432 1323.34 526.105L1322.84 525.235ZM410.501 210.836C411.15 211.999 411.8 213.164 412.45 214.332L411.576 214.818C410.926 213.651 410.277 212.486 409.628 211.324L410.501 210.836ZM987.39 402.988C987.843 404.239 988.286 405.493 988.721 406.75L987.776 407.076C987.342 405.824 986.901 404.574 986.45 403.329L987.39 402.988ZM761.28 328.261C762.332 327.454 763.39 326.657 764.454 325.87L765.049 326.674C763.989 327.457 762.936 328.251 761.889 329.055L761.28 328.261ZM406.576 203.854C407.235 205.019 407.893 206.187 408.551 207.357L407.679 207.847C407.022 206.677 406.364 205.51 405.706 204.347L406.576 203.854ZM192.63 133.4C193.637 132.541 194.644 131.69 195.65 130.847L196.292 131.613C195.288 132.455 194.284 133.304 193.278 134.161L192.63 133.4ZM1329.9 521.266C1331.11 520.594 1332.3 519.932 1333.48 519.283L1333.96 520.158C1332.78 520.807 1331.59 521.468 1330.39 522.139L1329.9 521.266ZM984.554 395.528C985.048 396.763 985.53 398.003 986.003 399.247L985.068 399.602C984.598 398.363 984.117 397.129 983.625 395.899L984.554 395.528ZM402.611 196.899C403.273 198.051 403.934 199.207 404.595 200.366L403.726 200.861C403.066 199.703 402.405 198.548 401.744 197.397L402.611 196.899ZM767.668 323.54C768.748 322.774 769.835 322.018 770.929 321.275L771.491 322.102C770.402 322.841 769.321 323.593 768.247 324.356L767.668 323.54ZM1337.04 517.335C1338.24 516.684 1339.43 516.046 1340.6 515.425L1341.07 516.308C1339.9 516.928 1338.71 517.564 1337.52 518.214L1337.04 517.335ZM198.75 128.272C199.792 127.414 200.833 126.566 201.873 125.728L202.501 126.506C201.464 127.343 200.425 128.189 199.386 129.044L198.75 128.272ZM399.67 191.817C399.984 192.356 400.297 192.895 400.611 193.436L399.746 193.938C399.072 192.776 398.397 191.618 397.721 190.465L398.584 189.959C398.946 190.577 399.308 191.197 399.67 191.817ZM981.455 388.171C981.995 389.387 982.523 390.608 983.039 391.834L982.117 392.222C981.604 391.002 981.079 389.787 980.541 388.577L981.455 388.171ZM774.24 319.078C775.352 318.359 776.471 317.653 777.599 316.961L778.122 317.813C777.001 318.501 775.889 319.203 774.784 319.918L774.24 319.078ZM1344.22 513.53C1344.82 513.222 1345.42 512.919 1346.01 512.621L1346.46 513.513C1345.87 513.811 1345.28 514.113 1344.68 514.419L1344.22 513.53ZM204.99 123.24C206.028 122.421 207.065 121.611 208.101 120.812L208.711 121.604C207.679 122.401 206.645 123.208 205.61 124.025L204.99 123.24ZM394.51 183.089C395.191 184.225 395.871 185.365 396.55 186.51L395.69 187.02C395.012 185.876 394.333 184.738 393.653 183.604L394.51 183.089ZM978.055 380.944C978.649 382.136 979.228 383.335 979.794 384.539L978.889 384.964C978.326 383.767 977.75 382.575 977.16 381.389L978.055 380.944ZM781.012 314.926C782.159 314.263 783.314 313.614 784.479 312.981L784.956 313.86C783.799 314.488 782.652 315.132 781.513 315.792L781.012 314.926ZM211.315 118.362C212.396 117.55 213.475 116.749 214.552 115.96L215.143 116.767C214.069 117.553 212.993 118.351 211.916 119.162L211.315 118.362ZM390.329 176.219C391.03 177.354 391.73 178.496 392.427 179.643L391.573 180.162C390.876 179.017 390.178 177.878 389.478 176.744L390.329 176.219ZM974.326 373.877C974.978 375.042 975.614 376.214 976.236 377.392L975.351 377.859C974.734 376.688 974.101 375.523 973.453 374.365L974.326 373.877ZM787.997 311.134C789.177 310.536 790.366 309.954 791.566 309.391L791.991 310.296C790.801 310.855 789.62 311.432 788.449 312.026L787.997 311.134ZM386.082 169.446C386.797 170.567 387.51 171.695 388.221 172.83L387.374 173.361C386.664 172.229 385.952 171.103 385.239 169.983L386.082 169.446ZM217.781 113.631C218.855 112.867 219.928 112.116 221 111.378L221.567 112.202C220.5 112.937 219.43 113.685 218.36 114.446L217.781 113.631ZM970.247 367.015C970.96 368.144 971.655 369.279 972.334 370.422L971.474 370.933C970.8 369.798 970.109 368.67 969.402 367.549L970.247 367.015ZM795.197 307.753C796.408 307.229 797.63 306.724 798.862 306.237L799.229 307.168C798.007 307.65 796.795 308.151 795.593 308.671L795.197 307.753ZM381.709 162.711C382.443 163.819 383.174 164.935 383.902 166.057L383.064 166.602C382.336 165.482 381.607 164.369 380.875 163.263L381.709 162.711ZM965.798 360.384C966.571 361.467 967.325 362.558 968.062 363.656L967.231 364.214C966.5 363.123 965.751 362.04 964.984 360.965L965.798 360.384ZM224.379 109.093C225.504 108.345 226.627 107.613 227.749 106.897L228.287 107.74C227.171 108.453 226.053 109.182 224.932 109.926L224.379 109.093ZM802.585 304.84C803.834 304.395 805.094 303.969 806.366 303.564L806.669 304.517C805.408 304.919 804.159 305.34 802.921 305.782L802.585 304.84ZM378.609 158.092C378.905 158.528 379.202 158.965 379.498 159.403L378.669 159.962C377.914 158.844 377.156 157.734 376.396 156.633L377.218 156.065C377.683 156.737 378.146 157.413 378.609 158.092ZM960.963 354.01C961.803 355.051 962.624 356.101 963.426 357.158L962.629 357.762C961.833 356.713 961.018 355.671 960.185 354.638L960.963 354.01ZM810.155 302.43C811.43 302.072 812.716 301.735 814.015 301.42L814.251 302.392C812.964 302.704 811.689 303.038 810.425 303.393L810.155 302.43ZM231.106 104.797C232.249 104.097 233.391 103.414 234.529 102.749L235.034 103.613C233.901 104.274 232.766 104.953 231.628 105.65L231.106 104.797ZM372.607 149.54C373.382 150.61 374.153 151.689 374.922 152.776L374.105 153.354C373.339 152.269 372.569 151.194 371.797 150.127L372.607 149.54ZM955.752 347.938C956.66 348.933 957.548 349.937 958.416 350.949L957.657 351.6C956.796 350.595 955.915 349.599 955.014 348.612L955.752 347.938ZM817.893 300.551C819.178 300.287 820.475 300.044 821.785 299.823L821.951 300.809C820.654 301.028 819.368 301.269 818.094 301.531L817.893 300.551ZM367.8 143.079C368.611 144.139 369.417 145.209 370.22 146.288L369.418 146.885C368.617 145.809 367.813 144.742 367.006 143.686L367.8 143.079ZM950.205 342.223C951.166 343.154 952.106 344.094 953.027 345.042L952.309 345.738C951.396 344.797 950.463 343.865 949.509 342.941L950.205 342.223ZM238.061 100.74C239.236 100.09 240.408 99.4599 241.578 98.8501L242.04 99.7368C240.878 100.343 239.713 100.969 238.546 101.615L238.061 100.74ZM825.75 299.226C827.046 299.055 828.353 298.905 829.673 298.777L829.77 299.772C828.462 299.899 827.166 300.048 825.882 300.218L825.75 299.226ZM944.301 336.84C945.308 337.703 946.295 338.576 947.262 339.457L946.588 340.196C945.629 339.322 944.649 338.456 943.65 337.599L944.301 336.84ZM362.844 136.79C363.686 137.825 364.524 138.872 365.357 139.93L364.571 140.549C363.741 139.495 362.907 138.452 362.068 137.421L362.844 136.79ZM833.626 298.462C834.956 298.379 836.298 298.318 837.653 298.28L837.681 299.28C836.338 299.318 835.007 299.378 833.688 299.46L833.626 298.462ZM245.078 97.0825C246.317 96.4779 247.552 95.8971 248.785 95.3412L249.196 96.2527C247.973 96.8044 246.747 97.3808 245.517 97.9812L245.078 97.0825ZM938.037 331.786C939.123 332.61 940.187 333.443 941.231 334.285L940.603 335.063C939.567 334.227 938.51 333.4 937.432 332.582L938.037 331.786ZM841.574 298.235C842.884 298.241 844.206 298.268 845.54 298.317L845.503 299.316C844.18 299.268 842.869 299.241 841.57 299.235L841.574 298.235ZM357.686 130.653C358.555 131.652 359.419 132.663 360.279 133.686L359.514 134.329C358.657 133.31 357.797 132.304 356.932 131.31L357.686 130.653ZM931.593 327.177C932.706 327.927 933.799 328.686 934.873 329.454L934.291 330.267C933.225 329.505 932.14 328.751 931.034 328.006L931.593 327.177ZM849.578 298.53C850.866 298.618 852.165 298.726 853.475 298.855L853.377 299.85C852.077 299.722 850.788 299.615 849.51 299.527L849.578 298.53ZM924.848 322.894C925.982 323.572 927.096 324.259 928.192 324.954L927.657 325.798C926.568 325.108 925.461 324.426 924.335 323.753L924.848 322.894ZM252.473 93.7475C253.699 93.2416 254.922 92.7614 256.141 92.3075L256.49 93.2447C255.282 93.6943 254.07 94.1703 252.855 94.6719L252.473 93.7475ZM857.405 299.299C858.727 299.467 860.059 299.656 861.404 299.867L861.249 300.855C859.914 300.646 858.591 300.458 857.279 300.291L857.405 299.299ZM917.849 318.949C919.055 319.589 920.24 320.238 921.406 320.896L920.915 321.767C919.756 321.114 918.578 320.469 917.38 319.833L917.849 318.949ZM352.289 124.685C353.205 125.659 354.116 126.647 355.021 127.649L354.279 128.319C353.378 127.322 352.472 126.339 351.561 125.37L352.289 124.685ZM865.288 300.527C866.561 300.761 867.845 301.013 869.139 301.285L868.934 302.263C867.648 301.994 866.372 301.743 865.107 301.511L865.288 300.527ZM910.777 315.405C911.979 315.973 913.163 316.549 914.329 317.134L913.881 318.028C912.722 317.447 911.545 316.874 910.349 316.309L910.777 315.405ZM873.054 302.157C874.348 302.462 875.653 302.786 876.968 303.129L876.715 304.097C875.408 303.756 874.111 303.434 872.824 303.13L873.054 302.157ZM903.399 312.118C904.656 312.645 905.895 313.181 907.116 313.725L906.709 314.639C905.495 314.098 904.263 313.565 903.012 313.04L903.399 312.118ZM880.707 304.148C881.963 304.505 883.228 304.88 884.503 305.272L884.209 306.227C882.941 305.838 881.683 305.465 880.434 305.11L880.707 304.148ZM896.069 309.213C897.324 309.682 898.562 310.159 899.784 310.643L899.415 311.573C898.2 311.091 896.968 310.617 895.719 310.15L896.069 309.213ZM888.357 306.5C889.004 306.714 889.654 306.932 890.306 307.154C890.959 307.377 891.608 307.602 892.253 307.829L891.921 308.772C891.279 308.547 890.633 308.323 889.983 308.101C889.334 307.879 888.688 307.662 888.044 307.45L888.357 306.5ZM346.679 118.968C347.633 119.899 348.581 120.844 349.523 121.805L348.809 122.505C347.873 121.55 346.93 120.609 345.981 119.685L346.679 118.968ZM259.975 90.9646C261.265 90.5417 262.55 90.1498 263.831 89.7899L264.102 90.7526C262.835 91.1085 261.563 91.4962 260.287 91.9148L259.975 90.9646ZM340.799 113.507C341.793 114.385 342.779 115.279 343.759 116.189L343.079 116.922C342.105 116.017 341.124 115.128 340.137 114.256L340.799 113.507ZM267.661 88.8072C268.991 88.499 270.315 88.2268 271.634 87.9919L271.81 88.9765C270.508 89.2082 269.2 89.4769 267.887 89.7813L267.661 88.8072ZM334.625 108.343C335.674 109.171 336.715 110.019 337.749 110.884L337.108 111.651C336.081 110.791 335.047 109.95 334.005 109.128L334.625 108.343ZM275.619 87.395C276.942 87.235 278.259 87.1142 279.57 87.0339L279.631 88.032C278.34 88.1111 277.043 88.23 275.739 88.3878L275.619 87.395ZM328.18 103.561C329.28 104.325 330.37 105.109 331.453 105.913L330.857 106.716C329.782 105.918 328.7 105.14 327.609 104.382L328.18 103.561ZM321.445 99.2035C322.586 99.8876 323.717 100.593 324.84 101.319L324.296 102.159C323.183 101.439 322.062 100.739 320.931 100.061L321.445 99.2035ZM283.625 86.916C284.972 86.9211 286.313 86.971 287.646 87.0673L287.574 88.0647C286.264 87.9701 284.946 87.921 283.621 87.916L283.625 86.916ZM314.395 95.3143C315.59 95.9171 316.775 96.5429 317.95 97.1913L317.467 98.0669C316.302 97.4244 315.128 96.8043 313.944 96.2072L314.395 95.3143ZM291.63 87.4966C292.956 87.6876 294.274 87.9266 295.585 88.215L295.371 89.1917C294.084 88.9086 292.79 88.6739 291.488 88.4863L291.63 87.4966ZM307.087 91.9751C308.328 92.4842 309.557 93.0177 310.776 93.5751L310.36 94.4846C309.153 93.9325 307.936 93.4042 306.708 92.9001L307.087 91.9751ZM299.495 89.2296C300.143 89.4238 300.788 89.6307 301.432 89.8504C301.804 89.9776 302.176 90.1068 302.546 90.2383C302.809 90.3316 303.072 90.4259 303.334 90.5214L302.991 91.461C302.367 91.2334 301.739 91.012 301.109 90.7968C300.477 90.5812 299.843 90.3781 299.208 90.1875L299.495 89.2296Z" fill="#131415"></path> <path d="M241.551 89.2852C242.544 88.5397 243.96 88.792 244.633 89.8342L250.158 98.381C250.95 99.6055 249.702 101.124 248.347 100.586L236.546 95.8962C235.459 95.4644 235.264 94.0095 236.199 93.3071L241.551 89.2852Z" fill="url(#paint0_linear)"></path> <path d="M385.659 161.688C385.205 162.843 383.867 163.371 382.747 162.837L373.562 158.455C372.246 157.827 372.512 155.88 373.948 155.628L386.456 153.434C387.608 153.232 388.536 154.369 388.108 155.457L385.659 161.688Z" fill="url(#paint1_linear)"></path> <path d="M563.659 263.688C563.205 264.843 561.867 265.371 560.747 264.837L551.562 260.455C550.246 259.827 550.512 257.88 551.948 257.628L564.456 255.434C565.608 255.232 566.536 256.369 566.108 257.457L563.659 263.688Z" fill="url(#paint2_linear)"></path> <path d="M649.042 419.471C647.965 420.089 646.591 419.663 646.051 418.545L641.627 409.381C640.993 408.068 642.418 406.715 643.696 407.417L654.827 413.531C655.852 414.093 655.865 415.561 654.851 416.143L649.042 419.471Z" fill="url(#paint3_linear)"></path> <path d="M888.5 194.909C888.825 196.106 888.066 197.328 886.849 197.568L876.864 199.536C875.433 199.818 874.484 198.097 875.486 197.038L884.212 187.811C885.015 186.961 886.439 187.319 886.745 188.448L888.5 194.909Z" fill="url(#paint4_linear)"></path> <path d="M1013.5 330.909C1013.83 332.106 1013.07 333.328 1011.85 333.568L1001.86 335.536C1000.43 335.818 999.484 334.097 1000.49 333.038L1009.21 323.811C1010.02 322.961 1011.44 323.319 1011.75 324.448L1013.5 330.909Z" fill="url(#paint5_linear)"></path> <path d="M1250.5 568.909C1250.83 570.106 1250.07 571.328 1248.85 571.568L1238.86 573.536C1237.43 573.818 1236.48 572.097 1237.49 571.038L1246.21 561.811C1247.02 560.961 1248.44 561.319 1248.75 562.448L1250.5 568.909Z" fill="url(#paint6_linear)"></path> <defs> <linearGradient id="paint0_linear" x1="243.262" y1="87.9999" x2="238.253" y2="102.912" gradientUnits="userSpaceOnUse"> <stop stop-color="#7DB7FF"></stop> <stop offset="1" stop-color="#2481F5"></stop> </linearGradient> <linearGradient id="paint1_linear" x1="384.877" y1="163.679" x2="381.324" y2="148.355" gradientUnits="userSpaceOnUse"> <stop stop-color="#7DB7FF"></stop> <stop offset="1" stop-color="#2481F5"></stop> </linearGradient> <linearGradient id="paint2_linear" x1="562.877" y1="265.679" x2="559.324" y2="250.355" gradientUnits="userSpaceOnUse"> <stop stop-color="#7DB7FF"></stop> <stop offset="1" stop-color="#2481F5"></stop> </linearGradient> <linearGradient id="paint3_linear" x1="647.186" y1="420.535" x2="654.001" y2="406.357" gradientUnits="userSpaceOnUse"> <stop stop-color="#7DB7FF"></stop> <stop offset="1" stop-color="#2481F5"></stop> </linearGradient> <linearGradient id="paint4_linear" x1="889.06" y1="196.973" x2="877.062" y2="186.799" gradientUnits="userSpaceOnUse"> <stop stop-color="#7DB7FF"></stop> <stop offset="1" stop-color="#2481F5"></stop> </linearGradient> <linearGradient id="paint5_linear" x1="1014.06" y1="332.973" x2="1002.06" y2="322.799" gradientUnits="userSpaceOnUse"> <stop stop-color="#7DB7FF"></stop> <stop offset="1" stop-color="#2481F5"></stop> </linearGradient> <linearGradient id="paint6_linear" x1="1251.06" y1="570.973" x2="1239.06" y2="560.799" gradientUnits="userSpaceOnUse"> <stop stop-color="#7DB7FF"></stop> <stop offset="1" stop-color="#2481F5"></stop> </linearGradient> </defs> </svg> 